<svg xmlns="http://www.w3.org/2000/svg" xmlns:xlink="http://www.w3.org/1999/xlink" width="50" zoomAndPan="magnify" viewBox="0 0 37.5 37.499999" height="50" preserveAspectRatio="xMidYMid meet" version="1.0"><defs><clipPath id="8ce4414814"><path d="M 0 7.066406 L 37.007812 7.066406 L 37.007812 30 L 0 30 Z M 0 7.066406 " clip-rule="nonzero"/></clipPath><clipPath id="b3c6048005"><path d="M 0 7.066406 L 37 7.066406 L 37 27 L 0 27 Z M 0 7.066406 " clip-rule="nonzero"/></clipPath></defs><g clip-path="url(#8ce4414814)"><path fill="#282a29" d="M 36.976562 24.605469 C 36.976562 24.597656 36.976562 24.589844 36.976562 24.582031 C 36.96875 24.234375 36.851562 23.898438 36.613281 23.566406 C 36.386719 23.246094 36.039062 22.949219 35.578125 22.683594 C 35.136719 22.425781 34.640625 22.230469 34.101562 22.097656 C 33.558594 21.972656 33.003906 21.90625 32.449219 21.898438 C 32.355469 21.898438 32.257812 21.898438 32.164062 21.90625 L 32.164062 20.894531 C 32.164062 20.882812 32.15625 20.867188 32.15625 20.859375 C 32.15625 20.851562 32.15625 20.84375 32.148438 20.835938 C 32.140625 20.8125 32.117188 20.800781 32.101562 20.792969 L 27.851562 18.328125 C 27.8125 18.308594 27.761719 18.308594 27.726562 18.328125 L 26.296875 19.160156 L 26.296875 18.085938 C 26.296875 17.9375 26.261719 17.796875 26.1875 17.652344 C 26.054688 17.386719 25.796875 17.140625 25.417969 16.925781 L 22.785156 15.40625 C 22.75 15.382812 22.695312 15.382812 22.660156 15.40625 L 22.023438 15.777344 L 22.023438 15.035156 C 22.023438 15.019531 22.015625 15.007812 22.015625 15 C 22.015625 14.992188 22.015625 14.984375 22.007812 14.976562 C 22 14.953125 21.980469 14.9375 21.964844 14.933594 L 18.03125 12.65625 C 17.992188 12.632812 17.941406 12.632812 17.902344 12.65625 L 16.359375 13.558594 L 16.359375 12.359375 C 16.359375 12.359375 16.359375 12.351562 16.359375 12.351562 C 16.359375 12.128906 16.261719 11.914062 16.078125 11.699219 C 15.871094 11.460938 15.589844 11.238281 15.234375 11.039062 L 12.957031 9.71875 C 12.917969 9.695312 12.867188 9.695312 12.832031 9.71875 L 9.84375 11.460938 L 10.152344 11.023438 C 10.167969 11 10.175781 10.976562 10.175781 10.949219 L 10.183594 8.1875 C 10.183594 8.179688 10.183594 8.175781 10.183594 8.175781 C 10.183594 8.175781 10.183594 8.167969 10.183594 8.167969 C 10.183594 8.167969 10.183594 8.167969 10.183594 8.160156 C 10.175781 8.144531 10.175781 8.128906 10.160156 8.113281 C 10.152344 8.101562 10.140625 8.09375 10.125 8.085938 C 10.125 8.085938 10.125 8.085938 10.117188 8.085938 L 8.445312 7.097656 C 8.414062 7.082031 8.386719 7.078125 8.347656 7.082031 L 0.105469 9.085938 C 0.0898438 9.085938 0.0820312 9.09375 0.0742188 9.101562 C 0.0585938 9.109375 0.0429688 9.125 0.03125 9.144531 C 0.03125 9.144531 0.03125 9.152344 0.0234375 9.152344 C 0.015625 9.167969 0.0078125 9.183594 0.0078125 9.199219 C 0.0078125 9.207031 0.0078125 9.207031 0.0078125 9.210938 C 0.0078125 9.210938 0.0078125 9.210938 0.0078125 9.21875 L 0 11.964844 C 0 12.007812 0.0234375 12.054688 0.0664062 12.074219 L 1.90625 13.144531 C 1.90625 13.144531 1.914062 13.144531 1.914062 13.144531 C 1.929688 13.152344 1.953125 13.160156 1.972656 13.160156 C 1.980469 13.160156 1.996094 13.160156 2.003906 13.152344 L 3.335938 12.796875 L 4.679688 13.574219 L 4.679688 14.671875 C 4.679688 14.714844 4.703125 14.761719 4.746094 14.785156 L 6.582031 15.851562 C 6.582031 15.851562 6.589844 15.851562 6.589844 15.851562 C 6.597656 15.851562 6.605469 15.859375 6.605469 15.859375 C 6.617188 15.867188 6.625 15.867188 6.640625 15.867188 C 6.664062 15.867188 6.683594 15.859375 6.699219 15.851562 C 6.707031 15.851562 6.707031 15.84375 6.714844 15.835938 C 6.722656 15.828125 6.738281 15.820312 6.746094 15.816406 L 6.9375 15.546875 L 6.9375 15.984375 C 6.9375 16.03125 6.960938 16.074219 7.003906 16.097656 L 9.453125 17.511719 C 9.867188 17.757812 10.300781 17.921875 10.746094 18.011719 C 11.019531 18.0625 11.292969 18.09375 11.558594 18.09375 C 11.714844 18.09375 11.863281 18.085938 12.011719 18.0625 L 12.011719 18.914062 C 12.011719 18.960938 12.03125 19.003906 12.078125 19.027344 L 16.011719 21.304688 C 16.035156 21.320312 16.054688 21.320312 16.078125 21.320312 C 16.101562 21.320312 16.121094 21.3125 16.144531 21.304688 L 16.78125 20.933594 L 16.78125 21.675781 C 16.78125 21.71875 16.800781 21.765625 16.847656 21.785156 L 18.570312 22.789062 C 18.59375 22.800781 18.613281 22.800781 18.636719 22.800781 C 18.660156 22.800781 18.679688 22.792969 18.703125 22.789062 L 19.605469 22.261719 L 19.605469 23.3125 C 19.605469 23.359375 19.628906 23.402344 19.671875 23.425781 L 21.601562 24.546875 C 21.601562 24.546875 21.601562 24.546875 21.609375 24.546875 C 21.617188 24.554688 21.632812 24.554688 21.640625 24.558594 C 21.644531 24.558594 21.652344 24.558594 21.660156 24.558594 C 21.683594 24.558594 21.699219 24.554688 21.71875 24.546875 C 21.71875 24.546875 21.71875 24.546875 21.726562 24.546875 C 21.742188 24.539062 21.757812 24.523438 21.765625 24.507812 C 21.765625 24.507812 21.773438 24.5 21.773438 24.5 C 21.773438 24.5 21.78125 24.492188 21.78125 24.492188 L 22.675781 22.417969 C 22.816406 22.460938 22.96875 22.492188 23.15625 22.511719 C 23.148438 22.519531 23.140625 22.519531 23.140625 22.527344 C 23.132812 22.535156 23.132812 22.550781 23.132812 22.558594 C 23.132812 22.566406 23.125 22.578125 23.125 22.585938 L 23.117188 25.347656 C 23.117188 25.390625 23.140625 25.433594 23.183594 25.457031 L 24.898438 26.453125 C 24.921875 26.464844 24.945312 26.464844 24.96875 26.464844 C 24.988281 26.464844 25.011719 26.460938 25.035156 26.453125 L 28.015625 24.714844 L 28.007812 27.304688 C 28.007812 27.636719 28.125 27.972656 28.363281 28.296875 C 28.597656 28.617188 28.960938 28.921875 29.441406 29.203125 C 29.90625 29.472656 30.410156 29.671875 30.949219 29.804688 C 31.480469 29.929688 32.03125 29.996094 32.578125 29.996094 C 32.585938 29.996094 32.589844 29.996094 32.597656 29.996094 C 33.152344 29.996094 33.699219 29.929688 34.226562 29.796875 C 34.75 29.664062 35.238281 29.472656 35.667969 29.21875 C 36.105469 28.964844 36.4375 28.675781 36.667969 28.359375 C 36.886719 28.039062 37.007812 27.710938 37.007812 27.371094 Z M 36.976562 24.605469 " fill-opacity="1" fill-rule="nonzero"/></g><path fill="#06b69e" d="M 1.234375 12.417969 C 1.234375 12.351562 1.285156 12.296875 1.351562 12.296875 C 1.417969 12.296875 1.472656 12.351562 1.472656 12.417969 C 1.472656 12.484375 1.417969 12.535156 1.359375 12.535156 L 1.839844 12.816406 L 1.847656 10.347656 L 0.792969 9.738281 C 0.785156 9.785156 0.730469 9.828125 0.679688 9.828125 C 0.613281 9.828125 0.5625 9.777344 0.5625 9.710938 C 0.5625 9.671875 0.578125 9.644531 0.597656 9.628906 L 0.257812 9.433594 L 0.25 11.890625 L 1.25 12.46875 C 1.242188 12.453125 1.234375 12.441406 1.234375 12.417969 Z M 1.351562 10.265625 C 1.417969 10.265625 1.472656 10.316406 1.472656 10.382812 C 1.472656 10.453125 1.417969 10.503906 1.351562 10.503906 C 1.285156 10.503906 1.234375 10.453125 1.234375 10.382812 C 1.234375 10.316406 1.285156 10.265625 1.351562 10.265625 Z M 1.351562 10.941406 C 1.417969 10.941406 1.472656 10.992188 1.472656 11.058594 C 1.472656 11.125 1.417969 11.179688 1.351562 11.179688 C 1.285156 11.179688 1.234375 11.125 1.234375 11.058594 C 1.234375 10.992188 1.285156 10.941406 1.351562 10.941406 Z M 1.351562 11.617188 C 1.417969 11.617188 1.472656 11.667969 1.472656 11.734375 C 1.472656 11.800781 1.417969 11.851562 1.351562 11.851562 C 1.285156 11.851562 1.234375 11.800781 1.234375 11.734375 C 1.234375 11.675781 1.285156 11.617188 1.351562 11.617188 Z M 0.679688 11.859375 C 0.613281 11.859375 0.5625 11.808594 0.5625 11.742188 C 0.5625 11.675781 0.613281 11.625 0.679688 11.625 C 0.746094 11.625 0.796875 11.675781 0.796875 11.742188 C 0.796875 11.800781 0.746094 11.859375 0.679688 11.859375 Z M 0.679688 11.179688 C 0.613281 11.179688 0.5625 11.125 0.5625 11.058594 C 0.5625 10.992188 0.613281 10.941406 0.679688 10.941406 C 0.746094 10.941406 0.796875 10.992188 0.796875 11.058594 C 0.796875 11.125 0.746094 11.179688 0.679688 11.179688 Z M 0.679688 10.503906 C 0.613281 10.503906 0.5625 10.453125 0.5625 10.382812 C 0.5625 10.316406 0.613281 10.265625 0.679688 10.265625 C 0.746094 10.265625 0.796875 10.316406 0.796875 10.382812 C 0.796875 10.453125 0.746094 10.503906 0.679688 10.503906 Z M 4.6875 13.203125 C 4.644531 13.1875 4.613281 13.144531 4.613281 13.09375 C 4.613281 13.039062 4.644531 12.996094 4.695312 12.980469 L 4.695312 12.527344 C 4.652344 12.511719 4.613281 12.46875 4.613281 12.417969 C 4.613281 12.367188 4.652344 12.320312 4.695312 12.304688 L 4.695312 11.921875 C 4.695312 11.914062 4.695312 11.914062 4.695312 11.90625 C 4.695312 11.890625 4.703125 11.882812 4.703125 11.867188 C 4.703125 11.859375 4.703125 11.859375 4.710938 11.851562 C 4.652344 11.847656 4.605469 11.792969 4.605469 11.734375 C 4.605469 11.667969 4.660156 11.617188 4.726562 11.617188 C 4.777344 11.617188 4.8125 11.644531 4.835938 11.691406 L 5.265625 11.148438 L 4.121094 10.480469 C 4.105469 10.496094 4.082031 10.503906 4.058594 10.503906 C 3.992188 10.503906 3.941406 10.453125 3.941406 10.382812 L 3.683594 10.238281 L 3.492188 10.125 L 3.492188 10.339844 C 3.496094 10.355469 3.496094 10.371094 3.496094 10.382812 C 3.496094 10.398438 3.492188 10.414062 3.492188 10.429688 L 3.492188 11.007812 C 3.496094 11.023438 3.503906 11.039062 3.503906 11.058594 C 3.503906 11.074219 3.496094 11.097656 3.492188 11.113281 L 3.492188 11.683594 C 3.496094 11.699219 3.503906 11.71875 3.503906 11.734375 C 3.503906 11.757812 3.496094 11.773438 3.492188 11.785156 L 3.492188 12.351562 C 3.496094 12.367188 3.503906 12.386719 3.503906 12.410156 C 3.503906 12.433594 3.496094 12.445312 3.492188 12.46875 L 3.492188 12.585938 L 4.695312 13.285156 Z M 4.734375 10.941406 C 4.800781 10.941406 4.851562 10.992188 4.851562 11.058594 C 4.851562 11.125 4.800781 11.179688 4.734375 11.179688 C 4.667969 11.179688 4.613281 11.125 4.613281 11.058594 C 4.605469 10.992188 4.667969 10.941406 4.734375 10.941406 Z M 4.050781 12.535156 C 3.984375 12.535156 3.933594 12.484375 3.933594 12.417969 C 3.933594 12.351562 3.984375 12.296875 4.050781 12.296875 C 4.121094 12.296875 4.171875 12.351562 4.171875 12.417969 C 4.171875 12.484375 4.121094 12.535156 4.050781 12.535156 Z M 4.050781 11.859375 C 3.984375 11.859375 3.933594 11.808594 3.933594 11.742188 C 3.933594 11.675781 3.984375 11.625 4.050781 11.625 C 4.121094 11.625 4.171875 11.675781 4.171875 11.742188 C 4.171875 11.800781 4.121094 11.859375 4.050781 11.859375 Z M 4.050781 11.179688 C 3.984375 11.179688 3.933594 11.125 3.933594 11.058594 C 3.933594 10.992188 3.984375 10.941406 4.050781 10.941406 C 4.121094 10.941406 4.171875 10.992188 4.171875 11.058594 C 4.171875 11.125 4.121094 11.179688 4.050781 11.179688 Z M 4.941406 14.605469 L 6.523438 15.519531 L 6.53125 13.054688 L 5.515625 12.46875 C 5.496094 12.507812 5.457031 12.535156 5.414062 12.535156 C 5.347656 12.535156 5.296875 12.484375 5.296875 12.417969 C 5.296875 12.394531 5.300781 12.371094 5.316406 12.351562 L 4.953125 12.144531 Z M 5.40625 14.570312 C 5.339844 14.570312 5.289062 14.515625 5.289062 14.449219 C 5.289062 14.382812 5.339844 14.332031 5.40625 14.332031 C 5.472656 14.332031 5.523438 14.382812 5.523438 14.449219 C 5.523438 14.515625 5.472656 14.570312 5.40625 14.570312 Z M 6.078125 12.972656 C 6.144531 12.972656 6.199219 13.027344 6.199219 13.09375 C 6.199219 13.160156 6.144531 13.210938 6.078125 13.210938 C 6.011719 13.210938 5.960938 13.160156 5.960938 13.09375 C 5.960938 13.027344 6.011719 12.972656 6.078125 12.972656 Z M 6.078125 13.648438 C 6.144531 13.648438 6.199219 13.699219 6.199219 13.765625 C 6.199219 13.835938 6.144531 13.886719 6.078125 13.886719 C 6.011719 13.886719 5.960938 13.835938 5.960938 13.765625 C 5.960938 13.699219 6.011719 13.648438 6.078125 13.648438 Z M 6.078125 14.332031 C 6.144531 14.332031 6.199219 14.382812 6.199219 14.449219 C 6.199219 14.515625 6.144531 14.570312 6.078125 14.570312 C 6.011719 14.570312 5.960938 14.515625 5.960938 14.449219 C 5.960938 14.382812 6.011719 14.332031 6.078125 14.332031 Z M 6.078125 15.007812 C 6.144531 15.007812 6.199219 15.058594 6.199219 15.125 C 6.199219 15.191406 6.144531 15.242188 6.078125 15.242188 C 6.011719 15.242188 5.960938 15.191406 5.960938 15.125 C 5.960938 15.058594 6.011719 15.007812 6.078125 15.007812 Z M 5.40625 12.972656 C 5.472656 12.972656 5.523438 13.027344 5.523438 13.09375 C 5.523438 13.160156 5.472656 13.210938 5.40625 13.210938 C 5.339844 13.210938 5.289062 13.160156 5.289062 13.09375 C 5.289062 13.027344 5.339844 12.972656 5.40625 12.972656 Z M 5.289062 13.765625 C 5.289062 13.699219 5.339844 13.648438 5.40625 13.648438 C 5.472656 13.648438 5.523438 13.699219 5.523438 13.765625 C 5.523438 13.835938 5.472656 13.886719 5.40625 13.886719 C 5.339844 13.886719 5.289062 13.835938 5.289062 13.765625 Z M 12.003906 17.808594 L 12.011719 16.15625 C 12.011719 16.140625 12.015625 16.132812 12.015625 16.125 C 12.015625 16.117188 12.015625 16.105469 12.023438 16.097656 C 12.03125 16.089844 12.039062 16.082031 12.054688 16.066406 C 12.0625 16.058594 12.070312 16.050781 12.078125 16.042969 L 13.46875 15.234375 C 13.421875 15.222656 13.386719 15.175781 13.386719 15.125 C 13.386719 15.058594 13.4375 15.007812 13.503906 15.007812 C 13.519531 15.007812 13.535156 15.007812 13.539062 15.011719 L 13.539062 14.695312 C 13.539062 14.695312 13.535156 14.695312 13.535156 14.703125 C 13.503906 14.722656 13.46875 14.746094 13.4375 14.777344 C 13.421875 14.789062 13.402344 14.796875 13.386719 14.8125 C 13.332031 14.851562 13.273438 14.886719 13.207031 14.925781 C 13.121094 14.976562 13.023438 15.027344 12.917969 15.074219 C 12.933594 15.09375 12.941406 15.109375 12.941406 15.140625 C 12.941406 15.207031 12.890625 15.257812 12.824219 15.257812 C 12.765625 15.257812 12.71875 15.214844 12.707031 15.15625 C 12.625 15.183594 12.535156 15.207031 12.445312 15.234375 C 12.3125 15.273438 12.179688 15.296875 12.046875 15.316406 C 11.949219 15.332031 11.855469 15.339844 11.757812 15.339844 C 11.730469 15.339844 11.707031 15.339844 11.675781 15.339844 C 11.640625 15.339844 11.597656 15.347656 11.558594 15.347656 C 11.515625 15.347656 11.46875 15.347656 11.433594 15.347656 C 11.417969 15.347656 11.410156 15.347656 11.394531 15.347656 C 11.300781 15.339844 11.195312 15.332031 11.101562 15.324219 C 11.085938 15.324219 11.070312 15.316406 11.046875 15.316406 C 10.945312 15.304688 10.847656 15.289062 10.746094 15.265625 C 10.574219 15.230469 10.40625 15.183594 10.242188 15.125 C 10.242188 15.132812 10.242188 15.132812 10.242188 15.140625 C 10.242188 15.207031 10.191406 15.257812 10.125 15.257812 C 10.058594 15.257812 10.007812 15.207031 10.007812 15.140625 C 10.007812 15.101562 10.019531 15.074219 10.042969 15.050781 C 9.84375 14.96875 9.644531 14.878906 9.453125 14.761719 L 8.890625 14.433594 C 8.890625 14.441406 8.898438 14.449219 8.898438 14.457031 C 8.898438 14.523438 8.84375 14.574219 8.777344 14.574219 C 8.710938 14.574219 8.660156 14.523438 8.660156 14.457031 C 8.660156 14.40625 8.691406 14.359375 8.734375 14.347656 L 7.195312 13.457031 L 7.1875 15.910156 L 8.023438 16.394531 C 8.046875 16.371094 8.074219 16.363281 8.105469 16.363281 C 8.171875 16.363281 8.222656 16.414062 8.222656 16.480469 C 8.222656 16.488281 8.222656 16.496094 8.214844 16.511719 L 9.332031 17.15625 C 9.332031 17.089844 9.382812 17.039062 9.453125 17.039062 C 9.519531 17.039062 9.570312 17.089844 9.570312 17.15625 C 9.570312 17.203125 9.546875 17.238281 9.511719 17.261719 L 9.570312 17.296875 C 9.9375 17.511719 10.332031 17.660156 10.722656 17.75 C 10.746094 17.734375 10.769531 17.722656 10.796875 17.722656 C 10.839844 17.722656 10.886719 17.75 10.902344 17.789062 C 11.046875 17.816406 11.203125 17.832031 11.351562 17.839844 C 11.351562 17.773438 11.402344 17.722656 11.46875 17.722656 C 11.535156 17.722656 11.589844 17.773438 11.589844 17.839844 C 11.738281 17.832031 11.871094 17.824219 12.003906 17.808594 Z M 12.152344 15.679688 C 12.21875 15.679688 12.269531 15.734375 12.269531 15.800781 C 12.269531 15.867188 12.21875 15.917969 12.152344 15.917969 C 12.085938 15.917969 12.03125 15.867188 12.03125 15.800781 C 12.03125 15.734375 12.085938 15.679688 12.152344 15.679688 Z M 7.433594 13.648438 C 7.5 13.648438 7.550781 13.699219 7.550781 13.765625 C 7.550781 13.835938 7.5 13.886719 7.433594 13.886719 C 7.367188 13.886719 7.3125 13.835938 7.3125 13.765625 C 7.308594 13.699219 7.367188 13.648438 7.433594 13.648438 Z M 7.433594 14.570312 C 7.367188 14.570312 7.3125 14.515625 7.3125 14.449219 C 7.3125 14.382812 7.367188 14.332031 7.433594 14.332031 C 7.5 14.332031 7.550781 14.382812 7.550781 14.449219 C 7.550781 14.515625 7.492188 14.570312 7.433594 14.570312 Z M 7.433594 15.917969 C 7.367188 15.917969 7.3125 15.867188 7.3125 15.800781 C 7.3125 15.734375 7.367188 15.679688 7.433594 15.679688 C 7.5 15.679688 7.550781 15.734375 7.550781 15.800781 C 7.550781 15.867188 7.492188 15.917969 7.433594 15.917969 Z M 7.433594 15.242188 C 7.367188 15.242188 7.3125 15.191406 7.3125 15.125 C 7.3125 15.058594 7.367188 15.007812 7.433594 15.007812 C 7.5 15.007812 7.550781 15.058594 7.550781 15.125 C 7.550781 15.191406 7.492188 15.242188 7.433594 15.242188 Z M 8.105469 15.917969 C 8.039062 15.917969 7.988281 15.867188 7.988281 15.800781 C 7.988281 15.734375 8.039062 15.679688 8.105469 15.679688 C 8.171875 15.679688 8.222656 15.734375 8.222656 15.800781 C 8.222656 15.867188 8.171875 15.917969 8.105469 15.917969 Z M 8.105469 15.242188 C 8.039062 15.242188 7.988281 15.191406 7.988281 15.125 C 7.988281 15.058594 8.039062 15.007812 8.105469 15.007812 C 8.171875 15.007812 8.222656 15.058594 8.222656 15.125 C 8.222656 15.191406 8.171875 15.242188 8.105469 15.242188 Z M 8.105469 14.570312 C 8.039062 14.570312 7.988281 14.515625 7.988281 14.449219 C 7.988281 14.382812 8.039062 14.332031 8.105469 14.332031 C 8.171875 14.332031 8.222656 14.382812 8.222656 14.449219 C 8.222656 14.515625 8.171875 14.570312 8.105469 14.570312 Z M 8.777344 16.601562 C 8.710938 16.601562 8.660156 16.550781 8.660156 16.480469 C 8.660156 16.414062 8.710938 16.363281 8.777344 16.363281 C 8.84375 16.363281 8.898438 16.414062 8.898438 16.480469 C 8.898438 16.542969 8.84375 16.601562 8.777344 16.601562 Z M 8.777344 15.917969 C 8.710938 15.917969 8.660156 15.867188 8.660156 15.800781 C 8.660156 15.734375 8.710938 15.679688 8.777344 15.679688 C 8.84375 15.679688 8.898438 15.734375 8.898438 15.800781 C 8.898438 15.867188 8.84375 15.917969 8.777344 15.917969 Z M 8.777344 15.242188 C 8.710938 15.242188 8.660156 15.191406 8.660156 15.125 C 8.660156 15.058594 8.710938 15.007812 8.777344 15.007812 C 8.84375 15.007812 8.898438 15.058594 8.898438 15.125 C 8.898438 15.191406 8.84375 15.242188 8.777344 15.242188 Z M 9.453125 16.601562 C 9.382812 16.601562 9.332031 16.550781 9.332031 16.480469 C 9.332031 16.414062 9.382812 16.363281 9.453125 16.363281 C 9.519531 16.363281 9.570312 16.414062 9.570312 16.480469 C 9.570312 16.542969 9.519531 16.601562 9.453125 16.601562 Z M 9.453125 15.917969 C 9.382812 15.917969 9.332031 15.867188 9.332031 15.800781 C 9.332031 15.734375 9.382812 15.679688 9.453125 15.679688 C 9.519531 15.679688 9.570312 15.734375 9.570312 15.800781 C 9.570312 15.867188 9.519531 15.917969 9.453125 15.917969 Z M 9.453125 15.242188 C 9.382812 15.242188 9.332031 15.191406 9.332031 15.125 C 9.332031 15.058594 9.382812 15.007812 9.453125 15.007812 C 9.519531 15.007812 9.570312 15.058594 9.570312 15.125 C 9.570312 15.191406 9.519531 15.242188 9.453125 15.242188 Z M 11.476562 16.355469 C 11.542969 16.355469 11.597656 16.40625 11.597656 16.476562 C 11.597656 16.542969 11.542969 16.59375 11.476562 16.59375 C 11.410156 16.59375 11.359375 16.542969 11.359375 16.476562 C 11.359375 16.414062 11.410156 16.355469 11.476562 16.355469 Z M 11.476562 15.679688 C 11.542969 15.679688 11.597656 15.734375 11.597656 15.800781 C 11.597656 15.867188 11.542969 15.917969 11.476562 15.917969 C 11.410156 15.917969 11.359375 15.867188 11.359375 15.800781 C 11.359375 15.734375 11.410156 15.679688 11.476562 15.679688 Z M 10.6875 15.800781 C 10.6875 15.734375 10.738281 15.679688 10.804688 15.679688 C 10.871094 15.679688 10.921875 15.734375 10.921875 15.800781 C 10.921875 15.867188 10.871094 15.917969 10.804688 15.917969 C 10.738281 15.917969 10.6875 15.867188 10.6875 15.800781 Z M 10.132812 15.679688 C 10.199219 15.679688 10.25 15.734375 10.25 15.800781 C 10.25 15.867188 10.199219 15.917969 10.132812 15.917969 C 10.066406 15.917969 10.011719 15.867188 10.011719 15.800781 C 10.007812 15.734375 10.066406 15.679688 10.132812 15.679688 Z M 10.132812 17.277344 C 10.066406 17.277344 10.011719 17.222656 10.011719 17.15625 C 10.011719 17.089844 10.066406 17.039062 10.132812 17.039062 C 10.199219 17.039062 10.25 17.089844 10.25 17.15625 C 10.25 17.222656 10.191406 17.277344 10.132812 17.277344 Z M 10.132812 16.601562 C 10.066406 16.601562 10.011719 16.550781 10.011719 16.480469 C 10.011719 16.414062 10.066406 16.363281 10.132812 16.363281 C 10.199219 16.363281 10.25 16.414062 10.25 16.480469 C 10.25 16.542969 10.191406 16.601562 10.132812 16.601562 Z M 10.804688 17.277344 C 10.738281 17.277344 10.6875 17.222656 10.6875 17.15625 C 10.6875 17.089844 10.738281 17.039062 10.804688 17.039062 C 10.871094 17.039062 10.921875 17.089844 10.921875 17.15625 C 10.921875 17.222656 10.871094 17.277344 10.804688 17.277344 Z M 10.804688 16.601562 C 10.738281 16.601562 10.6875 16.550781 10.6875 16.480469 C 10.6875 16.414062 10.738281 16.363281 10.804688 16.363281 C 10.871094 16.363281 10.921875 16.414062 10.921875 16.480469 C 10.921875 16.542969 10.871094 16.601562 10.804688 16.601562 Z M 11.476562 17.277344 C 11.410156 17.277344 11.359375 17.222656 11.359375 17.15625 C 11.359375 17.089844 11.410156 17.039062 11.476562 17.039062 C 11.542969 17.039062 11.597656 17.089844 11.597656 17.15625 C 11.597656 17.222656 11.542969 17.277344 11.476562 17.277344 Z M 19.820312 16.253906 C 19.828125 16.257812 19.820312 16.265625 19.828125 16.273438 C 19.835938 16.289062 19.835938 16.304688 19.835938 16.3125 L 19.835938 17.054688 L 20.285156 16.785156 L 20.285156 16.585938 C 20.269531 16.59375 20.261719 16.59375 20.25 16.59375 C 20.183594 16.59375 20.128906 16.542969 20.128906 16.476562 C 20.128906 16.40625 20.183594 16.355469 20.25 16.355469 C 20.261719 16.355469 20.269531 16.355469 20.285156 16.363281 L 20.285156 15.976562 L 19.589844 15.578125 L 18.96875 15.214844 C 18.945312 15.230469 18.925781 15.242188 18.894531 15.242188 C 18.828125 15.242188 18.777344 15.191406 18.777344 15.125 C 18.777344 15.117188 18.777344 15.117188 18.777344 15.109375 L 18.320312 14.84375 L 18.320312 15.066406 C 18.332031 15.085938 18.339844 15.101562 18.339844 15.132812 C 18.339844 15.15625 18.332031 15.175781 18.320312 15.199219 L 18.320312 15.375 L 18.875 15.695312 C 18.878906 15.695312 18.886719 15.6875 18.902344 15.6875 C 18.953125 15.6875 19 15.726562 19.011719 15.777344 L 19.773438 16.214844 C 19.789062 16.214844 19.8125 16.238281 19.820312 16.253906 Z M 19.574219 15.917969 C 19.507812 15.917969 19.457031 15.867188 19.457031 15.800781 C 19.457031 15.734375 19.507812 15.679688 19.574219 15.679688 C 19.640625 15.679688 19.695312 15.734375 19.695312 15.800781 C 19.695312 15.867188 19.640625 15.917969 19.574219 15.917969 Z M 17.617188 17.460938 C 17.636719 17.476562 17.652344 17.492188 17.660156 17.503906 C 17.667969 17.511719 17.660156 17.519531 17.667969 17.527344 C 17.675781 17.542969 17.675781 17.558594 17.675781 17.566406 L 17.675781 18.308594 L 18.140625 18.03125 L 18.140625 17.914062 C 18.117188 17.890625 18.105469 17.863281 18.105469 17.824219 C 18.105469 17.789062 18.117188 17.757812 18.140625 17.734375 L 18.140625 17.238281 C 18.132812 17.230469 18.117188 17.214844 18.113281 17.203125 L 17.445312 16.816406 L 16.957031 16.535156 C 16.933594 16.5625 16.898438 16.585938 16.863281 16.585938 C 16.796875 16.585938 16.742188 16.535156 16.742188 16.46875 C 16.742188 16.453125 16.75 16.429688 16.757812 16.414062 L 16.171875 16.074219 L 16.171875 16.347656 C 16.179688 16.347656 16.1875 16.347656 16.1875 16.347656 C 16.253906 16.347656 16.308594 16.402344 16.308594 16.46875 C 16.308594 16.535156 16.253906 16.585938 16.1875 16.585938 C 16.179688 16.585938 16.171875 16.585938 16.167969 16.578125 L 16.167969 16.617188 L 16.867188 17.023438 C 16.90625 17.023438 16.933594 17.046875 16.957031 17.074219 Z M 17.550781 17.039062 C 17.617188 17.039062 17.667969 17.089844 17.667969 17.15625 C 17.667969 17.222656 17.617188 17.277344 17.550781 17.277344 C 17.484375 17.277344 17.429688 17.222656 17.429688 17.15625 C 17.429688 17.089844 17.484375 17.039062 17.550781 17.039062 Z M 15.945312 18.507812 L 14.929688 17.921875 C 14.910156 17.9375 14.886719 17.949219 14.855469 17.949219 C 14.789062 17.949219 14.738281 17.898438 14.738281 17.832031 C 14.738281 17.824219 14.738281 17.816406 14.746094 17.808594 L 13.628906 17.164062 C 13.621094 17.222656 13.578125 17.277344 13.511719 17.277344 C 13.445312 17.277344 13.394531 17.222656 13.394531 17.15625 C 13.394531 17.113281 13.414062 17.082031 13.445312 17.0625 L 12.269531 16.378906 L 12.269531 16.429688 C 12.277344 16.445312 12.277344 16.460938 12.277344 16.476562 C 12.277344 16.488281 12.269531 16.503906 12.269531 16.519531 L 12.269531 17.097656 C 12.277344 17.113281 12.285156 17.128906 12.285156 17.148438 C 12.285156 17.164062 12.277344 17.1875 12.269531 17.203125 L 12.269531 17.773438 C 12.277344 17.789062 12.285156 17.808594 12.285156 17.824219 C 12.285156 17.847656 12.277344 17.863281 12.269531 17.875 L 12.269531 18.449219 C 12.277344 18.460938 12.285156 18.484375 12.285156 18.507812 C 12.285156 18.53125 12.277344 18.542969 12.269531 18.566406 L 12.269531 18.839844 L 12.742188 19.117188 C 12.765625 19.085938 12.792969 19.0625 12.839844 19.0625 C 12.90625 19.0625 12.957031 19.117188 12.957031 19.183594 C 12.957031 19.195312 12.949219 19.21875 12.941406 19.234375 L 14.074219 19.886719 C 14.074219 19.878906 14.066406 19.871094 14.066406 19.855469 C 14.066406 19.789062 14.117188 19.738281 14.183594 19.738281 C 14.25 19.738281 14.300781 19.789062 14.300781 19.855469 C 14.300781 19.910156 14.265625 19.953125 14.222656 19.96875 L 15.953125 20.96875 Z M 12.832031 17.039062 C 12.898438 17.039062 12.949219 17.089844 12.949219 17.15625 C 12.949219 17.222656 12.898438 17.277344 12.832031 17.277344 C 12.765625 17.277344 12.710938 17.222656 12.710938 17.15625 C 12.707031 17.089844 12.765625 17.039062 12.832031 17.039062 Z M 12.832031 18.625 C 12.765625 18.625 12.710938 18.574219 12.710938 18.507812 C 12.710938 18.441406 12.765625 18.386719 12.832031 18.386719 C 12.898438 18.386719 12.949219 18.441406 12.949219 18.507812 C 12.949219 18.574219 12.890625 18.625 12.832031 18.625 Z M 12.832031 17.949219 C 12.765625 17.949219 12.710938 17.898438 12.710938 17.832031 C 12.710938 17.765625 12.765625 17.714844 12.832031 17.714844 C 12.898438 17.714844 12.949219 17.765625 12.949219 17.832031 C 12.949219 17.898438 12.890625 17.949219 12.832031 17.949219 Z M 13.503906 19.308594 C 13.4375 19.308594 13.386719 19.257812 13.386719 19.191406 C 13.386719 19.121094 13.4375 19.070312 13.503906 19.070312 C 13.570312 19.070312 13.621094 19.121094 13.621094 19.191406 C 13.621094 19.257812 13.570312 19.308594 13.503906 19.308594 Z M 13.503906 18.625 C 13.4375 18.625 13.386719 18.574219 13.386719 18.507812 C 13.386719 18.441406 13.4375 18.386719 13.503906 18.386719 C 13.570312 18.386719 13.621094 18.441406 13.621094 18.507812 C 13.621094 18.574219 13.570312 18.625 13.503906 18.625 Z M 13.503906 17.949219 C 13.4375 17.949219 13.386719 17.898438 13.386719 17.832031 C 13.386719 17.765625 13.4375 17.714844 13.503906 17.714844 C 13.570312 17.714844 13.621094 17.765625 13.621094 17.832031 C 13.621094 17.898438 13.570312 17.949219 13.503906 17.949219 Z M 15.648438 19.191406 C 15.648438 19.257812 15.597656 19.308594 15.53125 19.308594 C 15.464844 19.308594 15.410156 19.257812 15.410156 19.191406 C 15.410156 19.121094 15.464844 19.070312 15.53125 19.070312 C 15.597656 19.070312 15.648438 19.121094 15.648438 19.191406 Z M 15.53125 18.386719 C 15.597656 18.386719 15.648438 18.441406 15.648438 18.507812 C 15.648438 18.574219 15.597656 18.625 15.53125 18.625 C 15.464844 18.625 15.410156 18.574219 15.410156 18.507812 C 15.410156 18.441406 15.464844 18.386719 15.53125 18.386719 Z M 14.175781 19.308594 C 14.109375 19.308594 14.058594 19.257812 14.058594 19.191406 C 14.058594 19.121094 14.109375 19.070312 14.175781 19.070312 C 14.242188 19.070312 14.296875 19.121094 14.296875 19.191406 C 14.296875 19.257812 14.242188 19.308594 14.175781 19.308594 Z M 14.175781 18.625 C 14.109375 18.625 14.058594 18.574219 14.058594 18.507812 C 14.058594 18.441406 14.109375 18.386719 14.175781 18.386719 C 14.242188 18.386719 14.296875 18.441406 14.296875 18.507812 C 14.296875 18.574219 14.242188 18.625 14.175781 18.625 Z M 14.175781 17.949219 C 14.109375 17.949219 14.058594 17.898438 14.058594 17.832031 C 14.058594 17.765625 14.109375 17.714844 14.175781 17.714844 C 14.242188 17.714844 14.296875 17.765625 14.296875 17.832031 C 14.296875 17.898438 14.242188 17.949219 14.175781 17.949219 Z M 14.851562 19.984375 C 14.785156 19.984375 14.730469 19.929688 14.730469 19.863281 C 14.730469 19.796875 14.785156 19.746094 14.851562 19.746094 C 14.917969 19.746094 14.96875 19.796875 14.96875 19.863281 C 14.96875 19.929688 14.917969 19.984375 14.851562 19.984375 Z M 14.851562 19.308594 C 14.785156 19.308594 14.730469 19.257812 14.730469 19.191406 C 14.730469 19.121094 14.785156 19.070312 14.851562 19.070312 C 14.917969 19.070312 14.96875 19.121094 14.96875 19.191406 C 14.96875 19.257812 14.917969 19.308594 14.851562 19.308594 Z M 14.851562 18.625 C 14.785156 18.625 14.730469 18.574219 14.730469 18.507812 C 14.730469 18.441406 14.785156 18.386719 14.851562 18.386719 C 14.917969 18.386719 14.96875 18.441406 14.96875 18.507812 C 14.96875 18.574219 14.917969 18.625 14.851562 18.625 Z M 15.53125 20.660156 C 15.464844 20.660156 15.410156 20.605469 15.410156 20.539062 C 15.410156 20.472656 15.464844 20.421875 15.53125 20.421875 C 15.597656 20.421875 15.648438 20.472656 15.648438 20.539062 C 15.648438 20.605469 15.597656 20.660156 15.53125 20.660156 Z M 15.53125 19.984375 C 15.464844 19.984375 15.410156 19.929688 15.410156 19.863281 C 15.410156 19.796875 15.464844 19.746094 15.53125 19.746094 C 15.597656 19.746094 15.648438 19.796875 15.648438 19.863281 C 15.648438 19.929688 15.597656 19.984375 15.53125 19.984375 Z M 23.488281 22.277344 L 24.191406 21.867188 C 24.207031 21.816406 24.25 21.777344 24.300781 21.777344 C 24.316406 21.777344 24.324219 21.777344 24.332031 21.785156 L 26.03125 20.792969 L 26.039062 18.753906 C 26.03125 18.757812 26.023438 18.765625 26.023438 18.773438 C 25.996094 18.804688 25.964844 18.839844 25.9375 18.871094 C 25.929688 18.878906 25.921875 18.886719 25.914062 18.902344 C 25.867188 18.9375 25.824219 18.980469 25.78125 19.019531 C 25.773438 19.027344 25.757812 19.035156 25.75 19.042969 C 25.734375 19.054688 25.714844 19.070312 25.699219 19.078125 C 25.742188 19.09375 25.773438 19.136719 25.773438 19.191406 C 25.773438 19.257812 25.722656 19.308594 25.65625 19.308594 C 25.589844 19.308594 25.535156 19.257812 25.535156 19.191406 C 25.492188 19.21875 25.449219 19.25 25.402344 19.269531 C 25.019531 19.492188 24.632812 19.640625 24.273438 19.707031 C 24.070312 19.746094 23.886719 19.761719 23.703125 19.769531 C 23.730469 19.789062 23.746094 19.820312 23.746094 19.863281 C 23.746094 19.929688 23.695312 19.984375 23.628906 19.984375 C 23.5625 19.984375 23.511719 19.929688 23.511719 19.863281 C 23.511719 19.828125 23.523438 19.796875 23.554688 19.777344 C 23.457031 19.777344 23.363281 19.769531 23.265625 19.761719 C 23.207031 19.753906 23.15625 19.746094 23.101562 19.738281 C 23.089844 19.738281 23.066406 19.730469 23.050781 19.730469 C 23.015625 19.722656 22.984375 19.722656 22.957031 19.714844 C 22.933594 19.714844 22.917969 19.707031 22.902344 19.707031 C 22.875 19.703125 22.84375 19.695312 22.816406 19.6875 C 22.800781 19.679688 22.785156 19.679688 22.761719 19.671875 C 22.75 19.664062 22.734375 19.664062 22.710938 19.65625 L 22.710938 19.945312 L 22.703125 22.148438 C 22.859375 22.203125 23.058594 22.238281 23.289062 22.261719 C 23.347656 22.269531 23.414062 22.277344 23.488281 22.277344 Z M 25.648438 19.746094 C 25.714844 19.746094 25.765625 19.796875 25.765625 19.863281 C 25.765625 19.929688 25.714844 19.984375 25.648438 19.984375 C 25.582031 19.984375 25.527344 19.929688 25.527344 19.863281 C 25.527344 19.796875 25.589844 19.746094 25.648438 19.746094 Z M 25.648438 20.421875 C 25.714844 20.421875 25.765625 20.472656 25.765625 20.539062 C 25.765625 20.605469 25.714844 20.660156 25.648438 20.660156 C 25.582031 20.660156 25.527344 20.605469 25.527344 20.539062 C 25.527344 20.472656 25.589844 20.421875 25.648438 20.421875 Z M 23.628906 22.015625 C 23.5625 22.015625 23.511719 21.964844 23.511719 21.898438 C 23.511719 21.832031 23.5625 21.777344 23.628906 21.777344 C 23.695312 21.777344 23.746094 21.832031 23.746094 21.898438 C 23.746094 21.964844 23.695312 22.015625 23.628906 22.015625 Z M 23.628906 21.339844 C 23.5625 21.339844 23.511719 21.289062 23.511719 21.222656 C 23.511719 21.15625 23.5625 21.101562 23.628906 21.101562 C 23.695312 21.101562 23.746094 21.15625 23.746094 21.222656 C 23.746094 21.28125 23.695312 21.339844 23.628906 21.339844 Z M 24.972656 19.746094 C 25.039062 19.746094 25.09375 19.796875 25.09375 19.863281 C 25.09375 19.929688 25.039062 19.984375 24.972656 19.984375 C 24.90625 19.984375 24.855469 19.929688 24.855469 19.863281 C 24.855469 19.796875 24.90625 19.746094 24.972656 19.746094 Z M 24.972656 20.421875 C 25.039062 20.421875 25.09375 20.472656 25.09375 20.539062 C 25.09375 20.605469 25.039062 20.660156 24.972656 20.660156 C 24.90625 20.660156 24.855469 20.605469 24.855469 20.539062 C 24.855469 20.472656 24.90625 20.421875 24.972656 20.421875 Z M 24.972656 21.097656 C 25.039062 21.097656 25.09375 21.148438 25.09375 21.214844 C 25.09375 21.28125 25.039062 21.332031 24.972656 21.332031 C 24.90625 21.332031 24.855469 21.28125 24.855469 21.214844 C 24.855469 21.15625 24.90625 21.097656 24.972656 21.097656 Z M 24.300781 19.746094 C 24.367188 19.746094 24.417969 19.796875 24.417969 19.863281 C 24.417969 19.929688 24.367188 19.984375 24.300781 19.984375 C 24.234375 19.984375 24.183594 19.929688 24.183594 19.863281 C 24.183594 19.796875 24.234375 19.746094 24.300781 19.746094 Z M 24.300781 20.421875 C 24.367188 20.421875 24.417969 20.472656 24.417969 20.539062 C 24.417969 20.605469 24.367188 20.660156 24.300781 20.660156 C 24.234375 20.660156 24.183594 20.605469 24.183594 20.539062 C 24.183594 20.472656 24.234375 20.421875 24.300781 20.421875 Z M 24.300781 21.097656 C 24.367188 21.097656 24.417969 21.148438 24.417969 21.214844 C 24.417969 21.28125 24.367188 21.332031 24.300781 21.332031 C 24.234375 21.332031 24.183594 21.28125 24.183594 21.214844 C 24.183594 21.15625 24.234375 21.097656 24.300781 21.097656 Z M 23.746094 20.539062 C 23.746094 20.605469 23.695312 20.660156 23.628906 20.660156 C 23.5625 20.660156 23.511719 20.605469 23.511719 20.539062 C 23.511719 20.472656 23.5625 20.421875 23.628906 20.421875 C 23.695312 20.421875 23.746094 20.472656 23.746094 20.539062 Z M 22.949219 19.746094 C 23.015625 19.746094 23.066406 19.796875 23.066406 19.863281 C 23.066406 19.929688 23.015625 19.984375 22.949219 19.984375 C 22.882812 19.984375 22.828125 19.929688 22.828125 19.863281 C 22.828125 19.796875 22.890625 19.746094 22.949219 19.746094 Z M 22.949219 22.015625 C 22.882812 22.015625 22.828125 21.964844 22.828125 21.898438 C 22.828125 21.832031 22.882812 21.777344 22.949219 21.777344 C 23.015625 21.777344 23.066406 21.832031 23.066406 21.898438 C 23.074219 21.964844 23.015625 22.015625 22.949219 22.015625 Z M 22.949219 21.339844 C 22.882812 21.339844 22.828125 21.289062 22.828125 21.222656 C 22.828125 21.15625 22.882812 21.101562 22.949219 21.101562 C 23.015625 21.101562 23.066406 21.15625 23.066406 21.222656 C 23.074219 21.28125 23.015625 21.339844 22.949219 21.339844 Z M 22.949219 20.660156 C 22.882812 20.660156 22.828125 20.605469 22.828125 20.539062 C 22.828125 20.472656 22.882812 20.421875 22.949219 20.421875 C 23.015625 20.421875 23.066406 20.472656 23.066406 20.539062 C 23.074219 20.605469 23.015625 20.660156 22.949219 20.660156 Z M 17.015625 21.601562 L 17.445312 21.84375 C 17.460938 21.800781 17.503906 21.769531 17.558594 21.769531 C 17.625 21.769531 17.675781 21.824219 17.675781 21.890625 C 17.675781 21.917969 17.667969 21.941406 17.652344 21.957031 L 18.496094 22.445312 L 18.503906 19.984375 L 18.347656 19.894531 C 18.332031 19.945312 18.289062 19.984375 18.238281 19.984375 C 18.171875 19.984375 18.117188 19.929688 18.117188 19.863281 C 18.117188 19.835938 18.132812 19.804688 18.15625 19.78125 L 17.039062 19.136719 Z M 17.550781 21.339844 C 17.484375 21.339844 17.429688 21.289062 17.429688 21.222656 C 17.429688 21.15625 17.484375 21.101562 17.550781 21.101562 C 17.617188 21.101562 17.667969 21.15625 17.667969 21.222656 C 17.675781 21.28125 17.617188 21.339844 17.550781 21.339844 Z M 17.550781 20.660156 C 17.484375 20.660156 17.429688 20.605469 17.429688 20.539062 C 17.429688 20.472656 17.484375 20.421875 17.550781 20.421875 C 17.617188 20.421875 17.667969 20.472656 17.667969 20.539062 C 17.675781 20.605469 17.617188 20.660156 17.550781 20.660156 Z M 17.550781 19.746094 C 17.617188 19.746094 17.667969 19.796875 17.667969 19.863281 C 17.667969 19.929688 17.617188 19.984375 17.550781 19.984375 C 17.484375 19.984375 17.429688 19.929688 17.429688 19.863281 C 17.429688 19.796875 17.484375 19.746094 17.550781 19.746094 Z M 18.230469 22.015625 C 18.164062 22.015625 18.113281 21.964844 18.113281 21.898438 C 18.113281 21.832031 18.164062 21.777344 18.230469 21.777344 C 18.296875 21.777344 18.347656 21.832031 18.347656 21.898438 C 18.347656 21.964844 18.296875 22.015625 18.230469 22.015625 Z M 18.230469 21.339844 C 18.164062 21.339844 18.113281 21.289062 18.113281 21.222656 C 18.113281 21.15625 18.164062 21.101562 18.230469 21.101562 C 18.296875 21.101562 18.347656 21.15625 18.347656 21.222656 C 18.347656 21.28125 18.296875 21.339844 18.230469 21.339844 Z M 18.230469 20.660156 C 18.164062 20.660156 18.113281 20.605469 18.113281 20.539062 C 18.113281 20.472656 18.164062 20.421875 18.230469 20.421875 C 18.296875 20.421875 18.347656 20.472656 18.347656 20.539062 C 18.347656 20.605469 18.296875 20.660156 18.230469 20.660156 Z M 20.929688 23.8125 C 20.996094 23.8125 21.046875 23.863281 21.046875 23.929688 C 21.046875 23.929688 21.046875 23.9375 21.046875 23.9375 L 21.511719 24.203125 L 21.511719 24.003906 C 21.5 23.980469 21.484375 23.960938 21.484375 23.929688 C 21.484375 23.898438 21.5 23.871094 21.511719 23.855469 L 21.511719 23.335938 C 21.492188 23.3125 21.484375 23.285156 21.484375 23.253906 C 21.484375 23.226562 21.5 23.195312 21.511719 23.171875 L 21.511719 22.660156 C 21.492188 22.640625 21.476562 22.609375 21.476562 22.578125 C 21.476562 22.550781 21.492188 22.519531 21.511719 22.5 L 21.511719 21.984375 C 21.492188 21.964844 21.476562 21.933594 21.476562 21.90625 C 21.476562 21.867188 21.492188 21.835938 21.511719 21.824219 L 21.511719 21.75 L 19.835938 20.777344 L 19.828125 23.238281 L 20.855469 23.832031 C 20.882812 23.820312 20.898438 23.8125 20.929688 23.8125 Z M 20.929688 21.777344 C 20.996094 21.777344 21.046875 21.832031 21.046875 21.898438 C 21.046875 21.964844 20.996094 22.015625 20.929688 22.015625 C 20.863281 22.015625 20.8125 21.964844 20.8125 21.898438 C 20.8125 21.832031 20.863281 21.777344 20.929688 21.777344 Z M 20.929688 22.453125 C 20.996094 22.453125 21.046875 22.503906 21.046875 22.570312 C 21.046875 22.640625 20.996094 22.691406 20.929688 22.691406 C 20.863281 22.691406 20.8125 22.640625 20.8125 22.570312 C 20.8125 22.503906 20.863281 22.453125 20.929688 22.453125 Z M 20.25 21.097656 C 20.316406 21.097656 20.367188 21.148438 20.367188 21.214844 C 20.367188 21.28125 20.316406 21.332031 20.25 21.332031 C 20.183594 21.332031 20.128906 21.28125 20.128906 21.214844 C 20.128906 21.15625 20.1875 21.097656 20.25 21.097656 Z M 20.25 23.375 C 20.183594 23.375 20.128906 23.320312 20.128906 23.253906 C 20.128906 23.1875 20.183594 23.136719 20.25 23.136719 C 20.316406 23.136719 20.367188 23.1875 20.367188 23.253906 C 20.375 23.3125 20.316406 23.375 20.25 23.375 Z M 20.25 22.691406 C 20.183594 22.691406 20.128906 22.640625 20.128906 22.570312 C 20.128906 22.503906 20.183594 22.453125 20.25 22.453125 C 20.316406 22.453125 20.367188 22.503906 20.367188 22.570312 C 20.375 22.640625 20.316406 22.691406 20.25 22.691406 Z M 20.25 22.015625 C 20.183594 22.015625 20.128906 21.964844 20.128906 21.898438 C 20.128906 21.832031 20.183594 21.777344 20.25 21.777344 C 20.316406 21.777344 20.367188 21.832031 20.367188 21.898438 C 20.375 21.964844 20.316406 22.015625 20.25 22.015625 Z M 20.929688 23.128906 C 20.996094 23.128906 21.046875 23.179688 21.046875 23.246094 C 21.046875 23.3125 20.996094 23.367188 20.929688 23.367188 C 20.863281 23.367188 20.8125 23.3125 20.8125 23.246094 C 20.8125 23.179688 20.863281 23.128906 20.929688 23.128906 Z M 26.445312 20.554688 C 26.445312 20.546875 26.445312 20.546875 26.445312 20.539062 C 26.445312 20.515625 26.4375 20.496094 26.421875 20.472656 L 26.421875 19.925781 C 26.4375 19.902344 26.445312 19.886719 26.445312 19.855469 C 26.445312 19.835938 26.4375 19.8125 26.421875 19.796875 L 26.421875 19.53125 L 26.898438 19.804688 C 26.890625 19.820312 26.882812 19.84375 26.882812 19.863281 C 26.882812 19.929688 26.933594 19.984375 27 19.984375 C 27.046875 19.984375 27.082031 19.960938 27.105469 19.925781 L 27.320312 20.050781 Z M 29.402344 22.640625 C 29.464844 22.609375 29.523438 22.570312 29.582031 22.542969 C 29.597656 22.492188 29.640625 22.453125 29.691406 22.453125 C 29.707031 22.453125 29.722656 22.460938 29.738281 22.460938 C 29.953125 22.355469 30.179688 22.277344 30.417969 22.203125 L 30.417969 22 C 30.402344 22.007812 30.386719 22.015625 30.367188 22.015625 C 30.300781 22.015625 30.246094 21.964844 30.246094 21.898438 C 30.246094 21.851562 30.277344 21.808594 30.3125 21.792969 L 30.0625 21.644531 L 29.402344 21.265625 Z M 29.699219 21.777344 C 29.765625 21.777344 29.816406 21.832031 29.816406 21.898438 C 29.816406 21.964844 29.765625 22.015625 29.699219 22.015625 C 29.632812 22.015625 29.582031 21.964844 29.582031 21.898438 C 29.582031 21.832031 29.632812 21.777344 29.699219 21.777344 Z M 24.804688 26.109375 L 24.8125 23.648438 L 24.324219 23.367188 C 24.316406 23.367188 24.308594 23.375 24.292969 23.375 C 24.242188 23.375 24.199219 23.335938 24.183594 23.285156 L 23.339844 22.792969 L 23.332031 25.257812 Z M 23.628906 25.398438 C 23.5625 25.398438 23.511719 25.347656 23.511719 25.28125 C 23.511719 25.214844 23.5625 25.160156 23.628906 25.160156 C 23.695312 25.160156 23.746094 25.214844 23.746094 25.28125 C 23.746094 25.347656 23.695312 25.398438 23.628906 25.398438 Z M 23.628906 24.722656 C 23.5625 24.722656 23.511719 24.671875 23.511719 24.605469 C 23.511719 24.539062 23.5625 24.484375 23.628906 24.484375 C 23.695312 24.484375 23.746094 24.539062 23.746094 24.605469 C 23.746094 24.671875 23.695312 24.722656 23.628906 24.722656 Z M 23.628906 24.046875 C 23.5625 24.046875 23.511719 23.996094 23.511719 23.929688 C 23.511719 23.863281 23.5625 23.8125 23.628906 23.8125 C 23.695312 23.8125 23.746094 23.863281 23.746094 23.929688 C 23.746094 23.996094 23.695312 24.046875 23.628906 24.046875 Z M 23.628906 23.375 C 23.5625 23.375 23.511719 23.320312 23.511719 23.253906 C 23.511719 23.1875 23.5625 23.136719 23.628906 23.136719 C 23.695312 23.136719 23.746094 23.1875 23.746094 23.253906 C 23.746094 23.3125 23.695312 23.375 23.628906 23.375 Z M 24.300781 25.398438 C 24.234375 25.398438 24.183594 25.347656 24.183594 25.28125 C 24.183594 25.214844 24.234375 25.160156 24.300781 25.160156 C 24.367188 25.160156 24.417969 25.214844 24.417969 25.28125 C 24.417969 25.347656 24.367188 25.398438 24.300781 25.398438 Z M 24.300781 24.722656 C 24.234375 24.722656 24.183594 24.671875 24.183594 24.605469 C 24.183594 24.539062 24.234375 24.484375 24.300781 24.484375 C 24.367188 24.484375 24.417969 24.539062 24.417969 24.605469 C 24.417969 24.671875 24.367188 24.722656 24.300781 24.722656 Z M 24.300781 24.046875 C 24.234375 24.046875 24.183594 23.996094 24.183594 23.929688 C 24.183594 23.863281 24.234375 23.8125 24.300781 23.8125 C 24.367188 23.8125 24.417969 23.863281 24.417969 23.929688 C 24.417969 23.996094 24.367188 24.046875 24.300781 24.046875 Z M 36.398438 28.238281 L 36.398438 28.097656 C 36.355469 28.078125 36.328125 28.039062 36.328125 27.988281 C 36.328125 27.933594 36.355469 27.898438 36.398438 27.875 L 36.398438 27.417969 C 36.355469 27.402344 36.328125 27.355469 36.328125 27.304688 C 36.328125 27.253906 36.355469 27.214844 36.398438 27.195312 L 36.398438 26.734375 C 36.355469 26.71875 36.328125 26.675781 36.328125 26.621094 C 36.328125 26.570312 36.355469 26.527344 36.398438 26.511719 L 36.398438 26.058594 C 36.355469 26.042969 36.328125 26 36.328125 25.949219 C 36.328125 25.941406 36.328125 25.933594 36.328125 25.933594 C 36.304688 25.953125 36.28125 25.96875 36.257812 25.992188 C 36.253906 26 36.238281 26.015625 36.230469 26.023438 C 36.179688 26.066406 36.125 26.109375 36.066406 26.15625 C 36.050781 26.164062 36.046875 26.167969 36.03125 26.183594 C 35.984375 26.222656 35.933594 26.25 35.882812 26.289062 C 35.867188 26.304688 35.84375 26.3125 35.832031 26.324219 C 35.765625 26.371094 35.703125 26.40625 35.632812 26.453125 C 35.492188 26.535156 35.351562 26.609375 35.203125 26.675781 C 35.1875 26.71875 35.144531 26.757812 35.089844 26.757812 C 35.078125 26.757812 35.054688 26.75 35.039062 26.742188 C 34.765625 26.851562 34.484375 26.957031 34.1875 27.03125 C 33.839844 27.121094 33.480469 27.171875 33.109375 27.199219 C 33.152344 27.214844 33.183594 27.261719 33.183594 27.3125 C 33.183594 27.378906 33.132812 27.429688 33.066406 27.429688 C 33 27.429688 32.945312 27.378906 32.945312 27.3125 C 32.945312 27.269531 32.96875 27.230469 33.003906 27.207031 C 32.859375 27.214844 32.710938 27.222656 32.5625 27.222656 C 32.554688 27.222656 32.546875 27.222656 32.539062 27.222656 C 32.515625 27.222656 32.496094 27.222656 32.472656 27.222656 C 32.496094 27.246094 32.511719 27.273438 32.511719 27.3125 C 32.511719 27.378906 32.457031 27.429688 32.390625 27.429688 C 32.324219 27.429688 32.273438 27.378906 32.273438 27.3125 C 32.273438 27.273438 32.289062 27.246094 32.316406 27.222656 C 31.84375 27.207031 31.371094 27.148438 30.914062 27.039062 C 30.527344 26.941406 30.160156 26.808594 29.804688 26.644531 C 29.804688 26.703125 29.75 26.757812 29.683594 26.757812 C 29.617188 26.757812 29.566406 26.703125 29.566406 26.636719 C 29.566406 26.601562 29.582031 26.570312 29.609375 26.546875 C 29.539062 26.511719 29.46875 26.472656 29.398438 26.4375 C 28.914062 26.15625 28.554688 25.851562 28.316406 25.53125 C 28.28125 25.488281 28.25 25.433594 28.222656 25.390625 C 28.222656 25.382812 28.214844 25.382812 28.214844 25.375 L 28.207031 27.296875 C 28.207031 27.492188 28.257812 27.683594 28.355469 27.875 C 28.414062 27.882812 28.449219 27.933594 28.449219 27.996094 C 28.449219 28.007812 28.449219 28.023438 28.441406 28.039062 C 28.464844 28.078125 28.488281 28.105469 28.507812 28.144531 C 28.621094 28.292969 28.761719 28.441406 28.929688 28.582031 C 28.953125 28.566406 28.976562 28.550781 29.003906 28.550781 C 29.070312 28.550781 29.125 28.601562 29.125 28.667969 C 29.125 28.683594 29.125 28.699219 29.117188 28.714844 C 29.234375 28.804688 29.367188 28.886719 29.515625 28.972656 C 29.746094 29.105469 29.988281 29.226562 30.246094 29.324219 C 30.261719 29.269531 30.304688 29.226562 30.359375 29.226562 C 30.425781 29.226562 30.476562 29.277344 30.476562 29.34375 C 30.476562 29.367188 30.46875 29.382812 30.460938 29.398438 C 30.625 29.449219 30.785156 29.5 30.957031 29.546875 C 31.476562 29.671875 32.007812 29.730469 32.546875 29.730469 C 33.078125 29.730469 33.613281 29.664062 34.113281 29.539062 C 34.210938 29.515625 34.308594 29.484375 34.394531 29.457031 C 34.335938 29.449219 34.285156 29.402344 34.285156 29.335938 C 34.285156 29.269531 34.335938 29.21875 34.402344 29.21875 C 34.46875 29.21875 34.523438 29.269531 34.523438 29.335938 C 34.523438 29.375 34.5 29.410156 34.46875 29.433594 C 34.832031 29.316406 35.171875 29.167969 35.484375 28.988281 C 35.898438 28.765625 36.199219 28.507812 36.398438 28.238281 Z M 28.347656 27.429688 C 28.28125 27.429688 28.226562 27.378906 28.226562 27.3125 C 28.226562 27.246094 28.28125 27.195312 28.347656 27.195312 C 28.414062 27.195312 28.464844 27.246094 28.464844 27.3125 C 28.472656 27.378906 28.414062 27.429688 28.347656 27.429688 Z M 28.347656 26.757812 C 28.28125 26.757812 28.226562 26.703125 28.226562 26.636719 C 28.226562 26.570312 28.28125 26.519531 28.347656 26.519531 C 28.414062 26.519531 28.464844 26.570312 28.464844 26.636719 C 28.472656 26.703125 28.414062 26.757812 28.347656 26.757812 Z M 28.347656 26.082031 C 28.28125 26.082031 28.226562 26.027344 28.226562 25.960938 C 28.226562 25.894531 28.28125 25.84375 28.347656 25.84375 C 28.414062 25.84375 28.464844 25.894531 28.464844 25.960938 C 28.472656 26.023438 28.414062 26.082031 28.347656 26.082031 Z M 29.027344 28.113281 C 28.960938 28.113281 28.910156 28.0625 28.910156 27.996094 C 28.910156 27.929688 28.960938 27.875 29.027344 27.875 C 29.09375 27.875 29.144531 27.929688 29.144531 27.996094 C 29.144531 28.054688 29.09375 28.113281 29.027344 28.113281 Z M 29.027344 27.429688 C 28.960938 27.429688 28.910156 27.378906 28.910156 27.3125 C 28.910156 27.246094 28.960938 27.195312 29.027344 27.195312 C 29.09375 27.195312 29.144531 27.246094 29.144531 27.3125 C 29.144531 27.378906 29.09375 27.429688 29.027344 27.429688 Z M 29.027344 26.757812 C 28.960938 26.757812 28.910156 26.703125 28.910156 26.636719 C 28.910156 26.570312 28.960938 26.519531 29.027344 26.519531 C 29.09375 26.519531 29.144531 26.570312 29.144531 26.636719 C 29.144531 26.703125 29.09375 26.757812 29.027344 26.757812 Z M 30.371094 27.195312 C 30.441406 27.195312 30.492188 27.246094 30.492188 27.3125 C 30.492188 27.378906 30.441406 27.429688 30.371094 27.429688 C 30.304688 27.429688 30.253906 27.378906 30.253906 27.3125 C 30.253906 27.246094 30.304688 27.195312 30.371094 27.195312 Z M 29.699219 28.789062 C 29.632812 28.789062 29.582031 28.738281 29.582031 28.667969 C 29.582031 28.601562 29.632812 28.550781 29.699219 28.550781 C 29.765625 28.550781 29.816406 28.601562 29.816406 28.667969 C 29.816406 28.738281 29.765625 28.789062 29.699219 28.789062 Z M 29.699219 28.113281 C 29.632812 28.113281 29.582031 28.0625 29.582031 27.996094 C 29.582031 27.929688 29.632812 27.875 29.699219 27.875 C 29.765625 27.875 29.816406 27.929688 29.816406 27.996094 C 29.816406 28.054688 29.765625 28.113281 29.699219 28.113281 Z M 29.699219 27.429688 C 29.632812 27.429688 29.582031 27.378906 29.582031 27.3125 C 29.582031 27.246094 29.632812 27.195312 29.699219 27.195312 C 29.765625 27.195312 29.816406 27.246094 29.816406 27.3125 C 29.816406 27.378906 29.765625 27.429688 29.699219 27.429688 Z M 30.371094 28.789062 C 30.304688 28.789062 30.253906 28.738281 30.253906 28.667969 C 30.253906 28.601562 30.304688 28.550781 30.371094 28.550781 C 30.441406 28.550781 30.492188 28.601562 30.492188 28.667969 C 30.492188 28.738281 30.441406 28.789062 30.371094 28.789062 Z M 30.371094 28.113281 C 30.304688 28.113281 30.253906 28.0625 30.253906 27.996094 C 30.253906 27.929688 30.304688 27.875 30.371094 27.875 C 30.441406 27.875 30.492188 27.929688 30.492188 27.996094 C 30.492188 28.054688 30.441406 28.113281 30.371094 28.113281 Z M 31.054688 29.464844 C 30.988281 29.464844 30.933594 29.410156 30.933594 29.34375 C 30.933594 29.277344 30.988281 29.226562 31.054688 29.226562 C 31.121094 29.226562 31.171875 29.277344 31.171875 29.34375 C 31.171875 29.410156 31.113281 29.464844 31.054688 29.464844 Z M 31.054688 28.789062 C 30.988281 28.789062 30.933594 28.738281 30.933594 28.667969 C 30.933594 28.601562 30.988281 28.550781 31.054688 28.550781 C 31.121094 28.550781 31.171875 28.601562 31.171875 28.667969 C 31.171875 28.738281 31.113281 28.789062 31.054688 28.789062 Z M 31.054688 28.113281 C 30.988281 28.113281 30.933594 28.0625 30.933594 27.996094 C 30.933594 27.929688 30.988281 27.875 31.054688 27.875 C 31.121094 27.875 31.171875 27.929688 31.171875 27.996094 C 31.171875 28.054688 31.113281 28.113281 31.054688 28.113281 Z M 31.054688 27.429688 C 30.988281 27.429688 30.933594 27.378906 30.933594 27.3125 C 30.933594 27.246094 30.988281 27.195312 31.054688 27.195312 C 31.121094 27.195312 31.171875 27.246094 31.171875 27.3125 C 31.171875 27.378906 31.113281 27.429688 31.054688 27.429688 Z M 31.726562 29.464844 C 31.660156 29.464844 31.609375 29.410156 31.609375 29.34375 C 31.609375 29.277344 31.660156 29.226562 31.726562 29.226562 C 31.792969 29.226562 31.84375 29.277344 31.84375 29.34375 C 31.84375 29.410156 31.792969 29.464844 31.726562 29.464844 Z M 31.726562 28.789062 C 31.660156 28.789062 31.609375 28.738281 31.609375 28.667969 C 31.609375 28.601562 31.660156 28.550781 31.726562 28.550781 C 31.792969 28.550781 31.84375 28.601562 31.84375 28.667969 C 31.84375 28.738281 31.792969 28.789062 31.726562 28.789062 Z M 31.726562 28.113281 C 31.660156 28.113281 31.609375 28.0625 31.609375 27.996094 C 31.609375 27.929688 31.660156 27.875 31.726562 27.875 C 31.792969 27.875 31.84375 27.929688 31.84375 27.996094 C 31.84375 28.054688 31.792969 28.113281 31.726562 28.113281 Z M 31.726562 27.429688 C 31.660156 27.429688 31.609375 27.378906 31.609375 27.3125 C 31.609375 27.246094 31.660156 27.195312 31.726562 27.195312 C 31.792969 27.195312 31.84375 27.246094 31.84375 27.3125 C 31.84375 27.378906 31.792969 27.429688 31.726562 27.429688 Z M 32.398438 29.464844 C 32.332031 29.464844 32.28125 29.410156 32.28125 29.34375 C 32.28125 29.277344 32.332031 29.226562 32.398438 29.226562 C 32.464844 29.226562 32.515625 29.277344 32.515625 29.34375 C 32.515625 29.410156 32.464844 29.464844 32.398438 29.464844 Z M 32.398438 28.789062 C 32.332031 28.789062 32.28125 28.738281 32.28125 28.667969 C 32.28125 28.601562 32.332031 28.550781 32.398438 28.550781 C 32.464844 28.550781 32.515625 28.601562 32.515625 28.667969 C 32.515625 28.738281 32.464844 28.789062 32.398438 28.789062 Z M 32.398438 28.113281 C 32.332031 28.113281 32.28125 28.0625 32.28125 27.996094 C 32.28125 27.929688 32.332031 27.875 32.398438 27.875 C 32.464844 27.875 32.515625 27.929688 32.515625 27.996094 C 32.515625 28.054688 32.464844 28.113281 32.398438 28.113281 Z M 33.070312 29.464844 C 33.003906 29.464844 32.953125 29.410156 32.953125 29.34375 C 32.953125 29.277344 33.003906 29.226562 33.070312 29.226562 C 33.140625 29.226562 33.191406 29.277344 33.191406 29.34375 C 33.191406 29.410156 33.140625 29.464844 33.070312 29.464844 Z M 33.070312 28.789062 C 33.003906 28.789062 32.953125 28.738281 32.953125 28.667969 C 32.953125 28.601562 33.003906 28.550781 33.070312 28.550781 C 33.140625 28.550781 33.191406 28.601562 33.191406 28.667969 C 33.191406 28.738281 33.140625 28.789062 33.070312 28.789062 Z M 33.070312 28.113281 C 33.003906 28.113281 32.953125 28.0625 32.953125 27.996094 C 32.953125 27.929688 33.003906 27.875 33.070312 27.875 C 33.140625 27.875 33.191406 27.929688 33.191406 27.996094 C 33.191406 28.054688 33.140625 28.113281 33.070312 28.113281 Z M 33.753906 29.464844 C 33.6875 29.464844 33.632812 29.410156 33.632812 29.34375 C 33.632812 29.277344 33.6875 29.226562 33.753906 29.226562 C 33.820312 29.226562 33.871094 29.277344 33.871094 29.34375 C 33.871094 29.410156 33.8125 29.464844 33.753906 29.464844 Z M 33.753906 28.789062 C 33.6875 28.789062 33.632812 28.738281 33.632812 28.667969 C 33.632812 28.601562 33.6875 28.550781 33.753906 28.550781 C 33.820312 28.550781 33.871094 28.601562 33.871094 28.667969 C 33.871094 28.738281 33.8125 28.789062 33.753906 28.789062 Z M 33.753906 28.113281 C 33.6875 28.113281 33.632812 28.0625 33.632812 27.996094 C 33.632812 27.929688 33.6875 27.875 33.753906 27.875 C 33.820312 27.875 33.871094 27.929688 33.871094 27.996094 C 33.871094 28.054688 33.8125 28.113281 33.753906 28.113281 Z M 33.753906 27.429688 C 33.6875 27.429688 33.632812 27.378906 33.632812 27.3125 C 33.632812 27.246094 33.6875 27.195312 33.753906 27.195312 C 33.820312 27.195312 33.871094 27.246094 33.871094 27.3125 C 33.871094 27.378906 33.8125 27.429688 33.753906 27.429688 Z M 34.425781 28.789062 C 34.359375 28.789062 34.308594 28.738281 34.308594 28.667969 C 34.308594 28.601562 34.359375 28.550781 34.425781 28.550781 C 34.492188 28.550781 34.542969 28.601562 34.542969 28.667969 C 34.542969 28.738281 34.492188 28.789062 34.425781 28.789062 Z M 34.425781 28.113281 C 34.359375 28.113281 34.308594 28.0625 34.308594 27.996094 C 34.308594 27.929688 34.359375 27.875 34.425781 27.875 C 34.492188 27.875 34.542969 27.929688 34.542969 27.996094 C 34.542969 28.054688 34.492188 28.113281 34.425781 28.113281 Z M 34.425781 27.429688 C 34.359375 27.429688 34.308594 27.378906 34.308594 27.3125 C 34.308594 27.246094 34.359375 27.195312 34.425781 27.195312 C 34.492188 27.195312 34.542969 27.246094 34.542969 27.3125 C 34.542969 27.378906 34.492188 27.429688 34.425781 27.429688 Z M 35.097656 28.789062 C 35.03125 28.789062 34.980469 28.738281 34.980469 28.667969 C 34.980469 28.601562 35.03125 28.550781 35.097656 28.550781 C 35.164062 28.550781 35.21875 28.601562 35.21875 28.667969 C 35.21875 28.738281 35.164062 28.789062 35.097656 28.789062 Z M 35.097656 28.113281 C 35.03125 28.113281 34.980469 28.0625 34.980469 27.996094 C 34.980469 27.929688 35.03125 27.875 35.097656 27.875 C 35.164062 27.875 35.21875 27.929688 35.21875 27.996094 C 35.21875 28.054688 35.164062 28.113281 35.097656 28.113281 Z M 35.097656 27.429688 C 35.03125 27.429688 34.980469 27.378906 34.980469 27.3125 C 34.980469 27.246094 35.03125 27.195312 35.097656 27.195312 C 35.164062 27.195312 35.21875 27.246094 35.21875 27.3125 C 35.21875 27.378906 35.164062 27.429688 35.097656 27.429688 Z M 35.773438 28.789062 C 35.703125 28.789062 35.652344 28.738281 35.652344 28.667969 C 35.652344 28.601562 35.703125 28.550781 35.773438 28.550781 C 35.839844 28.550781 35.890625 28.601562 35.890625 28.667969 C 35.890625 28.738281 35.839844 28.789062 35.773438 28.789062 Z M 35.773438 28.113281 C 35.703125 28.113281 35.652344 28.0625 35.652344 27.996094 C 35.652344 27.929688 35.703125 27.875 35.773438 27.875 C 35.839844 27.875 35.890625 27.929688 35.890625 27.996094 C 35.890625 28.054688 35.839844 28.113281 35.773438 28.113281 Z M 35.773438 27.429688 C 35.703125 27.429688 35.652344 27.378906 35.652344 27.3125 C 35.652344 27.246094 35.703125 27.195312 35.773438 27.195312 C 35.839844 27.195312 35.890625 27.246094 35.890625 27.3125 C 35.890625 27.378906 35.839844 27.429688 35.773438 27.429688 Z M 35.773438 26.757812 C 35.703125 26.757812 35.652344 26.703125 35.652344 26.636719 C 35.652344 26.570312 35.703125 26.519531 35.773438 26.519531 C 35.839844 26.519531 35.890625 26.570312 35.890625 26.636719 C 35.890625 26.703125 35.839844 26.757812 35.773438 26.757812 Z M 35.773438 26.757812 " fill-opacity="1" fill-rule="nonzero"/><g clip-path="url(#b3c6048005)"><path fill="#7fcdd9" d="M 0.472656 9.257812 L 1.996094 10.140625 L 3.328125 9.777344 C 3.359375 9.769531 3.394531 9.769531 3.425781 9.792969 L 5.515625 11 C 5.546875 11.015625 5.570312 11.050781 5.574219 11.089844 C 5.582031 11.125 5.574219 11.164062 5.554688 11.191406 L 5.007812 11.882812 L 6.613281 12.816406 L 9.871094 8.226562 L 8.355469 7.34375 Z M 7.285156 8.976562 L 6.457031 9.992188 C 6.433594 10.019531 6.398438 10.035156 6.359375 10.035156 C 6.335938 10.035156 6.316406 10.027344 6.292969 10.019531 L 5.355469 9.480469 C 5.308594 9.457031 5.289062 9.40625 5.296875 9.355469 C 5.300781 9.300781 5.339844 9.265625 5.382812 9.25 L 7.128906 8.769531 C 7.160156 8.761719 7.195312 8.761719 7.226562 8.78125 C 7.253906 8.796875 7.285156 8.835938 7.292969 8.871094 C 7.308594 8.910156 7.308594 8.953125 7.285156 8.976562 Z M 7.320312 13.226562 L 9.585938 14.53125 C 9.976562 14.761719 10.382812 14.917969 10.804688 15 C 11.21875 15.082031 11.632812 15.101562 12.023438 15.050781 C 12.320312 15.011719 12.59375 14.933594 12.847656 14.820312 C 12.925781 14.785156 13.007812 14.738281 13.089844 14.695312 C 13.304688 14.570312 13.472656 14.441406 13.578125 14.316406 C 13.675781 14.203125 13.726562 14.09375 13.742188 13.988281 C 13.75 13.886719 13.726562 13.789062 13.667969 13.6875 C 13.601562 13.574219 13.503906 13.46875 13.371094 13.367188 C 13.320312 13.328125 13.304688 13.261719 13.332031 13.203125 C 13.363281 13.152344 13.429688 13.121094 13.488281 13.144531 C 13.710938 13.21875 13.949219 13.269531 14.191406 13.285156 C 14.4375 13.300781 14.679688 13.285156 14.917969 13.234375 C 15.152344 13.179688 15.382812 13.101562 15.589844 12.972656 C 15.898438 12.796875 16.070312 12.609375 16.101562 12.425781 C 16.128906 12.238281 16.0625 12.054688 15.894531 11.851562 C 15.707031 11.636719 15.449219 11.4375 15.117188 11.246094 L 12.898438 9.976562 Z M 13.207031 11.503906 C 13.246094 11.484375 13.296875 11.484375 13.332031 11.503906 L 13.5625 11.636719 C 13.75 11.75 13.867188 11.851562 13.925781 11.957031 C 13.984375 12.0625 13.984375 12.222656 13.6875 12.402344 C 13.5625 12.476562 13.4375 12.519531 13.3125 12.535156 C 13.273438 12.542969 13.238281 12.542969 13.199219 12.542969 C 13.113281 12.542969 13.023438 12.527344 12.941406 12.507812 C 12.832031 12.46875 12.710938 12.417969 12.59375 12.351562 L 12.363281 12.21875 C 12.328125 12.195312 12.296875 12.148438 12.296875 12.105469 C 12.296875 12.0625 12.320312 12.015625 12.363281 11.996094 Z M 11.175781 12.757812 L 11.410156 12.898438 C 11.625 13.027344 11.765625 13.144531 11.824219 13.269531 C 11.882812 13.390625 11.890625 13.566406 11.566406 13.761719 C 11.417969 13.839844 11.277344 13.894531 11.136719 13.90625 C 11.101562 13.90625 11.070312 13.914062 11.035156 13.914062 C 10.929688 13.914062 10.820312 13.902344 10.714844 13.863281 C 10.582031 13.828125 10.457031 13.765625 10.316406 13.6875 L 10.078125 13.542969 C 10.042969 13.523438 10.011719 13.476562 10.011719 13.433594 C 10.011719 13.390625 10.035156 13.34375 10.078125 13.320312 L 11.046875 12.757812 C 11.085938 12.734375 11.136719 12.734375 11.175781 12.757812 Z M 17.964844 12.90625 L 21.644531 15.042969 L 20.417969 15.761719 L 18.265625 14.507812 C 18.230469 14.488281 18.179688 14.488281 18.140625 14.507812 L 17.429688 14.917969 C 17.394531 14.9375 17.363281 14.984375 17.363281 15.027344 C 17.363281 15.074219 17.386719 15.117188 17.429688 15.140625 L 19.457031 16.3125 L 18.273438 17 L 16.121094 15.761719 C 16.085938 15.742188 16.035156 15.742188 15.996094 15.761719 L 15.277344 16.183594 C 15.242188 16.207031 15.210938 16.253906 15.210938 16.296875 C 15.210938 16.339844 15.234375 16.386719 15.277344 16.40625 L 17.304688 17.578125 L 16.078125 18.300781 L 12.394531 16.164062 Z M 17.148438 18.914062 L 18.621094 19.769531 L 20.558594 18.640625 C 20.609375 18.609375 20.671875 18.617188 20.707031 18.65625 C 20.75 18.691406 20.757812 18.753906 20.738281 18.804688 L 19.886719 20.496094 L 20.476562 20.835938 L 21.585938 21.480469 L 22.476562 19.433594 C 22.480469 19.417969 22.488281 19.40625 22.503906 19.398438 C 22.503906 19.398438 22.511719 19.390625 22.511719 19.390625 C 22.519531 19.382812 22.527344 19.375 22.542969 19.375 C 22.546875 19.375 22.546875 19.375 22.554688 19.367188 C 22.5625 19.367188 22.570312 19.359375 22.585938 19.359375 C 22.59375 19.359375 22.601562 19.359375 22.609375 19.359375 C 22.613281 19.359375 22.621094 19.359375 22.621094 19.359375 C 22.621094 19.359375 22.628906 19.359375 22.628906 19.367188 C 22.628906 19.367188 22.636719 19.367188 22.636719 19.367188 C 22.808594 19.425781 23.027344 19.480469 23.304688 19.507812 C 23.578125 19.539062 23.886719 19.523438 24.226562 19.464844 C 24.566406 19.40625 24.914062 19.265625 25.277344 19.054688 C 25.632812 18.847656 25.867188 18.632812 25.972656 18.402344 C 26.078125 18.1875 26.078125 17.980469 25.972656 17.773438 C 25.863281 17.550781 25.632812 17.34375 25.300781 17.148438 L 22.734375 15.667969 Z M 23.058594 17.179688 C 23.097656 17.15625 23.148438 17.15625 23.183594 17.179688 L 23.480469 17.351562 C 23.65625 17.453125 23.785156 17.578125 23.863281 17.722656 C 23.9375 17.855469 23.945312 18.054688 23.570312 18.277344 C 23.375 18.386719 23.175781 18.449219 22.992188 18.449219 C 22.933594 18.449219 22.875 18.441406 22.816406 18.433594 C 22.585938 18.386719 22.378906 18.320312 22.214844 18.226562 L 21.933594 18.0625 C 21.898438 18.039062 21.867188 17.996094 21.867188 17.949219 C 21.867188 17.90625 21.890625 17.863281 21.933594 17.839844 Z M 27.785156 18.597656 L 31.785156 20.910156 L 30.558594 21.628906 L 29.351562 20.933594 C 29.316406 20.910156 29.261719 20.910156 29.226562 20.933594 L 24.945312 23.425781 L 23.871094 22.800781 L 23.480469 22.570312 L 27.636719 20.148438 C 27.671875 20.125 27.703125 20.078125 27.703125 20.035156 C 27.703125 19.992188 27.679688 19.945312 27.636719 19.925781 L 26.558594 19.300781 Z M 30.867188 22.34375 C 30.359375 22.460938 29.898438 22.644531 29.484375 22.882812 C 29.070312 23.121094 28.761719 23.386719 28.554688 23.671875 C 28.347656 23.945312 28.242188 24.234375 28.234375 24.515625 C 28.226562 24.804688 28.332031 25.09375 28.539062 25.375 C 28.753906 25.664062 29.085938 25.949219 29.539062 26.207031 C 29.980469 26.460938 30.460938 26.660156 30.980469 26.785156 C 31.496094 26.910156 32.03125 26.972656 32.570312 26.972656 C 33.101562 26.972656 33.632812 26.902344 34.136719 26.777344 C 34.640625 26.652344 35.097656 26.464844 35.511719 26.230469 C 35.917969 25.992188 36.230469 25.726562 36.429688 25.441406 C 36.628906 25.160156 36.726562 24.871094 36.726562 24.582031 C 36.726562 24.285156 36.621094 24.003906 36.414062 23.714844 C 36.207031 23.425781 35.882812 23.152344 35.453125 22.90625 C 35.03125 22.660156 34.550781 22.476562 34.042969 22.351562 C 33.523438 22.222656 32.984375 22.164062 32.449219 22.15625 C 32.445312 22.15625 32.4375 22.15625 32.429688 22.15625 C 31.890625 22.164062 31.371094 22.222656 30.867188 22.34375 Z M 33.070312 23.320312 C 33.40625 23.359375 33.714844 23.453125 33.988281 23.617188 C 34.277344 23.78125 34.457031 23.980469 34.527344 24.195312 C 34.601562 24.417969 34.574219 24.640625 34.449219 24.863281 C 34.328125 25.070312 34.121094 25.257812 33.847656 25.421875 C 33.574219 25.578125 33.265625 25.695312 32.933594 25.761719 C 32.71875 25.804688 32.503906 25.828125 32.296875 25.828125 C 32.175781 25.828125 32.050781 25.820312 31.933594 25.804688 C 31.601562 25.769531 31.289062 25.664062 31.007812 25.507812 C 30.726562 25.347656 30.542969 25.152344 30.46875 24.9375 C 30.394531 24.714844 30.417969 24.492188 30.542969 24.269531 C 30.667969 24.0625 30.859375 23.878906 31.148438 23.714844 C 31.421875 23.558594 31.734375 23.441406 32.066406 23.375 C 32.398438 23.300781 32.738281 23.285156 33.070312 23.320312 Z M 33.070312 23.320312 " fill-opacity="1" fill-rule="nonzero"/></g></svg>