<svg xmlns="http://www.w3.org/2000/svg" xmlns:xlink="http://www.w3.org/1999/xlink" width="50" zoomAndPan="magnify" viewBox="0 0 37.5 37.499999" height="50" preserveAspectRatio="xMidYMid meet" version="1.0"><defs><g/><clipPath id="c409625526"><path d="M 0 3.699219 L 37 3.699219 L 37 33.304688 L 0 33.304688 Z M 0 3.699219 " clip-rule="nonzero"/></clipPath></defs><g clip-path="url(#c409625526)"><path fill="#00bf63" d="M 34.984375 12.847656 C 34.957031 12.632812 34.765625 12.484375 34.546875 12.511719 L 28.476562 13.292969 L 18.152344 6.53125 C 18.28125 6.273438 18.355469 5.984375 18.355469 5.679688 C 18.355469 4.601562 17.476562 3.722656 16.398438 3.722656 C 15.320312 3.722656 14.441406 4.601562 14.441406 5.679688 C 14.441406 6.113281 14.585938 6.511719 14.828125 6.839844 L 6.441406 16.144531 L 0.371094 16.929688 C 0.15625 16.957031 0.00390625 17.152344 0.03125 17.367188 L 2.039062 32.902344 C 2.054688 33.003906 2.105469 33.097656 2.191406 33.160156 C 2.257812 33.214844 2.34375 33.242188 2.429688 33.242188 C 2.445312 33.242188 2.460938 33.242188 2.476562 33.238281 L 36.65625 28.820312 C 36.757812 28.804688 36.851562 28.753906 36.914062 28.671875 C 36.980469 28.589844 37.007812 28.484375 36.996094 28.382812 Z M 16.398438 4.503906 C 17.046875 4.503906 17.574219 5.03125 17.574219 5.679688 C 17.574219 6.328125 17.046875 6.855469 16.398438 6.855469 C 15.75 6.855469 15.222656 6.328125 15.222656 5.679688 C 15.222656 5.03125 15.75 4.503906 16.398438 4.503906 Z M 15.414062 7.359375 C 15.703125 7.53125 16.039062 7.636719 16.398438 7.636719 C 16.890625 7.636719 17.332031 7.449219 17.675781 7.152344 L 27.285156 13.449219 L 7.632812 15.988281 Z M 2.765625 32.414062 L 0.859375 17.65625 L 34.257812 13.335938 L 36.167969 28.09375 Z M 2.765625 32.414062 " fill-opacity="1" fill-rule="nonzero"/></g><g fill="#00bf63" fill-opacity="1"><g transform="translate(6.182346, 26.79521)"><g><path d="M 4.3125 -0.546875 L 3.375 -2.25 L 1.109375 -1.96875 L 0.671875 -0.078125 L 0 0 L 1.515625 -5.9375 L 2.0625 -6.015625 L 4.984375 -0.640625 Z M 3.109375 -2.828125 L 2.25 -4.46875 C 2.132812 -4.6875 2.007812 -4.945312 1.875 -5.25 C 1.84375 -5.007812 1.796875 -4.726562 1.734375 -4.40625 L 1.28125 -2.59375 Z M 3.109375 -2.828125 "/></g></g></g><g fill="#00bf63" fill-opacity="1"><g transform="translate(11.166602, 26.162503)"><g><path d="M 2.09375 -4.625 C 2.644531 -4.695312 3.097656 -4.5625 3.453125 -4.21875 C 3.816406 -3.882812 4.046875 -3.367188 4.140625 -2.671875 C 4.222656 -1.972656 4.132812 -1.410156 3.875 -0.984375 C 3.613281 -0.566406 3.207031 -0.320312 2.65625 -0.25 C 2.382812 -0.21875 2.125 -0.238281 1.875 -0.3125 C 1.632812 -0.394531 1.425781 -0.53125 1.25 -0.71875 L 1.203125 -0.703125 L 1.125 -0.140625 L 0.6875 -0.09375 L -0.078125 -6.09375 L 0.546875 -6.171875 L 0.734375 -4.71875 C 0.773438 -4.382812 0.800781 -4.082031 0.8125 -3.8125 L 0.84375 -3.828125 C 1.09375 -4.285156 1.507812 -4.550781 2.09375 -4.625 Z M 2.09375 -4.078125 C 1.644531 -4.015625 1.335938 -3.847656 1.171875 -3.578125 C 1.015625 -3.304688 0.972656 -2.875 1.046875 -2.28125 C 1.117188 -1.6875 1.269531 -1.273438 1.5 -1.046875 C 1.726562 -0.816406 2.066406 -0.734375 2.515625 -0.796875 C 2.898438 -0.847656 3.171875 -1.023438 3.328125 -1.328125 C 3.484375 -1.628906 3.53125 -2.050781 3.46875 -2.59375 C 3.394531 -3.132812 3.242188 -3.53125 3.015625 -3.78125 C 2.796875 -4.03125 2.488281 -4.128906 2.09375 -4.078125 Z M 2.09375 -4.078125 "/></g></g></g><g fill="#00bf63" fill-opacity="1"><g transform="translate(15.993177, 25.549813)"><g><path d="M 2.484375 -0.234375 C 1.847656 -0.148438 1.328125 -0.273438 0.921875 -0.609375 C 0.515625 -0.953125 0.269531 -1.460938 0.1875 -2.140625 C 0.101562 -2.816406 0.195312 -3.375 0.46875 -3.8125 C 0.75 -4.257812 1.175781 -4.519531 1.75 -4.59375 C 2.269531 -4.65625 2.707031 -4.53125 3.0625 -4.21875 C 3.425781 -3.914062 3.640625 -3.484375 3.703125 -2.921875 L 3.765625 -2.515625 L 0.84375 -2.140625 C 0.925781 -1.640625 1.101562 -1.273438 1.375 -1.046875 C 1.644531 -0.828125 1.992188 -0.742188 2.421875 -0.796875 C 2.867188 -0.859375 3.304688 -1.007812 3.734375 -1.25 L 3.796875 -0.6875 C 3.585938 -0.550781 3.382812 -0.445312 3.1875 -0.375 C 3 -0.3125 2.765625 -0.265625 2.484375 -0.234375 Z M 1.8125 -4.0625 C 1.46875 -4.007812 1.207031 -3.859375 1.03125 -3.609375 C 0.863281 -3.367188 0.785156 -3.050781 0.796875 -2.65625 L 3.015625 -2.9375 C 2.960938 -3.332031 2.832031 -3.628906 2.625 -3.828125 C 2.414062 -4.023438 2.144531 -4.101562 1.8125 -4.0625 Z M 1.8125 -4.0625 "/></g></g></g><g fill="#00bf63" fill-opacity="1"><g transform="translate(20.412089, 24.988871)"><g><path d="M 2.0625 -4.625 C 2.25 -4.644531 2.414062 -4.648438 2.5625 -4.640625 L 2.546875 -4.046875 C 2.378906 -4.054688 2.226562 -4.054688 2.09375 -4.046875 C 1.75 -4.003906 1.472656 -3.828125 1.265625 -3.515625 C 1.054688 -3.210938 0.976562 -2.851562 1.03125 -2.4375 L 1.3125 -0.171875 L 0.6875 -0.09375 L 0.15625 -4.3125 L 0.671875 -4.375 L 0.84375 -3.59375 L 0.875 -3.609375 C 1 -3.910156 1.160156 -4.144531 1.359375 -4.3125 C 1.554688 -4.488281 1.789062 -4.59375 2.0625 -4.625 Z M 2.0625 -4.625 "/></g></g></g><g fill="#00bf63" fill-opacity="1"><g transform="translate(23.627242, 24.580736)"><g><path d="M 1.984375 -0.71875 C 2.097656 -0.726562 2.207031 -0.75 2.3125 -0.78125 C 2.414062 -0.8125 2.5 -0.835938 2.5625 -0.859375 L 2.625 -0.359375 C 2.550781 -0.316406 2.445312 -0.273438 2.3125 -0.234375 C 2.1875 -0.203125 2.070312 -0.179688 1.96875 -0.171875 C 1.15625 -0.0664062 0.691406 -0.441406 0.578125 -1.296875 L 0.265625 -3.8125 L -0.34375 -3.734375 L -0.390625 -4.046875 L 0.1875 -4.390625 L 0.328125 -5.328125 L 0.703125 -5.375 L 0.828125 -4.390625 L 2.0625 -4.546875 L 2.125 -4.046875 L 0.890625 -3.890625 L 1.203125 -1.40625 C 1.234375 -1.15625 1.316406 -0.96875 1.453125 -0.84375 C 1.585938 -0.726562 1.765625 -0.6875 1.984375 -0.71875 Z M 1.984375 -0.71875 "/></g></g></g><g fill="#00bf63" fill-opacity="1"><g transform="translate(26.40781, 24.227768)"><g><path d="M 4.0625 -2.65625 C 4.144531 -1.96875 4.035156 -1.410156 3.734375 -0.984375 C 3.441406 -0.554688 2.992188 -0.300781 2.390625 -0.21875 C 2.003906 -0.175781 1.648438 -0.222656 1.328125 -0.359375 C 1.015625 -0.492188 0.757812 -0.71875 0.5625 -1.03125 C 0.363281 -1.34375 0.238281 -1.722656 0.1875 -2.171875 C 0.09375 -2.859375 0.191406 -3.414062 0.484375 -3.84375 C 0.773438 -4.269531 1.226562 -4.519531 1.84375 -4.59375 C 2.4375 -4.675781 2.929688 -4.539062 3.328125 -4.1875 C 3.734375 -3.832031 3.976562 -3.320312 4.0625 -2.65625 Z M 0.828125 -2.25 C 0.890625 -1.707031 1.046875 -1.3125 1.296875 -1.0625 C 1.554688 -0.8125 1.898438 -0.710938 2.328125 -0.765625 C 2.734375 -0.816406 3.023438 -0.992188 3.203125 -1.296875 C 3.390625 -1.609375 3.453125 -2.035156 3.390625 -2.578125 C 3.316406 -3.117188 3.15625 -3.507812 2.90625 -3.75 C 2.65625 -4 2.320312 -4.097656 1.90625 -4.046875 C 1.488281 -3.992188 1.1875 -3.816406 1 -3.515625 C 0.8125 -3.210938 0.753906 -2.789062 0.828125 -2.25 Z M 0.828125 -2.25 "/></g></g></g></svg>