<svg xmlns="http://www.w3.org/2000/svg" xmlns:xlink="http://www.w3.org/1999/xlink" width="40" zoomAndPan="magnify" viewBox="0 0 30 30.000001" height="40" preserveAspectRatio="xMidYMid meet" version="1.0"><defs><clipPath id="55c755ae54"><path d="M 0.484375 1 L 29.515625 1 L 29.515625 28.242188 L 0.484375 28.242188 Z M 0.484375 1 " clip-rule="nonzero"/></clipPath><clipPath id="e5ae247b96"><path d="M 0.484375 1 L 29.515625 1 L 29.515625 12 L 0.484375 12 Z M 0.484375 1 " clip-rule="nonzero"/></clipPath><clipPath id="494eba3a1e"><path d="M 4 0.660156 L 8 0.660156 L 8 6 L 4 6 Z M 4 0.660156 " clip-rule="nonzero"/></clipPath><clipPath id="97293f6545"><path d="M 13 0.660156 L 17 0.660156 L 17 6 L 13 6 Z M 13 0.660156 " clip-rule="nonzero"/></clipPath><clipPath id="176c0d5735"><path d="M 22 0.660156 L 26 0.660156 L 26 6 L 22 6 Z M 22 0.660156 " clip-rule="nonzero"/></clipPath></defs><g clip-path="url(#55c755ae54)"><path fill="#ff3298" d="M 0.488281 5.9375 C 0.488281 3.75 2.257812 1.980469 4.445312 1.980469 L 25.554688 1.980469 C 27.742188 1.980469 29.511719 3.75 29.511719 5.9375 L 29.511719 24.40625 C 29.511719 26.59375 27.742188 28.363281 25.554688 28.363281 L 4.445312 28.363281 C 2.257812 28.363281 0.488281 26.59375 0.488281 24.40625 Z M 4.445312 4.617188 C 3.71875 4.617188 3.125 5.207031 3.125 5.9375 L 3.125 24.40625 C 3.125 25.136719 3.71875 25.726562 4.445312 25.726562 L 25.554688 25.726562 C 26.28125 25.726562 26.875 25.136719 26.875 24.40625 L 26.875 5.9375 C 26.875 5.207031 26.28125 4.617188 25.554688 4.617188 Z M 4.445312 4.617188 " fill-opacity="1" fill-rule="evenodd"/></g><g clip-path="url(#e5ae247b96)"><path fill="#ff3298" d="M 0.488281 5.9375 C 0.488281 3.75 2.257812 1.980469 4.445312 1.980469 L 25.554688 1.980469 C 27.742188 1.980469 29.511719 3.75 29.511719 5.9375 L 29.511719 9.894531 C 29.511719 10.625 28.921875 11.214844 28.191406 11.214844 L 1.808594 11.214844 C 1.078125 11.214844 0.488281 10.625 0.488281 9.894531 Z M 4.445312 4.617188 C 3.71875 4.617188 3.125 5.207031 3.125 5.9375 L 3.125 8.574219 L 26.875 8.574219 L 26.875 5.9375 C 26.875 5.207031 26.28125 4.617188 25.554688 4.617188 Z M 4.445312 4.617188 " fill-opacity="1" fill-rule="evenodd"/></g><g clip-path="url(#494eba3a1e)"><path fill="#ff3298" d="M 4.445312 0.660156 L 7.085938 0.660156 L 7.085938 5.277344 L 4.445312 5.277344 Z M 4.445312 0.660156 " fill-opacity="1" fill-rule="evenodd"/></g><g clip-path="url(#97293f6545)"><path fill="#ff3298" d="M 13.679688 0.660156 L 16.320312 0.660156 L 16.320312 5.277344 L 13.679688 5.277344 Z M 13.679688 0.660156 " fill-opacity="1" fill-rule="evenodd"/></g><g clip-path="url(#176c0d5735)"><path fill="#ff3298" d="M 22.914062 0.660156 L 25.554688 0.660156 L 25.554688 5.277344 L 22.914062 5.277344 Z M 22.914062 0.660156 " fill-opacity="1" fill-rule="evenodd"/></g><path fill="#ff3298" d="M 6.425781 13.851562 L 9.0625 13.851562 L 9.0625 16.492188 L 6.425781 16.492188 Z M 6.425781 13.851562 " fill-opacity="1" fill-rule="evenodd"/><path fill="#ff3298" d="M 6.425781 19.128906 L 9.0625 19.128906 L 9.0625 21.769531 L 6.425781 21.769531 Z M 6.425781 19.128906 " fill-opacity="1" fill-rule="evenodd"/><path fill="#ff3298" d="M 13.679688 13.851562 L 16.320312 13.851562 L 16.320312 16.492188 L 13.679688 16.492188 Z M 13.679688 13.851562 " fill-opacity="1" fill-rule="evenodd"/><path fill="#ff3298" d="M 13.679688 19.128906 L 16.320312 19.128906 L 16.320312 21.769531 L 13.679688 21.769531 Z M 13.679688 19.128906 " fill-opacity="1" fill-rule="evenodd"/><path fill="#ff3298" d="M 20.9375 13.851562 L 23.574219 13.851562 L 23.574219 16.492188 L 20.9375 16.492188 Z M 20.9375 13.851562 " fill-opacity="1" fill-rule="evenodd"/><path fill="#ff3298" d="M 20.9375 19.128906 L 23.574219 19.128906 L 23.574219 21.769531 L 20.9375 21.769531 Z M 20.9375 19.128906 " fill-opacity="1" fill-rule="evenodd"/></svg>