<svg xmlns="http://www.w3.org/2000/svg" xmlns:xlink="http://www.w3.org/1999/xlink" width="55" zoomAndPan="magnify" viewBox="0 0 41.25 41.250001" height="55" preserveAspectRatio="xMidYMid meet" version="1.0"><defs><clipPath id="3fa38e3f93"><path d="M 0 0 L 40.511719 0 L 40.511719 40.511719 L 0 40.511719 Z M 0 0 " clip-rule="nonzero"/></clipPath></defs><path fill="#ffffff" d="M 12.402344 15.832031 C 11.953125 15.929688 11.453125 15.980469 10.902344 16.03125 C 10.753906 16.03125 10.652344 16.179688 10.703125 16.28125 C 10.703125 16.429688 10.804688 16.480469 10.953125 16.480469 C 10.953125 16.480469 10.953125 16.480469 11.003906 16.480469 C 11.554688 16.429688 12.054688 16.332031 12.554688 16.28125 C 12.703125 16.28125 12.804688 16.128906 12.753906 15.980469 C 12.652344 15.878906 12.503906 15.78125 12.402344 15.832031 Z M 12.402344 15.832031 " fill-opacity="1" fill-rule="nonzero"/><path fill="#ffffff" d="M 12.402344 20.882812 C 11.953125 20.980469 11.453125 21.03125 10.902344 21.082031 C 10.753906 21.082031 10.652344 21.230469 10.703125 21.332031 C 10.703125 21.480469 10.804688 21.53125 10.953125 21.53125 C 10.953125 21.53125 10.953125 21.53125 11.003906 21.53125 C 11.554688 21.480469 12.054688 21.382812 12.554688 21.332031 C 12.703125 21.332031 12.804688 21.183594 12.753906 21.03125 C 12.652344 20.980469 12.503906 20.882812 12.402344 20.882812 Z M 12.402344 20.882812 " fill-opacity="1" fill-rule="nonzero"/><path fill="#ffffff" d="M 12.355469 25.933594 C 11.902344 26.035156 11.402344 26.082031 10.855469 26.132812 C 10.703125 26.132812 10.601562 26.285156 10.652344 26.382812 C 10.652344 26.535156 10.753906 26.582031 10.902344 26.582031 C 10.902344 26.582031 10.902344 26.582031 10.953125 26.582031 C 11.503906 26.535156 12.003906 26.433594 12.503906 26.382812 C 12.652344 26.382812 12.753906 26.234375 12.703125 26.082031 C 12.605469 25.984375 12.503906 25.933594 12.355469 25.933594 Z M 12.355469 25.933594 " fill-opacity="1" fill-rule="nonzero"/><path fill="#ffffff" d="M 12.304688 30.183594 C 11.855469 30.285156 11.355469 30.335938 10.804688 30.386719 C 10.652344 30.386719 10.554688 30.535156 10.601562 30.636719 C 10.601562 30.785156 10.703125 30.835938 10.855469 30.835938 C 10.855469 30.835938 10.855469 30.835938 10.902344 30.835938 C 11.453125 30.785156 11.953125 30.683594 12.453125 30.636719 C 12.605469 30.636719 12.703125 30.484375 12.652344 30.335938 C 12.605469 30.234375 12.453125 30.183594 12.304688 30.183594 Z M 12.304688 30.183594 " fill-opacity="1" fill-rule="nonzero"/><path fill="#ffffff" d="M 4.300781 16.332031 C 4.800781 16.429688 5.300781 16.480469 5.851562 16.53125 C 5.851562 16.53125 5.851562 16.53125 5.902344 16.53125 C 6.050781 16.53125 6.152344 16.429688 6.152344 16.28125 C 6.152344 16.128906 6.050781 16.03125 5.953125 16.03125 C 5.453125 15.980469 4.902344 15.929688 4.453125 15.832031 C 4.300781 15.78125 4.203125 15.878906 4.152344 16.03125 C 4.101562 16.179688 4.203125 16.28125 4.300781 16.332031 Z M 4.300781 16.332031 " fill-opacity="1" fill-rule="nonzero"/><path fill="#ffffff" d="M 5.851562 21.53125 C 5.851562 21.53125 5.902344 21.53125 5.851562 21.53125 C 6.003906 21.53125 6.101562 21.433594 6.101562 21.332031 C 6.101562 21.183594 6.003906 21.082031 5.902344 21.082031 C 5.402344 21.03125 4.851562 20.980469 4.402344 20.882812 C 4.25 20.882812 4.152344 20.933594 4.101562 21.082031 C 4.101562 21.230469 4.152344 21.332031 4.300781 21.382812 C 4.800781 21.433594 5.351562 21.480469 5.851562 21.53125 Z M 5.851562 21.53125 " fill-opacity="1" fill-rule="nonzero"/><path fill="#ffffff" d="M 4.351562 26.433594 C 4.851562 26.535156 5.351562 26.582031 5.902344 26.632812 C 5.902344 26.632812 5.902344 26.632812 5.953125 26.632812 C 6.101562 26.632812 6.203125 26.535156 6.203125 26.433594 C 6.203125 26.285156 6.101562 26.183594 6.003906 26.183594 C 5.5 26.132812 5 26.082031 4.5 25.984375 C 4.351562 25.984375 4.25 26.035156 4.203125 26.183594 C 4.152344 26.285156 4.25 26.382812 4.351562 26.433594 Z M 4.351562 26.433594 " fill-opacity="1" fill-rule="nonzero"/><path fill="#ffffff" d="M 6.003906 30.386719 C 5.5 30.335938 5 30.285156 4.5 30.183594 C 4.351562 30.183594 4.25 30.234375 4.203125 30.386719 C 4.203125 30.535156 4.25 30.636719 4.402344 30.683594 C 4.902344 30.785156 5.402344 30.835938 5.953125 30.886719 C 5.953125 30.886719 5.953125 30.886719 6.003906 30.886719 C 6.152344 30.886719 6.253906 30.785156 6.253906 30.683594 C 6.203125 30.535156 6.101562 30.386719 6.003906 30.386719 Z M 6.003906 30.386719 " fill-opacity="1" fill-rule="nonzero"/><path fill="#ffffff" d="M 6.003906 34.636719 C 5.5 34.585938 5 34.535156 4.5 34.4375 C 4.351562 34.4375 4.25 34.488281 4.203125 34.636719 C 4.152344 34.785156 4.25 34.886719 4.402344 34.9375 C 4.902344 35.035156 5.402344 35.085938 5.953125 35.136719 C 5.953125 35.136719 5.953125 35.136719 6.003906 35.136719 C 6.152344 35.136719 6.253906 35.035156 6.253906 34.9375 C 6.203125 34.785156 6.101562 34.636719 6.003906 34.636719 Z M 6.003906 34.636719 " fill-opacity="1" fill-rule="nonzero"/><path fill="#ffffff" d="M 8.351562 3.125 C 10.253906 3.125 12.304688 2.726562 12.304688 1.824219 C 12.304688 0.925781 10.253906 0.523438 8.351562 0.523438 C 6.453125 0.523438 4.402344 0.925781 4.402344 1.824219 C 4.402344 2.726562 6.402344 3.125 8.351562 3.125 Z M 8.351562 1.023438 C 10.652344 1.023438 11.804688 1.574219 11.804688 1.824219 C 11.804688 2.074219 10.601562 2.625 8.351562 2.625 C 6.050781 2.625 4.902344 2.074219 4.902344 1.824219 C 4.902344 1.574219 6.050781 1.023438 8.351562 1.023438 Z M 8.351562 1.023438 " fill-opacity="1" fill-rule="nonzero"/><g clip-path="url(#3fa38e3f93)"><path fill="#ffffff" d="M 39.113281 20.03125 C 37.511719 17.582031 34.910156 16.332031 33.160156 17.28125 L 33.0625 17.332031 C 33.0625 17.332031 33.0625 17.332031 33.011719 17.332031 L 20.90625 23.984375 C 20.90625 23.984375 20.90625 23.984375 20.855469 23.984375 C 19.355469 24.882812 19.054688 27.132812 20.054688 29.585938 L 17.054688 31.386719 L 16.855469 18.832031 L 16.804688 13.828125 C 16.804688 13.828125 16.804688 13.78125 16.804688 13.78125 C 16.804688 13.78125 16.804688 13.730469 16.804688 13.730469 L 16.753906 10.628906 C 16.753906 10.578125 16.753906 10.578125 16.753906 10.578125 C 16.753906 10.527344 16.753906 10.476562 16.753906 10.476562 L 16.753906 10.378906 C 16.753906 10.328125 16.707031 10.277344 16.707031 10.226562 C 16.355469 9.378906 14.804688 8.578125 13.703125 8.226562 L 13.703125 8.027344 C 13.753906 8.027344 13.804688 8.027344 13.804688 8.027344 C 13.953125 8.027344 14.054688 7.878906 14.003906 7.726562 C 14.003906 7.578125 13.855469 7.476562 13.703125 7.527344 L 13.703125 6.078125 C 13.804688 6.078125 13.855469 6.078125 13.90625 6.027344 C 14.054688 6.027344 14.15625 5.875 14.105469 5.726562 C 14.105469 5.578125 13.953125 5.476562 13.804688 5.527344 C 13.804688 5.527344 13.753906 5.527344 13.703125 5.527344 L 13.703125 3.828125 C 13.753906 3.777344 13.804688 3.777344 13.804688 3.777344 C 13.90625 3.675781 13.90625 3.527344 13.804688 3.425781 C 13.753906 3.375 13.753906 3.375 13.703125 3.375 L 13.703125 1.925781 C 13.703125 0.675781 10.953125 0.0234375 8.402344 0.0234375 C 5.851562 0.0234375 3.101562 0.675781 3.101562 1.925781 L 3.152344 3.074219 C 3.101562 3.074219 3.050781 3.074219 3 3.125 C 2.902344 3.175781 2.851562 3.375 2.902344 3.476562 C 2.949219 3.578125 3.050781 3.675781 3.152344 3.828125 L 3.199219 5.527344 C 3.199219 5.527344 3.152344 5.476562 3.152344 5.476562 C 3.050781 5.375 2.902344 5.375 2.800781 5.476562 C 2.699219 5.578125 2.699219 5.726562 2.800781 5.828125 C 2.949219 5.976562 3.101562 6.128906 3.25 6.277344 L 3.25 7.128906 C 3.199219 7.128906 3.101562 7.128906 3.050781 7.175781 C 2.949219 7.277344 2.902344 7.425781 3 7.527344 C 3.101562 7.675781 3.199219 7.777344 3.300781 7.925781 L 3.300781 8.277344 C 1.652344 8.726562 0 9.726562 0 10.730469 L 0.0507812 18.832031 C 0.0507812 18.882812 0 18.882812 0 18.929688 C 0 19.03125 0 19.082031 0.0507812 19.179688 L 0.101562 32.335938 C 0.101562 32.335938 0.101562 32.386719 0.101562 32.386719 C 0.101562 32.386719 0.101562 32.4375 0.101562 32.4375 L 0.101562 34.234375 C 0.101562 34.285156 0.101562 34.285156 0.101562 34.335938 C 0.101562 36.238281 4.351562 37.539062 8.453125 37.6875 L 7.300781 38.4375 C 7.253906 38.4375 7.253906 38.488281 7.203125 38.539062 L 6.851562 39.238281 C 6.800781 39.289062 6.800781 39.386719 6.851562 39.4375 L 7.152344 40.339844 C 7.203125 40.4375 7.300781 40.488281 7.402344 40.488281 L 8.152344 40.488281 C 8.203125 40.488281 8.253906 40.488281 8.253906 40.4375 L 14.703125 36.285156 C 14.855469 36.386719 15.304688 36.636719 15.804688 36.636719 C 15.957031 36.636719 16.15625 36.585938 16.304688 36.535156 C 16.355469 36.535156 16.40625 36.488281 16.40625 36.4375 C 16.40625 36.4375 16.457031 36.4375 16.457031 36.4375 L 22.15625 32.9375 C 23.40625 34.234375 24.859375 34.9375 26.109375 34.9375 C 26.609375 34.9375 27.109375 34.835938 27.507812 34.535156 L 38.863281 26.535156 C 39.464844 26.132812 39.914062 25.535156 40.113281 24.683594 C 40.511719 23.332031 40.113281 21.582031 39.113281 20.03125 Z M 24.40625 24.832031 C 24.457031 25.535156 24.558594 26.082031 24.859375 26.785156 L 23.957031 27.335938 C 23.507812 26.183594 23.457031 25.332031 23.757812 24.53125 C 23.957031 24.582031 24.207031 24.683594 24.40625 24.832031 Z M 25.257812 26.535156 C 25.058594 26.035156 24.957031 25.632812 24.910156 25.183594 C 25.257812 25.433594 25.609375 25.785156 25.957031 26.132812 Z M 23.507812 27.585938 L 22.707031 28.035156 C 22.105469 26.433594 22.15625 25.132812 22.957031 24.28125 C 23.007812 24.28125 23.007812 24.28125 23.058594 24.28125 C 23.109375 24.28125 23.207031 24.332031 23.308594 24.332031 C 22.957031 25.285156 23.007812 26.285156 23.507812 27.585938 Z M 21.308594 28.882812 C 20.605469 26.933594 20.855469 25.234375 22.007812 24.53125 C 22.105469 24.484375 22.207031 24.433594 22.308594 24.382812 C 21.65625 25.382812 21.65625 26.734375 22.308594 28.335938 Z M 21.105469 24.433594 C 21.207031 24.382812 21.308594 24.332031 21.40625 24.28125 C 20.308594 25.234375 20.054688 27.082031 20.855469 29.132812 L 20.457031 29.382812 C 19.605469 27.183594 19.855469 25.234375 21.105469 24.433594 Z M 13.15625 7.578125 C 11.503906 7.777344 6.351562 8.175781 3.652344 5.925781 L 3.601562 4.328125 C 5.300781 5.925781 8.203125 6.277344 10.503906 6.277344 C 11.605469 6.277344 12.554688 6.175781 13.15625 6.128906 Z M 13.15625 5.578125 C 11.304688 5.777344 5.75 6.128906 3.601562 3.527344 L 3.601562 2.726562 C 4.5 3.425781 6.503906 3.777344 8.402344 3.777344 C 10.304688 3.777344 12.304688 3.425781 13.203125 2.726562 L 13.203125 3.578125 C 12.753906 3.875 11.652344 4.425781 9.753906 4.425781 C 9.601562 4.425781 9.503906 4.527344 9.503906 4.675781 C 9.503906 4.828125 9.601562 4.925781 9.753906 4.925781 C 11.453125 4.925781 12.554688 4.476562 13.203125 4.125 Z M 8.351562 0.476562 C 11.355469 0.476562 13.15625 1.277344 13.15625 1.875 C 13.15625 2.476562 11.304688 3.277344 8.351562 3.277344 C 5.402344 3.277344 3.550781 2.476562 3.550781 1.875 C 3.550781 1.277344 5.351562 0.476562 8.351562 0.476562 Z M 10.453125 8.226562 C 11.605469 8.226562 12.554688 8.128906 13.15625 8.078125 L 13.15625 9.277344 C 11.605469 9.527344 6.152344 10.226562 3.703125 7.578125 L 3.652344 6.578125 C 5.550781 7.925781 8.304688 8.226562 10.453125 8.226562 Z M 13.15625 9.777344 L 13.15625 10.328125 C 12.753906 10.578125 11.304688 11.328125 9.101562 11.378906 C 7.902344 11.378906 4.953125 11.328125 3.800781 10.179688 L 3.75 8.226562 C 5.351562 9.628906 7.800781 10.027344 9.902344 10.027344 C 11.253906 10.027344 12.453125 9.878906 13.15625 9.777344 Z M 3.199219 8.628906 L 3.25 10.328125 C 3.25 10.378906 3.300781 10.429688 3.300781 10.476562 C 4.453125 11.730469 7.253906 11.878906 8.703125 11.878906 C 8.804688 11.878906 8.953125 11.878906 9.054688 11.878906 C 11.855469 11.828125 13.453125 10.730469 13.503906 10.679688 C 13.554688 10.628906 13.605469 10.578125 13.605469 10.476562 L 13.605469 9.679688 C 13.753906 9.628906 13.804688 9.527344 13.804688 9.378906 C 13.804688 9.277344 13.703125 9.179688 13.605469 9.179688 L 13.605469 8.726562 C 14.804688 9.128906 16.054688 9.878906 16.207031 10.429688 L 16.207031 10.578125 C 16.105469 11.679688 12.902344 12.878906 8.304688 12.878906 C 3.652344 12.878906 0.398438 11.628906 0.398438 10.476562 C 0.398438 9.976562 1.5 9.128906 3.199219 8.628906 Z M 9.203125 37.1875 C 4.402344 37.1875 0.648438 35.636719 0.648438 34.285156 C 0.648438 34.234375 0.648438 34.234375 0.648438 34.1875 L 0.648438 33.4375 C 1.199219 33.984375 2.152344 34.386719 3.5 34.738281 C 3.5 34.738281 3.550781 34.738281 3.550781 34.738281 C 3.652344 34.738281 3.75 34.636719 3.800781 34.535156 C 3.851562 34.386719 3.75 34.285156 3.601562 34.234375 C 1.800781 33.785156 0.699219 33.136719 0.648438 32.4375 L 0.601562 29.183594 C 1.148438 29.734375 2.101562 30.183594 3.449219 30.484375 C 3.449219 30.484375 3.5 30.484375 3.5 30.484375 C 3.601562 30.484375 3.703125 30.386719 3.75 30.285156 C 3.800781 30.136719 3.703125 30.035156 3.550781 29.984375 C 1.699219 29.535156 0.601562 28.835938 0.601562 28.085938 C 0.601562 28.035156 0.601562 27.984375 0.550781 27.984375 L 0.5 24.882812 C 1.050781 25.433594 2 25.882812 3.351562 26.183594 C 3.351562 26.183594 3.402344 26.183594 3.402344 26.183594 C 3.5 26.183594 3.601562 26.082031 3.652344 25.984375 C 3.703125 25.832031 3.601562 25.734375 3.449219 25.683594 C 1.601562 25.234375 0.5 24.53125 0.5 23.78125 C 0.5 23.734375 0.5 23.734375 0.449219 23.683594 L 0.398438 19.78125 C 0.949219 20.28125 1.902344 20.730469 3.25 21.03125 C 3.25 21.03125 3.300781 21.03125 3.300781 21.03125 C 3.402344 21.03125 3.5 20.933594 3.550781 20.832031 C 3.601562 20.683594 3.5 20.582031 3.351562 20.53125 C 1.652344 20.132812 0.550781 19.53125 0.351562 18.832031 L 0.300781 14.679688 C 0.851562 15.230469 1.851562 15.679688 3.199219 15.980469 C 3.199219 15.980469 3.25 15.980469 3.25 15.980469 C 3.351562 15.980469 3.449219 15.878906 3.5 15.78125 C 3.550781 15.628906 3.449219 15.53125 3.300781 15.480469 C 1.402344 15.03125 0.300781 14.328125 0.300781 13.578125 C 0.300781 13.578125 0.300781 13.53125 0.300781 13.53125 L 0.300781 11.378906 C 1.550781 12.578125 4.953125 13.230469 8.203125 13.230469 C 11.453125 13.230469 14.855469 12.578125 16.105469 11.378906 L 16.15625 13.628906 C 16.105469 14.328125 15.003906 15.03125 13.203125 15.480469 C 13.054688 15.53125 13.003906 15.628906 13.003906 15.78125 C 13.054688 15.878906 13.15625 15.980469 13.253906 15.980469 C 13.253906 15.980469 13.304688 15.980469 13.304688 15.980469 C 14.65625 15.679688 15.605469 15.230469 16.15625 14.679688 L 16.207031 18.679688 C 16.207031 19.429688 15.054688 20.132812 13.15625 20.582031 C 13.003906 20.632812 12.953125 20.730469 12.953125 20.882812 C 13.003906 20.980469 13.105469 21.082031 13.203125 21.082031 C 13.203125 21.082031 13.253906 21.082031 13.253906 21.082031 C 14.65625 20.78125 15.65625 20.332031 16.207031 19.78125 L 16.253906 23.683594 C 16.253906 23.734375 16.207031 23.734375 16.207031 23.78125 C 16.207031 24.53125 15.054688 25.234375 13.105469 25.683594 C 12.953125 25.734375 12.902344 25.832031 12.902344 25.984375 C 12.953125 26.082031 13.054688 26.183594 13.15625 26.183594 C 13.15625 26.183594 13.203125 26.183594 13.203125 26.183594 C 14.65625 25.832031 15.707031 25.382812 16.253906 24.832031 L 16.304688 28.085938 C 16.304688 28.835938 15.105469 29.535156 13.105469 29.984375 C 12.953125 30.035156 12.902344 30.136719 12.902344 30.285156 C 12.953125 30.386719 13.054688 30.484375 13.15625 30.484375 C 13.15625 30.484375 13.203125 30.484375 13.203125 30.484375 C 14.703125 30.136719 15.753906 29.683594 16.355469 29.132812 L 16.40625 31.585938 C 16.40625 31.585938 16.40625 31.636719 16.40625 31.636719 L 14.453125 32.785156 C 14.40625 32.785156 13.554688 33.1875 13.605469 34.386719 L 9.152344 37.1875 C 9.253906 37.1875 9.203125 37.1875 9.203125 37.1875 Z M 14.65625 34.4375 C 14.953125 34.636719 15.40625 35.035156 15.304688 35.386719 L 8.402344 39.789062 L 8.402344 39.039062 C 8.402344 38.9375 8.351562 38.886719 8.304688 38.835938 L 7.953125 38.636719 Z M 7.902344 39.988281 L 7.550781 39.988281 L 7.351562 39.339844 L 7.550781 38.988281 L 7.902344 39.1875 Z M 15.253906 36.035156 L 15.605469 35.835938 C 15.65625 35.835938 15.753906 35.785156 15.753906 35.738281 C 15.855469 35.6875 15.90625 35.535156 15.855469 35.4375 C 15.957031 34.835938 15.253906 34.1875 14.804688 33.9375 C 14.703125 33.886719 14.554688 33.886719 14.453125 34.035156 C 14.453125 34.035156 14.453125 34.085938 14.453125 34.085938 L 14.253906 34.1875 C 14.304688 33.785156 14.503906 33.585938 14.65625 33.484375 C 14.65625 33.484375 14.703125 33.484375 14.703125 33.484375 C 14.753906 33.484375 15.957031 33.6875 16.105469 35.1875 C 16.105469 35.335938 16.207031 35.386719 16.355469 35.386719 C 16.355469 35.386719 16.355469 35.386719 16.40625 35.386719 C 16.554688 35.386719 16.65625 35.238281 16.605469 35.136719 C 16.457031 33.886719 15.707031 33.335938 15.203125 33.136719 L 21.257812 29.585938 C 21.257812 29.585938 21.308594 29.585938 21.308594 29.585938 C 21.355469 29.585938 21.355469 29.535156 21.40625 29.535156 L 26.359375 26.582031 C 26.660156 26.882812 26.910156 27.234375 27.160156 27.632812 C 27.460938 28.085938 27.660156 28.535156 27.859375 28.984375 L 16.253906 36.035156 C 16.207031 36.035156 16.207031 36.085938 16.207031 36.085938 C 15.855469 36.238281 15.457031 36.136719 15.253906 36.035156 Z M 26.910156 30.035156 C 26.910156 30.085938 26.957031 30.085938 26.957031 30.136719 C 27.507812 30.683594 27.910156 30.984375 28.410156 31.234375 C 28.410156 31.535156 28.410156 31.785156 28.410156 32.085938 C 28.410156 32.136719 28.359375 32.136719 28.359375 32.1875 C 27.710938 32.035156 26.859375 31.484375 25.957031 30.636719 Z M 25.558594 30.886719 C 26.257812 31.585938 27.210938 32.386719 28.109375 32.636719 C 28.058594 32.6875 28.007812 32.734375 27.960938 32.785156 C 27.007812 33.035156 25.957031 32.535156 24.707031 31.386719 Z M 24.308594 31.636719 C 25.308594 32.6875 26.257812 33.234375 27.160156 33.335938 C 26.007812 33.785156 24.65625 33.386719 23.457031 32.1875 Z M 27.359375 29.785156 L 28.007812 29.382812 C 28.160156 29.785156 28.257812 30.234375 28.359375 30.636719 C 28.007812 30.433594 27.710938 30.183594 27.359375 29.785156 Z M 22.65625 32.6875 L 23.058594 32.4375 C 24.109375 33.484375 25.207031 34.035156 26.257812 34.035156 C 26.808594 34.035156 27.359375 33.886719 27.808594 33.585938 C 27.859375 33.535156 27.910156 33.484375 27.960938 33.484375 C 27.808594 33.734375 27.558594 33.984375 27.308594 34.136719 C 26.109375 34.886719 24.257812 34.285156 22.65625 32.6875 Z M 39.714844 24.632812 C 39.5625 25.332031 39.214844 25.832031 38.710938 26.183594 L 28.710938 33.1875 C 28.757812 33.035156 28.808594 32.886719 28.859375 32.6875 C 28.910156 32.535156 28.910156 32.386719 28.960938 32.1875 C 28.960938 32.136719 28.960938 32.136719 28.960938 32.085938 C 29.109375 30.636719 28.609375 28.835938 27.558594 27.234375 C 26.507812 25.632812 25.160156 24.433594 23.808594 23.933594 C 23.808594 23.933594 23.808594 23.933594 23.757812 23.933594 C 23.707031 23.933594 23.707031 23.933594 23.65625 23.933594 C 23.257812 23.78125 22.90625 23.734375 22.558594 23.683594 L 32.160156 18.429688 C 32.210938 18.429688 32.261719 18.480469 32.3125 18.480469 C 32.3125 18.480469 34.160156 18.230469 35.113281 19.179688 C 35.160156 19.230469 35.210938 19.230469 35.261719 19.230469 C 35.3125 19.230469 35.410156 19.179688 35.460938 19.132812 C 35.5625 19.03125 35.5625 18.882812 35.460938 18.78125 C 34.761719 18.132812 33.761719 17.980469 33.0625 17.929688 L 33.359375 17.78125 C 34.863281 16.929688 37.261719 18.03125 38.710938 20.332031 C 39.613281 21.730469 40.011719 23.382812 39.714844 24.632812 Z M 39.714844 24.632812 " fill-opacity="1" fill-rule="nonzero"/></g><path fill="#ffffff" d="M 19.40625 33.585938 C 19.457031 33.585938 19.507812 33.585938 19.554688 33.535156 L 26.707031 29.234375 C 26.808594 29.183594 26.859375 29.035156 26.808594 28.882812 C 26.757812 28.785156 26.609375 28.734375 26.457031 28.785156 L 19.304688 33.085938 C 19.207031 33.136719 19.15625 33.285156 19.207031 33.4375 C 19.257812 33.535156 19.304688 33.585938 19.40625 33.585938 Z M 19.40625 33.585938 " fill-opacity="1" fill-rule="nonzero"/><path fill="#ffffff" d="M 17.605469 34.6875 C 17.65625 34.6875 17.707031 34.6875 17.757812 34.636719 L 18.957031 33.886719 C 19.054688 33.835938 19.105469 33.6875 19.054688 33.535156 C 19.007812 33.4375 18.855469 33.386719 18.707031 33.4375 L 17.503906 34.1875 C 17.40625 34.234375 17.355469 34.386719 17.40625 34.535156 C 17.457031 34.636719 17.554688 34.6875 17.605469 34.6875 Z M 17.605469 34.6875 " fill-opacity="1" fill-rule="nonzero"/><path fill="#ffffff" d="M 6.453125 1.726562 C 6.453125 1.726562 8.152344 1.574219 9.101562 1.777344 C 9.101562 1.777344 9.152344 1.777344 9.152344 1.777344 C 9.253906 1.777344 9.351562 1.675781 9.402344 1.574219 C 9.453125 1.425781 9.351562 1.324219 9.203125 1.277344 C 8.152344 1.074219 6.503906 1.226562 6.402344 1.226562 C 6.253906 1.226562 6.152344 1.375 6.152344 1.476562 C 6.203125 1.625 6.300781 1.777344 6.453125 1.726562 Z M 6.453125 1.726562 " fill-opacity="1" fill-rule="nonzero"/><path fill="#ffffff" d="M 9.703125 1.824219 L 10.652344 2.027344 C 10.652344 2.027344 10.703125 2.027344 10.703125 2.027344 C 10.804688 2.027344 10.902344 1.925781 10.953125 1.824219 C 11.003906 1.675781 10.902344 1.574219 10.753906 1.527344 L 9.804688 1.324219 C 9.652344 1.277344 9.554688 1.375 9.503906 1.527344 C 9.453125 1.675781 9.554688 1.777344 9.703125 1.824219 Z M 9.703125 1.824219 " fill-opacity="1" fill-rule="nonzero"/><path fill="#ffffff" d="M 7.253906 6.328125 C 5.703125 6.027344 4.25 5.226562 4.203125 5.226562 C 4.101562 5.175781 3.953125 5.226562 3.851562 5.328125 C 3.800781 5.425781 3.851562 5.578125 3.953125 5.675781 C 4 5.726562 5.5 6.527344 7.101562 6.828125 C 7.101562 6.828125 7.152344 6.828125 7.152344 6.828125 C 7.253906 6.828125 7.351562 6.726562 7.402344 6.628906 C 7.453125 6.527344 7.351562 6.378906 7.253906 6.328125 Z M 7.253906 6.328125 " fill-opacity="1" fill-rule="nonzero"/><path fill="#ffffff" d="M 8.652344 6.527344 C 8.304688 6.476562 8.050781 6.425781 8.050781 6.425781 C 7.902344 6.425781 7.800781 6.527344 7.753906 6.628906 C 7.703125 6.726562 7.851562 6.878906 7.953125 6.925781 C 7.953125 6.925781 8.203125 6.976562 8.503906 7.027344 C 8.503906 7.027344 8.554688 7.027344 8.554688 7.027344 C 8.652344 7.027344 8.753906 6.925781 8.804688 6.828125 C 8.902344 6.675781 8.804688 6.578125 8.652344 6.527344 Z M 8.652344 6.527344 " fill-opacity="1" fill-rule="nonzero"/><path fill="#ffffff" d="M 3.953125 7.675781 C 4 7.726562 5.5 8.527344 7.101562 8.828125 C 7.101562 8.828125 7.152344 8.828125 7.152344 8.828125 C 7.253906 8.828125 7.351562 8.726562 7.402344 8.628906 C 7.453125 8.476562 7.351562 8.378906 7.203125 8.328125 C 5.652344 8.027344 4.203125 7.226562 4.152344 7.226562 C 4.050781 7.175781 3.902344 7.226562 3.800781 7.328125 C 3.800781 7.425781 3.851562 7.578125 3.953125 7.675781 Z M 3.953125 7.675781 " fill-opacity="1" fill-rule="nonzero"/><path fill="#ffffff" d="M 8.003906 8.929688 C 8.003906 8.929688 8.253906 8.976562 8.554688 9.027344 C 8.554688 9.027344 8.601562 9.027344 8.601562 9.027344 C 8.703125 9.027344 8.804688 8.929688 8.851562 8.828125 C 8.902344 8.679688 8.804688 8.578125 8.652344 8.527344 C 8.304688 8.476562 8.050781 8.429688 8.050781 8.429688 C 7.902344 8.429688 7.800781 8.527344 7.753906 8.628906 C 7.703125 8.726562 7.851562 8.929688 8.003906 8.929688 Z M 8.003906 8.929688 " fill-opacity="1" fill-rule="nonzero"/><path fill="#ffffff" d="M 3.953125 9.476562 C 4 9.527344 5.5 10.328125 7.101562 10.628906 C 7.101562 10.628906 7.152344 10.628906 7.152344 10.628906 C 7.253906 10.628906 7.351562 10.527344 7.402344 10.429688 C 7.453125 10.277344 7.351562 10.179688 7.203125 10.128906 C 5.652344 9.828125 4.203125 9.027344 4.152344 9.027344 C 4.050781 8.976562 3.902344 9.027344 3.800781 9.128906 C 3.800781 9.277344 3.851562 9.429688 3.953125 9.476562 Z M 3.953125 9.476562 " fill-opacity="1" fill-rule="nonzero"/><path fill="#ffffff" d="M 8.003906 10.777344 C 8.003906 10.777344 8.253906 10.828125 8.554688 10.878906 C 8.554688 10.878906 8.601562 10.878906 8.601562 10.878906 C 8.703125 10.878906 8.804688 10.777344 8.851562 10.679688 C 8.902344 10.527344 8.804688 10.429688 8.652344 10.378906 C 8.304688 10.328125 8.050781 10.277344 8.050781 10.277344 C 7.902344 10.277344 7.800781 10.378906 7.753906 10.476562 C 7.753906 10.628906 7.851562 10.730469 8.003906 10.777344 Z M 8.003906 10.777344 " fill-opacity="1" fill-rule="nonzero"/><path fill="#ffffff" d="M 8.652344 4.328125 C 8.652344 4.328125 6.902344 4.527344 6.101562 4.078125 C 6.003906 4.027344 5.851562 4.027344 5.75 4.175781 C 5.703125 4.277344 5.703125 4.425781 5.851562 4.527344 C 6.351562 4.828125 7.203125 4.875 7.851562 4.875 C 8.304688 4.875 8.652344 4.828125 8.703125 4.828125 C 8.851562 4.828125 8.953125 4.675781 8.902344 4.527344 C 8.902344 4.425781 8.804688 4.328125 8.652344 4.328125 Z M 8.652344 4.328125 " fill-opacity="1" fill-rule="nonzero"/><path fill="#ffffff" d="M 5.402344 3.925781 L 4.851562 3.578125 C 4.75 3.527344 4.601562 3.527344 4.5 3.675781 C 4.453125 3.777344 4.453125 3.925781 4.601562 4.027344 L 5.152344 4.375 C 5.203125 4.375 5.25 4.425781 5.300781 4.425781 C 5.402344 4.425781 5.453125 4.375 5.5 4.328125 C 5.550781 4.175781 5.5 4.027344 5.402344 3.925781 Z M 5.402344 3.925781 " fill-opacity="1" fill-rule="nonzero"/><path fill="#ffffff" d="M 35.3125 27.433594 L 31.859375 29.785156 C 31.761719 29.886719 31.710938 30.035156 31.808594 30.136719 C 31.859375 30.183594 31.960938 30.234375 32.011719 30.234375 C 32.0625 30.234375 32.109375 30.234375 32.160156 30.183594 L 35.613281 27.835938 C 35.710938 27.734375 35.761719 27.585938 35.660156 27.484375 C 35.613281 27.382812 35.460938 27.382812 35.3125 27.433594 Z M 35.3125 27.433594 " fill-opacity="1" fill-rule="nonzero"/><path fill="#ffffff" d="M 31.109375 30.386719 L 30.160156 31.035156 C 30.058594 31.136719 30.011719 31.285156 30.109375 31.386719 C 30.160156 31.433594 30.261719 31.484375 30.308594 31.484375 C 30.359375 31.484375 30.410156 31.484375 30.460938 31.433594 L 31.410156 30.785156 C 31.511719 30.683594 31.558594 30.535156 31.460938 30.433594 C 31.359375 30.335938 31.210938 30.285156 31.109375 30.386719 Z M 31.109375 30.386719 " fill-opacity="1" fill-rule="nonzero"/><path fill="#ffffff" d="M 36.363281 25.183594 L 30.910156 28.683594 C 30.808594 28.734375 30.761719 28.933594 30.808594 29.035156 C 30.859375 29.085938 30.960938 29.132812 31.011719 29.132812 C 31.058594 29.132812 31.109375 29.132812 31.160156 29.085938 L 36.613281 25.582031 C 36.710938 25.535156 36.761719 25.332031 36.710938 25.234375 C 36.613281 25.132812 36.460938 25.082031 36.363281 25.183594 Z M 36.363281 25.183594 " fill-opacity="1" fill-rule="nonzero"/><path fill="#ffffff" d="M 30.308594 29.183594 C 30.210938 29.085938 30.058594 29.035156 29.960938 29.132812 L 29.308594 29.636719 C 29.210938 29.734375 29.160156 29.886719 29.257812 29.984375 C 29.308594 30.035156 29.410156 30.085938 29.460938 30.085938 C 29.507812 30.085938 29.558594 30.085938 29.609375 30.035156 L 30.261719 29.535156 C 30.359375 29.433594 30.410156 29.285156 30.308594 29.183594 Z M 30.308594 29.183594 " fill-opacity="1" fill-rule="nonzero"/><path fill="#ffffff" d="M 35.960938 19.230469 C 35.863281 19.132812 35.710938 19.132812 35.613281 19.230469 C 35.511719 19.332031 35.511719 19.480469 35.613281 19.582031 C 35.910156 19.882812 36.363281 20.332031 36.410156 20.433594 C 36.460938 20.53125 36.5625 20.53125 36.613281 20.53125 C 36.664062 20.53125 36.710938 20.53125 36.761719 20.480469 C 36.863281 20.433594 36.914062 20.28125 36.863281 20.132812 C 36.761719 19.980469 36.113281 19.332031 35.960938 19.230469 Z M 35.960938 19.230469 " fill-opacity="1" fill-rule="nonzero"/><path fill="#ffffff" d="M 10.804688 37.886719 C 10.855469 37.886719 10.902344 37.886719 10.953125 37.835938 L 14.753906 35.285156 C 14.855469 35.1875 14.90625 35.035156 14.804688 34.9375 C 14.703125 34.835938 14.554688 34.785156 14.453125 34.886719 L 10.652344 37.4375 C 10.554688 37.539062 10.503906 37.6875 10.601562 37.789062 C 10.652344 37.886719 10.753906 37.886719 10.804688 37.886719 Z M 10.804688 37.886719 " fill-opacity="1" fill-rule="nonzero"/><path fill="#ffffff" d="M 9.703125 38.585938 C 9.753906 38.585938 9.804688 38.585938 9.851562 38.539062 L 10.351562 38.238281 C 10.453125 38.1875 10.503906 38.039062 10.453125 37.886719 C 10.402344 37.789062 10.253906 37.738281 10.101562 37.789062 L 9.601562 38.085938 C 9.503906 38.136719 9.453125 38.289062 9.503906 38.4375 C 9.554688 38.585938 9.652344 38.585938 9.703125 38.585938 Z M 9.703125 38.585938 " fill-opacity="1" fill-rule="nonzero"/></svg>