<svg xmlns="http://www.w3.org/2000/svg" xmlns:xlink="http://www.w3.org/1999/xlink" width="50" zoomAndPan="magnify" viewBox="0 0 37.5 37.499999" height="50" preserveAspectRatio="xMidYMid meet" version="1.0"><defs><clipPath id="49a2cdeec1"><path d="M 9.765625 0 L 27.527344 0 L 27.527344 37 L 9.765625 37 Z M 9.765625 0 " clip-rule="nonzero"/></clipPath></defs><g clip-path="url(#49a2cdeec1)"><path fill="#ffffff" d="M 23.429688 6.144531 L 27.527344 6.144531 L 27.527344 0.0664062 L 22.296875 0.0664062 L 22.296875 0.0898438 C 15.414062 0.339844 13.996094 4.128906 13.878906 8.136719 L 13.863281 8.136719 L 13.863281 12.355469 L 9.765625 12.355469 L 9.765625 18.441406 L 13.863281 18.441406 L 13.863281 36.9375 L 21.214844 36.9375 L 21.214844 18.441406 L 26.488281 18.441406 L 27.527344 12.355469 L 21.214844 12.355469 L 21.214844 8.582031 C 21.214844 7.238281 22.128906 6.144531 23.429688 6.144531 Z M 23.429688 6.144531 " fill-opacity="1" fill-rule="nonzero"/></g></svg>