<svg xmlns="http://www.w3.org/2000/svg" xmlns:xlink="http://www.w3.org/1999/xlink" width="50" zoomAndPan="magnify" viewBox="0 0 37.5 37.499999" height="50" preserveAspectRatio="xMidYMid meet" version="1.0"><defs><g/><clipPath id="2d62aaf361"><path d="M 0 3.699219 L 37 3.699219 L 37 33.304688 L 0 33.304688 Z M 0 3.699219 " clip-rule="nonzero"/></clipPath></defs><g clip-path="url(#2d62aaf361)"><path fill="#ff3131" d="M 34.984375 12.847656 C 34.957031 12.632812 34.765625 12.484375 34.546875 12.511719 L 28.476562 13.292969 L 18.152344 6.53125 C 18.28125 6.273438 18.355469 5.984375 18.355469 5.679688 C 18.355469 4.601562 17.476562 3.722656 16.398438 3.722656 C 15.320312 3.722656 14.441406 4.601562 14.441406 5.679688 C 14.441406 6.113281 14.585938 6.511719 14.828125 6.839844 L 6.441406 16.144531 L 0.371094 16.929688 C 0.15625 16.957031 0.00390625 17.152344 0.03125 17.367188 L 2.039062 32.902344 C 2.054688 33.003906 2.105469 33.097656 2.191406 33.160156 C 2.257812 33.214844 2.34375 33.242188 2.429688 33.242188 C 2.445312 33.242188 2.460938 33.242188 2.476562 33.238281 L 36.65625 28.820312 C 36.757812 28.804688 36.851562 28.753906 36.914062 28.671875 C 36.980469 28.589844 37.007812 28.484375 36.996094 28.382812 Z M 16.398438 4.503906 C 17.046875 4.503906 17.574219 5.03125 17.574219 5.679688 C 17.574219 6.328125 17.046875 6.855469 16.398438 6.855469 C 15.75 6.855469 15.222656 6.328125 15.222656 5.679688 C 15.222656 5.03125 15.75 4.503906 16.398438 4.503906 Z M 15.414062 7.359375 C 15.703125 7.53125 16.039062 7.636719 16.398438 7.636719 C 16.890625 7.636719 17.332031 7.449219 17.675781 7.152344 L 27.285156 13.449219 L 7.632812 15.988281 Z M 2.765625 32.414062 L 0.859375 17.65625 L 34.257812 13.335938 L 36.167969 28.09375 Z M 2.765625 32.414062 " fill-opacity="1" fill-rule="nonzero"/></g><g fill="#ff3131" fill-opacity="1"><g transform="translate(3.059115, 27.894088)"><g><path d="M 1.421875 -0.1875 L 0.78125 -0.09375 L 0.0625 -5.71875 L 3.203125 -6.125 L 3.28125 -5.546875 L 0.78125 -5.234375 L 1.046875 -3.171875 L 3.390625 -3.46875 L 3.453125 -2.890625 L 1.109375 -2.59375 Z M 1.421875 -0.1875 "/></g></g></g><g fill="#ff3131" fill-opacity="1"><g transform="translate(7.124207, 27.378061)"><g><path d="M 2.484375 -0.234375 C 1.847656 -0.148438 1.328125 -0.273438 0.921875 -0.609375 C 0.515625 -0.953125 0.269531 -1.460938 0.1875 -2.140625 C 0.101562 -2.816406 0.195312 -3.375 0.46875 -3.8125 C 0.75 -4.257812 1.175781 -4.519531 1.75 -4.59375 C 2.269531 -4.65625 2.707031 -4.53125 3.0625 -4.21875 C 3.425781 -3.914062 3.640625 -3.484375 3.703125 -2.921875 L 3.765625 -2.515625 L 0.84375 -2.140625 C 0.925781 -1.640625 1.101562 -1.273438 1.375 -1.046875 C 1.644531 -0.828125 1.992188 -0.742188 2.421875 -0.796875 C 2.867188 -0.859375 3.304688 -1.007812 3.734375 -1.25 L 3.796875 -0.6875 C 3.585938 -0.550781 3.382812 -0.445312 3.1875 -0.375 C 3 -0.3125 2.765625 -0.265625 2.484375 -0.234375 Z M 1.8125 -4.0625 C 1.46875 -4.007812 1.207031 -3.859375 1.03125 -3.609375 C 0.863281 -3.367188 0.785156 -3.050781 0.796875 -2.65625 L 3.015625 -2.9375 C 2.960938 -3.332031 2.832031 -3.628906 2.625 -3.828125 C 2.414062 -4.023438 2.144531 -4.101562 1.8125 -4.0625 Z M 1.8125 -4.0625 "/></g></g></g><g fill="#ff3131" fill-opacity="1"><g transform="translate(11.543119, 26.81712)"><g><path d="M 2.390625 -0.21875 C 1.765625 -0.144531 1.257812 -0.273438 0.875 -0.609375 C 0.5 -0.941406 0.269531 -1.453125 0.1875 -2.140625 C 0.09375 -2.847656 0.1875 -3.414062 0.46875 -3.84375 C 0.757812 -4.269531 1.222656 -4.523438 1.859375 -4.609375 C 2.066406 -4.628906 2.269531 -4.628906 2.46875 -4.609375 C 2.675781 -4.597656 2.84375 -4.566406 2.96875 -4.515625 L 2.84375 -3.953125 C 2.695312 -3.992188 2.539062 -4.019531 2.375 -4.03125 C 2.207031 -4.050781 2.054688 -4.050781 1.921875 -4.03125 C 1.054688 -3.925781 0.691406 -3.328125 0.828125 -2.234375 C 0.890625 -1.710938 1.046875 -1.328125 1.296875 -1.078125 C 1.546875 -0.828125 1.878906 -0.726562 2.296875 -0.78125 C 2.648438 -0.820312 2.992188 -0.945312 3.328125 -1.15625 L 3.40625 -0.578125 C 3.144531 -0.390625 2.804688 -0.269531 2.390625 -0.21875 Z M 2.390625 -0.21875 "/></g></g></g><g fill="#ff3131" fill-opacity="1"><g transform="translate(15.292848, 26.341125)"><g><path d="M 3.5625 -0.453125 L 3.21875 -3.1875 C 3.175781 -3.53125 3.066406 -3.773438 2.890625 -3.921875 C 2.710938 -4.066406 2.460938 -4.117188 2.140625 -4.078125 C 1.691406 -4.023438 1.375 -3.863281 1.1875 -3.59375 C 1.007812 -3.332031 0.957031 -2.925781 1.03125 -2.375 L 1.3125 -0.171875 L 0.6875 -0.09375 L -0.078125 -6.09375 L 0.546875 -6.171875 L 0.78125 -4.359375 C 0.8125 -4.140625 0.820312 -3.953125 0.8125 -3.796875 L 0.84375 -3.8125 C 0.957031 -4.019531 1.125 -4.195312 1.34375 -4.34375 C 1.5625 -4.5 1.816406 -4.597656 2.109375 -4.640625 C 2.617188 -4.703125 3.019531 -4.625 3.3125 -4.40625 C 3.601562 -4.1875 3.785156 -3.816406 3.859375 -3.296875 L 4.203125 -0.53125 Z M 3.5625 -0.453125 "/></g></g></g><g fill="#ff3131" fill-opacity="1"><g transform="translate(20.127115, 25.727458)"><g><path d="M 3.265625 -0.421875 L 3.0625 -1.015625 L 3.03125 -1 C 2.863281 -0.707031 2.679688 -0.5 2.484375 -0.375 C 2.285156 -0.257812 2.03125 -0.179688 1.71875 -0.140625 C 1.289062 -0.0859375 0.941406 -0.15625 0.671875 -0.34375 C 0.410156 -0.53125 0.257812 -0.816406 0.21875 -1.203125 C 0.101562 -2.066406 0.726562 -2.609375 2.09375 -2.828125 L 2.796875 -2.921875 L 2.765625 -3.1875 C 2.722656 -3.507812 2.617188 -3.742188 2.453125 -3.890625 C 2.296875 -4.035156 2.0625 -4.085938 1.75 -4.046875 C 1.394531 -4.003906 1.007812 -3.84375 0.59375 -3.5625 L 0.34375 -4.046875 C 0.53125 -4.171875 0.742188 -4.28125 0.984375 -4.375 C 1.222656 -4.476562 1.46875 -4.546875 1.71875 -4.578125 C 2.21875 -4.648438 2.601562 -4.585938 2.875 -4.390625 C 3.15625 -4.191406 3.328125 -3.847656 3.390625 -3.359375 L 3.75 -0.46875 Z M 1.765625 -0.6875 C 2.171875 -0.738281 2.472656 -0.882812 2.671875 -1.125 C 2.867188 -1.363281 2.941406 -1.679688 2.890625 -2.078125 L 2.84375 -2.46875 L 2.203125 -2.359375 C 1.703125 -2.273438 1.347656 -2.144531 1.140625 -1.96875 C 0.929688 -1.800781 0.847656 -1.570312 0.890625 -1.28125 C 0.910156 -1.050781 1 -0.882812 1.15625 -0.78125 C 1.3125 -0.6875 1.515625 -0.65625 1.765625 -0.6875 Z M 1.765625 -0.6875 "/></g></g></g><g fill="#ff3131" fill-opacity="1"><g transform="translate(24.507569, 25.171399)"><g><path d="M 3.46875 -1.03125 L 3.4375 -1.03125 C 3.195312 -0.550781 2.785156 -0.273438 2.203125 -0.203125 C 1.648438 -0.128906 1.195312 -0.257812 0.84375 -0.59375 C 0.488281 -0.9375 0.269531 -1.457031 0.1875 -2.15625 C 0.09375 -2.851562 0.171875 -3.410156 0.421875 -3.828125 C 0.679688 -4.253906 1.085938 -4.503906 1.640625 -4.578125 C 2.210938 -4.648438 2.675781 -4.492188 3.03125 -4.109375 L 3.09375 -4.125 L 3.03125 -4.4375 L 2.96875 -4.734375 L 2.75 -6.453125 L 3.390625 -6.53125 L 4.15625 -0.53125 L 3.640625 -0.46875 Z M 2.21875 -0.765625 C 2.644531 -0.816406 2.941406 -0.972656 3.109375 -1.234375 C 3.273438 -1.492188 3.328125 -1.890625 3.265625 -2.421875 L 3.25 -2.546875 C 3.175781 -3.140625 3.019531 -3.550781 2.78125 -3.78125 C 2.550781 -4.019531 2.21875 -4.109375 1.78125 -4.046875 C 1.40625 -4.003906 1.132812 -3.820312 0.96875 -3.5 C 0.8125 -3.1875 0.765625 -2.765625 0.828125 -2.234375 C 0.898438 -1.691406 1.050781 -1.296875 1.28125 -1.046875 C 1.519531 -0.804688 1.832031 -0.710938 2.21875 -0.765625 Z M 2.21875 -0.765625 "/></g></g></g><g fill="#ff3131" fill-opacity="1"><g transform="translate(29.334144, 24.558708)"><g><path d="M 4.0625 -2.65625 C 4.144531 -1.96875 4.035156 -1.410156 3.734375 -0.984375 C 3.441406 -0.554688 2.992188 -0.300781 2.390625 -0.21875 C 2.003906 -0.175781 1.648438 -0.222656 1.328125 -0.359375 C 1.015625 -0.492188 0.757812 -0.71875 0.5625 -1.03125 C 0.363281 -1.34375 0.238281 -1.722656 0.1875 -2.171875 C 0.09375 -2.859375 0.191406 -3.414062 0.484375 -3.84375 C 0.773438 -4.269531 1.226562 -4.519531 1.84375 -4.59375 C 2.4375 -4.675781 2.929688 -4.539062 3.328125 -4.1875 C 3.734375 -3.832031 3.976562 -3.320312 4.0625 -2.65625 Z M 0.828125 -2.25 C 0.890625 -1.707031 1.046875 -1.3125 1.296875 -1.0625 C 1.554688 -0.8125 1.898438 -0.710938 2.328125 -0.765625 C 2.734375 -0.816406 3.023438 -0.992188 3.203125 -1.296875 C 3.390625 -1.609375 3.453125 -2.035156 3.390625 -2.578125 C 3.316406 -3.117188 3.15625 -3.507812 2.90625 -3.75 C 2.65625 -4 2.320312 -4.097656 1.90625 -4.046875 C 1.488281 -3.992188 1.1875 -3.816406 1 -3.515625 C 0.8125 -3.210938 0.753906 -2.789062 0.828125 -2.25 Z M 0.828125 -2.25 "/></g></g></g></svg>