<svg xmlns="http://www.w3.org/2000/svg" xmlns:xlink="http://www.w3.org/1999/xlink" width="50" zoomAndPan="magnify" viewBox="0 0 37.5 37.499999" height="50" preserveAspectRatio="xMidYMid meet" version="1.0"><defs><clipPath id="4b8a9e2a15"><path d="M 0 6.59375 L 37 6.59375 L 37 30.277344 L 0 30.277344 Z M 0 6.59375 " clip-rule="nonzero"/></clipPath><clipPath id="9853e61fac"><path d="M 0 8 L 37 8 L 37 30.277344 L 0 30.277344 Z M 0 8 " clip-rule="nonzero"/></clipPath><clipPath id="1b3b48f70a"><path d="M 0 6.59375 L 37 6.59375 L 37 28 L 0 28 Z M 0 6.59375 " clip-rule="nonzero"/></clipPath></defs><g clip-path="url(#4b8a9e2a15)"><path fill="#282a29" d="M 36.984375 25.710938 C 36.984375 25.703125 36.984375 25.695312 36.984375 25.695312 C 36.976562 25.402344 36.875 25.117188 36.675781 24.835938 C 36.472656 24.566406 36.179688 24.316406 35.785156 24.085938 C 35.410156 23.867188 34.980469 23.703125 34.523438 23.59375 C 34.066406 23.484375 33.589844 23.425781 33.109375 23.425781 C 32.636719 23.425781 32.164062 23.476562 31.707031 23.578125 C 31.589844 23.609375 31.46875 23.636719 31.359375 23.675781 L 31.359375 22.441406 C 31.359375 22.441406 31.359375 22.433594 31.359375 22.433594 C 31.359375 22.285156 31.328125 22.132812 31.261719 21.984375 C 31.109375 21.632812 30.761719 21.308594 30.199219 20.984375 L 28.46875 19.992188 C 28.429688 19.96875 28.394531 19.96875 28.359375 19.992188 L 25.851562 21.441406 L 26.089844 21.109375 C 26.101562 21.09375 26.109375 21.070312 26.109375 21.050781 L 26.117188 18.710938 C 26.117188 18.703125 26.117188 18.703125 26.117188 18.695312 C 26.117188 18.695312 26.117188 18.691406 26.117188 18.691406 C 26.117188 18.691406 26.117188 18.691406 26.117188 18.683594 C 26.117188 18.667969 26.109375 18.660156 26.101562 18.644531 C 26.09375 18.636719 26.089844 18.625 26.074219 18.617188 L 24.632812 17.792969 C 24.609375 17.777344 24.578125 17.777344 24.550781 17.777344 L 22.230469 18.335938 L 22.238281 16.476562 C 22.238281 16.46875 22.230469 16.453125 22.230469 16.445312 C 22.230469 16.441406 22.230469 16.433594 22.222656 16.425781 C 22.214844 16.410156 22.199219 16.394531 22.183594 16.386719 L 20.722656 15.542969 C 20.683594 15.519531 20.648438 15.519531 20.609375 15.542969 L 19.5 16.183594 L 19.5 14.910156 C 19.5 14.902344 19.492188 14.886719 19.492188 14.878906 C 19.492188 14.875 19.492188 14.867188 19.488281 14.859375 C 19.480469 14.84375 19.464844 14.828125 19.449219 14.820312 L 17.976562 13.976562 C 17.941406 13.953125 17.90625 13.953125 17.867188 13.976562 L 17.03125 14.460938 L 17.03125 13.925781 C 17.03125 13.925781 17.03125 13.917969 17.03125 13.917969 C 17.03125 13.917969 17.03125 13.910156 17.03125 13.910156 C 17.011719 13.761719 16.898438 13.570312 16.691406 13.328125 C 16.5 13.09375 16.195312 12.859375 15.789062 12.625 C 15.414062 12.410156 14.984375 12.242188 14.519531 12.125 C 14.054688 12.003906 13.574219 11.941406 13.078125 11.933594 C 12.820312 11.925781 12.566406 11.941406 12.316406 11.960938 L 12.316406 10.808594 C 12.316406 10.800781 12.308594 10.785156 12.308594 10.777344 C 12.308594 10.769531 12.308594 10.761719 12.300781 10.753906 C 12.292969 10.742188 12.277344 10.726562 12.265625 10.71875 L 8.898438 8.785156 C 8.863281 8.761719 8.828125 8.761719 8.789062 8.785156 L 8.324219 9.058594 L 8.324219 8.519531 C 8.324219 8.511719 8.316406 8.5 8.316406 8.492188 C 8.316406 8.484375 8.316406 8.476562 8.308594 8.46875 C 8.300781 8.453125 8.285156 8.441406 8.273438 8.433594 L 5.175781 6.617188 C 5.136719 6.59375 5.101562 6.59375 5.0625 6.617188 L 0.0820312 9.5 C 0.0742188 9.503906 0.0664062 9.511719 0.0585938 9.519531 C 0.0507812 9.527344 0.0429688 9.535156 0.0351562 9.542969 C 0.0273438 9.550781 0.0273438 9.566406 0.0273438 9.570312 C 0.0273438 9.578125 0.0234375 9.585938 0.0234375 9.59375 L 0.0234375 11.933594 C 0.0234375 11.96875 0.0429688 12.003906 0.0742188 12.027344 L 1.542969 12.875 C 1.558594 12.878906 1.582031 12.886719 1.597656 12.886719 C 1.617188 12.886719 1.632812 12.878906 1.648438 12.875 L 3.46875 11.820312 L 3.753906 11.984375 L 3.746094 14.066406 C 3.746094 14.101562 3.769531 14.136719 3.800781 14.160156 L 7.164062 16.09375 C 7.179688 16.101562 7.199219 16.109375 7.214844 16.109375 C 7.238281 16.109375 7.25 16.101562 7.265625 16.09375 L 8.539062 15.359375 C 8.566406 15.335938 8.589844 15.308594 8.589844 15.261719 L 8.589844 14.742188 L 9.039062 15 C 9.054688 15.003906 9.078125 15.011719 9.09375 15.011719 C 9.113281 15.011719 9.128906 15.003906 9.144531 15 L 9.242188 14.941406 L 9.234375 16.378906 C 9.234375 16.417969 9.234375 16.453125 9.242188 16.492188 C 9.261719 16.792969 9.386719 17.085938 9.601562 17.359375 C 9.816406 17.628906 10.113281 17.878906 10.488281 18.101562 C 10.890625 18.328125 11.296875 18.503906 11.703125 18.617188 C 12.101562 18.726562 12.417969 18.785156 12.648438 18.800781 C 12.648438 18.800781 12.65625 18.800781 12.65625 18.800781 C 12.671875 18.800781 12.683594 18.792969 12.707031 18.785156 C 12.714844 18.785156 12.714844 18.777344 12.722656 18.777344 C 12.730469 18.777344 12.730469 18.769531 12.738281 18.769531 C 12.746094 18.761719 12.746094 18.757812 12.75 18.757812 C 12.75 18.757812 12.757812 18.75 12.757812 18.75 L 12.8125 18.652344 L 12.8125 19.269531 C 12.8125 19.308594 12.832031 19.34375 12.863281 19.367188 L 14.332031 20.210938 C 14.347656 20.21875 14.371094 20.226562 14.386719 20.226562 C 14.40625 20.226562 14.421875 20.21875 14.4375 20.210938 L 15.546875 19.570312 L 15.546875 20.84375 C 15.546875 20.882812 15.570312 20.917969 15.597656 20.941406 L 17.0625 21.785156 C 17.078125 21.792969 17.097656 21.800781 17.113281 21.800781 C 17.136719 21.800781 17.152344 21.792969 17.164062 21.785156 L 17.386719 21.660156 L 17.386719 21.910156 C 17.386719 21.945312 17.410156 21.984375 17.4375 22.007812 L 19.011719 22.910156 C 19.011719 22.910156 19.019531 22.910156 19.019531 22.910156 C 19.035156 22.917969 19.050781 22.925781 19.074219 22.925781 C 19.078125 22.925781 19.09375 22.925781 19.101562 22.925781 L 20.246094 22.625 L 21.402344 23.285156 L 21.402344 24.21875 C 21.402344 24.257812 21.421875 24.292969 21.453125 24.316406 L 23.019531 25.21875 C 23.019531 25.21875 23.027344 25.21875 23.027344 25.21875 C 23.035156 25.21875 23.035156 25.226562 23.042969 25.226562 C 23.050781 25.226562 23.066406 25.234375 23.070312 25.234375 C 23.085938 25.234375 23.109375 25.226562 23.125 25.21875 C 23.132812 25.21875 23.132812 25.210938 23.136719 25.203125 C 23.144531 25.195312 23.152344 25.191406 23.160156 25.183594 L 23.300781 24.992188 L 23.300781 25.316406 C 23.300781 25.351562 23.324219 25.386719 23.351562 25.410156 L 25.082031 26.402344 C 25.628906 26.710938 26.199219 26.917969 26.777344 27 C 27.019531 27.035156 27.257812 27.050781 27.492188 27.050781 C 27.832031 27.050781 28.164062 27.011719 28.496094 26.945312 C 28.757812 26.894531 29.015625 26.820312 29.257812 26.726562 L 29.257812 28 C 29.257812 28.285156 29.363281 28.566406 29.5625 28.835938 C 29.761719 29.109375 30.074219 29.367188 30.488281 29.601562 C 30.886719 29.828125 31.316406 30 31.78125 30.117188 C 32.230469 30.226562 32.703125 30.277344 33.175781 30.277344 C 33.183594 30.277344 33.183594 30.277344 33.191406 30.277344 C 33.664062 30.277344 34.136719 30.21875 34.582031 30.109375 C 35.03125 30 35.445312 29.828125 35.816406 29.617188 C 36.195312 29.402344 36.472656 29.152344 36.667969 28.886719 C 36.859375 28.625 36.957031 28.335938 36.957031 28.050781 Z M 36.984375 25.710938 " fill-opacity="1" fill-rule="nonzero"/></g><g clip-path="url(#9853e61fac)"><path fill="#ffc3bd" d="M 6.285156 9.386719 C 6.296875 9.394531 6.3125 9.410156 6.320312 9.425781 C 6.328125 9.433594 6.328125 9.441406 6.328125 9.445312 C 6.328125 9.453125 6.335938 9.46875 6.335938 9.476562 L 6.335938 10.167969 L 6.394531 10.128906 C 6.378906 10.117188 6.363281 10.085938 6.363281 10.058594 C 6.363281 10 6.410156 9.953125 6.46875 9.953125 C 6.511719 9.953125 6.550781 9.984375 6.5625 10.027344 L 6.835938 9.875 L 6.835938 9.269531 L 5.796875 8.675781 L 5.425781 8.460938 L 5.425781 8.886719 Z M 6.46875 9.394531 C 6.527344 9.394531 6.570312 9.441406 6.570312 9.5 C 6.570312 9.558594 6.527344 9.601562 6.46875 9.601562 C 6.410156 9.601562 6.363281 9.558594 6.363281 9.5 C 6.371094 9.441406 6.417969 9.394531 6.46875 9.394531 Z M 5.890625 8.820312 C 5.949219 8.820312 5.996094 8.867188 5.996094 8.925781 C 5.996094 8.984375 5.949219 9.027344 5.890625 9.027344 C 5.832031 9.027344 5.789062 8.984375 5.789062 8.925781 C 5.796875 8.867188 5.839844 8.820312 5.890625 8.820312 Z M 3.753906 11.726562 C 3.753906 11.71875 3.761719 11.710938 3.761719 11.703125 C 3.761719 11.695312 3.761719 11.683594 3.769531 11.675781 C 3.777344 11.667969 3.785156 11.660156 3.792969 11.652344 C 3.800781 11.644531 3.808594 11.636719 3.8125 11.628906 L 4.855469 11.027344 L 4.855469 10.269531 L 4.183594 9.886719 L 3.644531 9.578125 C 3.628906 9.59375 3.605469 9.601562 3.585938 9.601562 L 3.585938 9.976562 C 3.644531 9.976562 3.6875 10.019531 3.6875 10.078125 C 3.6875 10.136719 3.644531 10.183594 3.585938 10.183594 C 3.585938 10.183594 3.585938 10.183594 3.578125 10.183594 L 3.578125 10.558594 C 3.578125 10.558594 3.578125 10.558594 3.585938 10.558594 C 3.644531 10.558594 3.6875 10.601562 3.6875 10.660156 C 3.6875 10.71875 3.644531 10.761719 3.585938 10.761719 C 3.585938 10.761719 3.585938 10.761719 3.578125 10.761719 L 3.578125 11.136719 C 3.578125 11.136719 3.585938 11.136719 3.585938 11.136719 C 3.644531 11.136719 3.6875 11.183594 3.6875 11.242188 C 3.6875 11.300781 3.644531 11.34375 3.585938 11.34375 C 3.585938 11.34375 3.578125 11.34375 3.578125 11.34375 L 3.578125 11.660156 L 3.753906 11.761719 Z M 4.738281 10.542969 C 4.796875 10.542969 4.84375 10.585938 4.84375 10.644531 C 4.84375 10.703125 4.796875 10.75 4.738281 10.75 C 4.679688 10.75 4.636719 10.703125 4.636719 10.644531 C 4.636719 10.585938 4.6875 10.542969 4.738281 10.542969 Z M 4.160156 9.96875 C 4.222656 9.96875 4.265625 10.011719 4.265625 10.070312 C 4.265625 10.128906 4.222656 10.175781 4.160156 10.175781 C 4.101562 10.175781 4.058594 10.128906 4.058594 10.070312 C 4.058594 10.011719 4.109375 9.96875 4.160156 9.96875 Z M 4.160156 10.542969 C 4.222656 10.542969 4.265625 10.585938 4.265625 10.644531 C 4.265625 10.703125 4.222656 10.75 4.160156 10.75 C 4.101562 10.75 4.058594 10.703125 4.058594 10.644531 C 4.058594 10.585938 4.109375 10.542969 4.160156 10.542969 Z M 4.160156 11.117188 C 4.222656 11.117188 4.265625 11.160156 4.265625 11.21875 C 4.265625 11.277344 4.222656 11.320312 4.160156 11.320312 C 4.101562 11.320312 4.058594 11.277344 4.058594 11.21875 C 4.058594 11.160156 4.109375 11.117188 4.160156 11.117188 Z M 1.285156 12.46875 L 1.5 12.59375 L 1.5 10.5 L 0.796875 10.09375 C 0.789062 10.136719 0.746094 10.175781 0.703125 10.175781 C 0.644531 10.175781 0.597656 10.128906 0.597656 10.070312 C 0.597656 10.042969 0.613281 10.019531 0.628906 10 L 0.339844 9.828125 L 0.242188 9.777344 L 0.234375 11.867188 L 1.191406 12.410156 C 1.183594 12.394531 1.175781 12.378906 1.175781 12.367188 C 1.175781 12.308594 1.21875 12.261719 1.277344 12.261719 C 1.335938 12.261719 1.382812 12.308594 1.382812 12.367188 C 1.382812 12.417969 1.335938 12.460938 1.285156 12.46875 Z M 0.703125 11.894531 C 0.644531 11.894531 0.597656 11.851562 0.597656 11.792969 C 0.597656 11.734375 0.644531 11.691406 0.703125 11.691406 C 0.761719 11.691406 0.804688 11.734375 0.804688 11.792969 C 0.804688 11.851562 0.753906 11.894531 0.703125 11.894531 Z M 0.703125 11.320312 C 0.644531 11.320312 0.597656 11.277344 0.597656 11.21875 C 0.597656 11.160156 0.644531 11.117188 0.703125 11.117188 C 0.761719 11.117188 0.804688 11.160156 0.804688 11.21875 C 0.804688 11.277344 0.753906 11.320312 0.703125 11.320312 Z M 0.703125 10.75 C 0.644531 10.75 0.597656 10.703125 0.597656 10.644531 C 0.597656 10.585938 0.644531 10.542969 0.703125 10.542969 C 0.761719 10.542969 0.804688 10.585938 0.804688 10.644531 C 0.804688 10.695312 0.753906 10.75 0.703125 10.75 Z M 1.277344 10.542969 C 1.335938 10.542969 1.382812 10.585938 1.382812 10.644531 C 1.382812 10.703125 1.335938 10.75 1.277344 10.75 C 1.21875 10.75 1.175781 10.703125 1.175781 10.644531 C 1.175781 10.585938 1.21875 10.542969 1.277344 10.542969 Z M 1.277344 11.117188 C 1.335938 11.117188 1.382812 11.160156 1.382812 11.21875 C 1.382812 11.277344 1.335938 11.320312 1.277344 11.320312 C 1.21875 11.320312 1.175781 11.277344 1.175781 11.21875 C 1.175781 11.160156 1.21875 11.117188 1.277344 11.117188 Z M 1.277344 11.894531 C 1.21875 11.894531 1.175781 11.851562 1.175781 11.792969 C 1.175781 11.734375 1.21875 11.691406 1.277344 11.691406 C 1.335938 11.691406 1.382812 11.734375 1.382812 11.792969 C 1.382812 11.851562 1.332031 11.894531 1.277344 11.894531 Z M 10.511719 11.691406 C 10.570312 11.691406 10.617188 11.734375 10.617188 11.792969 C 10.617188 11.851562 10.570312 11.894531 10.511719 11.894531 C 10.488281 11.894531 10.46875 11.886719 10.453125 11.875 L 10.453125 12.292969 C 10.46875 12.277344 10.488281 12.269531 10.511719 12.269531 C 10.570312 12.269531 10.617188 12.316406 10.617188 12.375 C 10.617188 12.378906 10.617188 12.394531 10.609375 12.402344 C 10.683594 12.367188 10.757812 12.335938 10.835938 12.300781 L 10.835938 11.578125 L 10.414062 11.335938 L 9.382812 10.742188 C 9.375 10.742188 9.367188 10.75 9.359375 10.75 C 9.3125 10.75 9.277344 10.71875 9.261719 10.675781 L 9.160156 10.617188 L 9.160156 11.066406 L 9.300781 11.144531 C 9.3125 11.128906 9.335938 11.125 9.359375 11.125 C 9.417969 11.125 9.460938 11.167969 9.460938 11.226562 C 9.460938 11.234375 9.460938 11.234375 9.460938 11.242188 L 10.402344 11.777344 C 10.410156 11.777344 10.410156 11.785156 10.414062 11.792969 C 10.414062 11.734375 10.460938 11.691406 10.511719 11.691406 Z M 9.933594 11.320312 C 9.875 11.320312 9.832031 11.277344 9.832031 11.21875 C 9.832031 11.160156 9.875 11.117188 9.933594 11.117188 C 9.996094 11.117188 10.039062 11.160156 10.039062 11.21875 C 10.039062 11.277344 9.996094 11.320312 9.933594 11.320312 Z M 10.480469 12.460938 C 10.46875 12.46875 10.460938 12.476562 10.445312 12.484375 L 10.445312 12.445312 C 10.460938 12.453125 10.46875 12.460938 10.480469 12.460938 Z M 8.78125 14.566406 C 8.832031 14.566406 8.878906 14.609375 8.886719 14.660156 L 9.003906 14.726562 L 9.011719 12.636719 L 8.101562 12.117188 L 7.679688 11.875 C 7.664062 11.878906 7.644531 11.894531 7.621094 11.894531 C 7.5625 11.894531 7.519531 11.851562 7.519531 11.792969 C 7.519531 11.792969 7.519531 11.785156 7.519531 11.785156 L 7.324219 11.675781 L 7.324219 12.136719 L 7.578125 12.285156 C 7.59375 12.277344 7.605469 12.269531 7.621094 12.269531 C 7.671875 12.269531 7.71875 12.316406 7.726562 12.367188 L 8.554688 12.84375 C 8.566406 12.851562 8.582031 12.867188 8.589844 12.878906 C 8.597656 12.886719 8.597656 12.894531 8.597656 12.902344 C 8.597656 12.910156 8.605469 12.925781 8.605469 12.933594 L 8.597656 14.5 L 8.730469 14.570312 C 8.746094 14.566406 8.765625 14.566406 8.78125 14.566406 Z M 8.207031 12.46875 C 8.144531 12.46875 8.101562 12.425781 8.101562 12.367188 C 8.101562 12.308594 8.144531 12.261719 8.207031 12.261719 C 8.265625 12.261719 8.308594 12.308594 8.308594 12.367188 C 8.308594 12.425781 8.257812 12.46875 8.207031 12.46875 Z M 8.78125 13.042969 C 8.722656 13.042969 8.679688 13 8.679688 12.941406 C 8.679688 12.878906 8.722656 12.835938 8.78125 12.835938 C 8.839844 12.835938 8.886719 12.878906 8.886719 12.941406 C 8.886719 13 8.832031 13.042969 8.78125 13.042969 Z M 8.886719 13.511719 C 8.886719 13.570312 8.839844 13.617188 8.78125 13.617188 C 8.722656 13.617188 8.679688 13.570312 8.679688 13.511719 C 8.679688 13.453125 8.722656 13.410156 8.78125 13.410156 C 8.832031 13.417969 8.886719 13.460938 8.886719 13.511719 Z M 8.78125 13.992188 C 8.839844 13.992188 8.886719 14.035156 8.886719 14.09375 C 8.886719 14.152344 8.839844 14.195312 8.78125 14.195312 C 8.722656 14.195312 8.679688 14.152344 8.679688 14.09375 C 8.679688 14.035156 8.722656 13.992188 8.78125 13.992188 Z M 4.160156 13.992188 C 4.222656 13.992188 4.265625 14.035156 4.265625 14.09375 C 4.265625 14.125 4.25 14.144531 4.234375 14.167969 L 6.976562 15.742188 C 6.992188 15.726562 7.023438 15.710938 7.042969 15.710938 C 7.074219 15.710938 7.097656 15.71875 7.113281 15.742188 L 7.113281 15.316406 C 7.097656 15.328125 7.066406 15.34375 7.042969 15.34375 C 6.984375 15.34375 6.941406 15.300781 6.941406 15.242188 C 6.941406 15.183594 6.984375 15.136719 7.042969 15.136719 C 7.074219 15.136719 7.097656 15.144531 7.113281 15.167969 L 7.113281 14.742188 C 7.097656 14.753906 7.066406 14.769531 7.039062 14.769531 C 6.976562 14.769531 6.933594 14.726562 6.933594 14.667969 C 6.933594 14.609375 6.976562 14.566406 7.039062 14.566406 C 7.066406 14.566406 7.089844 14.578125 7.113281 14.59375 L 7.113281 14.160156 C 7.089844 14.183594 7.066406 14.191406 7.039062 14.191406 C 6.976562 14.191406 6.933594 14.144531 6.933594 14.085938 C 6.933594 14.027344 6.976562 13.984375 7.039062 13.984375 C 7.066406 13.984375 7.089844 14 7.113281 14.011719 L 7.113281 13.71875 L 5.914062 13.027344 C 5.90625 13.027344 5.898438 13.035156 5.882812 13.035156 C 5.839844 13.035156 5.796875 13 5.789062 12.953125 L 4.835938 12.410156 C 4.820312 12.445312 4.78125 12.46875 4.746094 12.46875 C 4.6875 12.46875 4.640625 12.425781 4.640625 12.367188 C 4.640625 12.34375 4.648438 12.328125 4.664062 12.308594 L 3.976562 11.910156 L 3.96875 14 L 4.074219 14.058594 C 4.082031 14.019531 4.117188 13.992188 4.160156 13.992188 Z M 4.160156 13.617188 C 4.101562 13.617188 4.058594 13.570312 4.058594 13.511719 C 4.058594 13.453125 4.101562 13.410156 4.160156 13.410156 C 4.222656 13.410156 4.265625 13.453125 4.265625 13.511719 C 4.265625 13.570312 4.222656 13.617188 4.160156 13.617188 Z M 4.160156 13.042969 C 4.101562 13.042969 4.058594 13 4.058594 12.941406 C 4.058594 12.878906 4.101562 12.835938 4.160156 12.835938 C 4.222656 12.835938 4.265625 12.878906 4.265625 12.941406 C 4.265625 13 4.222656 13.042969 4.160156 13.042969 Z M 4.160156 12.46875 C 4.101562 12.46875 4.058594 12.425781 4.058594 12.367188 C 4.058594 12.308594 4.101562 12.261719 4.160156 12.261719 C 4.222656 12.261719 4.265625 12.308594 4.265625 12.367188 C 4.265625 12.425781 4.222656 12.46875 4.160156 12.46875 Z M 4.738281 14.191406 C 4.679688 14.191406 4.636719 14.144531 4.636719 14.085938 C 4.636719 14.027344 4.679688 13.984375 4.738281 13.984375 C 4.796875 13.984375 4.84375 14.027344 4.84375 14.085938 C 4.84375 14.144531 4.796875 14.191406 4.738281 14.191406 Z M 4.738281 13.617188 C 4.679688 13.617188 4.636719 13.570312 4.636719 13.511719 C 4.636719 13.453125 4.679688 13.410156 4.738281 13.410156 C 4.796875 13.410156 4.84375 13.453125 4.84375 13.511719 C 4.84375 13.570312 4.796875 13.617188 4.738281 13.617188 Z M 4.738281 13.042969 C 4.679688 13.042969 4.636719 13 4.636719 12.941406 C 4.636719 12.878906 4.679688 12.835938 4.738281 12.835938 C 4.796875 12.835938 4.84375 12.878906 4.84375 12.941406 C 4.84375 13 4.796875 13.042969 4.738281 13.042969 Z M 6.46875 13.410156 C 6.527344 13.410156 6.570312 13.453125 6.570312 13.511719 C 6.570312 13.570312 6.527344 13.617188 6.46875 13.617188 C 6.410156 13.617188 6.363281 13.570312 6.363281 13.511719 C 6.371094 13.460938 6.417969 13.410156 6.46875 13.410156 Z M 6.46875 13.992188 C 6.527344 13.992188 6.570312 14.035156 6.570312 14.09375 C 6.570312 14.152344 6.527344 14.195312 6.46875 14.195312 C 6.410156 14.195312 6.363281 14.152344 6.363281 14.09375 C 6.371094 14.035156 6.417969 13.992188 6.46875 13.992188 Z M 6.46875 14.566406 C 6.527344 14.566406 6.570312 14.609375 6.570312 14.667969 C 6.570312 14.726562 6.527344 14.769531 6.46875 14.769531 C 6.410156 14.769531 6.363281 14.726562 6.363281 14.667969 C 6.371094 14.609375 6.417969 14.566406 6.46875 14.566406 Z M 6.46875 15.136719 C 6.527344 15.136719 6.570312 15.183594 6.570312 15.242188 C 6.570312 15.300781 6.527344 15.34375 6.46875 15.34375 C 6.410156 15.34375 6.363281 15.300781 6.363281 15.242188 C 6.371094 15.183594 6.417969 15.136719 6.46875 15.136719 Z M 5.890625 13.410156 C 5.949219 13.410156 5.996094 13.453125 5.996094 13.511719 C 5.996094 13.570312 5.949219 13.617188 5.890625 13.617188 C 5.832031 13.617188 5.789062 13.570312 5.789062 13.511719 C 5.796875 13.460938 5.839844 13.410156 5.890625 13.410156 Z M 5.890625 13.992188 C 5.949219 13.992188 5.996094 14.035156 5.996094 14.09375 C 5.996094 14.152344 5.949219 14.195312 5.890625 14.195312 C 5.832031 14.195312 5.789062 14.152344 5.789062 14.09375 C 5.796875 14.035156 5.839844 13.992188 5.890625 13.992188 Z M 5.890625 14.566406 C 5.949219 14.566406 5.996094 14.609375 5.996094 14.667969 C 5.996094 14.726562 5.949219 14.769531 5.890625 14.769531 C 5.832031 14.769531 5.789062 14.726562 5.789062 14.667969 C 5.796875 14.609375 5.839844 14.566406 5.890625 14.566406 Z M 5.316406 12.835938 C 5.375 12.835938 5.417969 12.878906 5.417969 12.941406 C 5.417969 13 5.375 13.042969 5.316406 13.042969 C 5.253906 13.042969 5.210938 13 5.210938 12.941406 C 5.21875 12.886719 5.261719 12.835938 5.316406 12.835938 Z M 5.316406 13.410156 C 5.375 13.410156 5.417969 13.453125 5.417969 13.511719 C 5.417969 13.570312 5.375 13.617188 5.316406 13.617188 C 5.253906 13.617188 5.210938 13.570312 5.210938 13.511719 C 5.21875 13.460938 5.261719 13.410156 5.316406 13.410156 Z M 5.316406 13.992188 C 5.375 13.992188 5.417969 14.035156 5.417969 14.09375 C 5.417969 14.152344 5.375 14.195312 5.316406 14.195312 C 5.253906 14.195312 5.210938 14.152344 5.210938 14.09375 C 5.21875 14.035156 5.261719 13.992188 5.316406 13.992188 Z M 5.316406 14.566406 C 5.375 14.566406 5.417969 14.609375 5.417969 14.667969 C 5.417969 14.726562 5.375 14.769531 5.316406 14.769531 C 5.253906 14.769531 5.210938 14.726562 5.210938 14.667969 C 5.21875 14.609375 5.261719 14.566406 5.316406 14.566406 Z M 13.3125 15.191406 C 13.328125 15.160156 13.367188 15.136719 13.402344 15.136719 C 13.460938 15.136719 13.507812 15.183594 13.507812 15.242188 C 13.507812 15.292969 13.460938 15.335938 13.410156 15.34375 L 13.410156 15.503906 C 13.511719 15.519531 13.625 15.535156 13.726562 15.566406 C 13.964844 15.625 14.214844 15.71875 14.460938 15.867188 C 14.460938 15.867188 14.46875 15.867188 14.46875 15.875 C 14.460938 15.859375 14.453125 15.84375 14.453125 15.820312 C 14.453125 15.761719 14.496094 15.71875 14.554688 15.71875 C 14.613281 15.71875 14.660156 15.761719 14.660156 15.820312 C 14.660156 15.828125 14.660156 15.828125 14.660156 15.835938 L 14.953125 15.667969 L 14.960938 14.308594 C 14.953125 14.300781 14.953125 14.292969 14.949219 14.285156 C 14.941406 14.277344 14.941406 14.269531 14.933594 14.261719 C 14.925781 14.25 14.917969 14.242188 14.910156 14.226562 C 14.902344 14.21875 14.894531 14.210938 14.894531 14.195312 C 14.886719 14.183594 14.875 14.167969 14.859375 14.144531 C 14.851562 14.136719 14.84375 14.128906 14.835938 14.117188 C 14.8125 14.085938 14.792969 14.066406 14.769531 14.035156 C 14.667969 13.917969 14.535156 13.808594 14.363281 13.710938 C 14.265625 13.652344 14.171875 13.609375 14.074219 13.566406 C 14.058594 13.601562 14.023438 13.625 13.988281 13.625 C 13.925781 13.625 13.882812 13.578125 13.882812 13.519531 C 13.882812 13.511719 13.882812 13.5 13.890625 13.492188 C 13.824219 13.46875 13.757812 13.445312 13.691406 13.433594 C 13.476562 13.378906 13.261719 13.359375 13.0625 13.367188 C 12.863281 13.375 12.679688 13.402344 12.515625 13.453125 C 12.464844 13.46875 12.410156 13.492188 12.359375 13.503906 C 12.359375 13.511719 12.359375 13.511719 12.359375 13.519531 C 12.359375 13.578125 12.316406 13.625 12.257812 13.625 C 12.226562 13.625 12.199219 13.609375 12.175781 13.585938 C 12.136719 13.601562 12.109375 13.625 12.078125 13.636719 C 11.960938 13.703125 11.855469 13.792969 11.769531 13.878906 C 11.730469 13.917969 11.710938 13.960938 11.6875 14 C 11.738281 14.003906 11.777344 14.042969 11.777344 14.09375 C 11.777344 14.152344 11.730469 14.195312 11.671875 14.195312 C 11.65625 14.195312 11.652344 14.195312 11.636719 14.191406 C 11.636719 14.269531 11.664062 14.359375 11.738281 14.453125 C 11.828125 14.570312 11.984375 14.695312 12.203125 14.828125 C 12.375 14.925781 12.566406 15.003906 12.78125 15.066406 C 12.988281 15.125 13.164062 15.167969 13.3125 15.191406 C 13.3125 15.183594 13.3125 15.183594 13.3125 15.191406 Z M 14.554688 13.992188 C 14.613281 13.992188 14.660156 14.035156 14.660156 14.09375 C 14.660156 14.152344 14.613281 14.195312 14.554688 14.195312 C 14.496094 14.195312 14.453125 14.152344 14.453125 14.09375 C 14.453125 14.035156 14.496094 13.992188 14.554688 13.992188 Z M 14.554688 14.566406 C 14.613281 14.566406 14.660156 14.609375 14.660156 14.667969 C 14.660156 14.726562 14.613281 14.769531 14.554688 14.769531 C 14.496094 14.769531 14.453125 14.726562 14.453125 14.667969 C 14.453125 14.609375 14.496094 14.566406 14.554688 14.566406 Z M 14.554688 15.136719 C 14.613281 15.136719 14.660156 15.183594 14.660156 15.242188 C 14.660156 15.300781 14.613281 15.34375 14.554688 15.34375 C 14.496094 15.34375 14.453125 15.300781 14.453125 15.242188 C 14.453125 15.183594 14.496094 15.136719 14.554688 15.136719 Z M 13.972656 13.992188 C 14.03125 13.992188 14.074219 14.035156 14.074219 14.09375 C 14.074219 14.152344 14.03125 14.195312 13.972656 14.195312 C 13.914062 14.195312 13.867188 14.152344 13.867188 14.09375 C 13.875 14.035156 13.917969 13.992188 13.972656 13.992188 Z M 13.972656 14.566406 C 14.03125 14.566406 14.074219 14.609375 14.074219 14.667969 C 14.074219 14.726562 14.03125 14.769531 13.972656 14.769531 C 13.914062 14.769531 13.867188 14.726562 13.867188 14.667969 C 13.875 14.609375 13.917969 14.566406 13.972656 14.566406 Z M 13.972656 15.136719 C 14.03125 15.136719 14.074219 15.183594 14.074219 15.242188 C 14.074219 15.300781 14.03125 15.34375 13.972656 15.34375 C 13.914062 15.34375 13.867188 15.300781 13.867188 15.242188 C 13.875 15.183594 13.917969 15.136719 13.972656 15.136719 Z M 12.242188 14.761719 C 12.183594 14.761719 12.136719 14.71875 12.136719 14.660156 C 12.136719 14.601562 12.183594 14.558594 12.242188 14.558594 C 12.300781 14.558594 12.34375 14.601562 12.34375 14.660156 C 12.34375 14.71875 12.300781 14.761719 12.242188 14.761719 Z M 12.242188 14.191406 C 12.183594 14.191406 12.136719 14.144531 12.136719 14.085938 C 12.136719 14.027344 12.183594 13.984375 12.242188 13.984375 C 12.300781 13.984375 12.34375 14.027344 12.34375 14.085938 C 12.34375 14.144531 12.300781 14.191406 12.242188 14.191406 Z M 12.820312 14.761719 C 12.757812 14.761719 12.714844 14.71875 12.714844 14.660156 C 12.714844 14.601562 12.757812 14.558594 12.820312 14.558594 C 12.878906 14.558594 12.921875 14.601562 12.921875 14.660156 C 12.921875 14.71875 12.878906 14.761719 12.820312 14.761719 Z M 12.820312 14.191406 C 12.757812 14.191406 12.714844 14.144531 12.714844 14.085938 C 12.714844 14.027344 12.757812 13.984375 12.820312 13.984375 C 12.878906 13.984375 12.921875 14.027344 12.921875 14.085938 C 12.921875 14.144531 12.878906 14.191406 12.820312 14.191406 Z M 12.820312 13.617188 C 12.757812 13.617188 12.714844 13.570312 12.714844 13.511719 C 12.714844 13.453125 12.757812 13.410156 12.820312 13.410156 C 12.878906 13.410156 12.921875 13.453125 12.921875 13.511719 C 12.921875 13.570312 12.878906 13.617188 12.820312 13.617188 Z M 13.394531 13.410156 C 13.453125 13.410156 13.5 13.453125 13.5 13.511719 C 13.5 13.570312 13.453125 13.617188 13.394531 13.617188 C 13.335938 13.617188 13.292969 13.570312 13.292969 13.511719 C 13.300781 13.460938 13.34375 13.410156 13.394531 13.410156 Z M 13.394531 13.992188 C 13.453125 13.992188 13.5 14.035156 13.5 14.09375 C 13.5 14.152344 13.453125 14.195312 13.394531 14.195312 C 13.335938 14.195312 13.292969 14.152344 13.292969 14.09375 C 13.300781 14.035156 13.34375 13.992188 13.394531 13.992188 Z M 13.394531 14.566406 C 13.453125 14.566406 13.5 14.609375 13.5 14.667969 C 13.5 14.726562 13.453125 14.769531 13.394531 14.769531 C 13.335938 14.769531 13.292969 14.726562 13.292969 14.667969 C 13.300781 14.609375 13.34375 14.566406 13.394531 14.566406 Z M 9.964844 17.441406 C 9.996094 17.445312 10.023438 17.46875 10.03125 17.503906 C 10.195312 17.660156 10.386719 17.808594 10.621094 17.941406 C 10.75 18.011719 10.867188 18.070312 10.992188 18.128906 C 10.992188 18.125 10.992188 18.125 10.992188 18.117188 C 10.992188 18.058594 11.035156 18.011719 11.097656 18.011719 C 11.15625 18.011719 11.199219 18.058594 11.199219 18.117188 C 11.199219 18.152344 11.175781 18.183594 11.148438 18.203125 C 11.363281 18.300781 11.578125 18.375 11.785156 18.433594 C 12.101562 18.519531 12.367188 18.578125 12.574219 18.601562 L 12.582031 16.476562 C 12.507812 16.46875 12.425781 16.453125 12.339844 16.441406 C 12.324219 16.476562 12.285156 16.5 12.25 16.5 C 12.199219 16.5 12.152344 16.453125 12.144531 16.402344 C 12.019531 16.375 11.878906 16.34375 11.730469 16.300781 C 11.363281 16.195312 10.984375 16.042969 10.617188 15.835938 C 10.609375 15.878906 10.5625 15.917969 10.519531 15.917969 C 10.460938 15.917969 10.414062 15.875 10.414062 15.816406 C 10.414062 15.785156 10.429688 15.753906 10.453125 15.742188 C 10.246094 15.617188 10.0625 15.484375 9.90625 15.335938 C 9.875 15.328125 9.863281 15.308594 9.847656 15.277344 C 9.765625 15.203125 9.699219 15.125 9.632812 15.042969 C 9.574219 14.96875 9.527344 14.894531 9.484375 14.820312 L 9.476562 16.402344 C 9.476562 16.433594 9.476562 16.46875 9.484375 16.5 C 9.507812 16.753906 9.609375 17.011719 9.800781 17.253906 C 9.847656 17.316406 9.898438 17.375 9.964844 17.441406 Z M 11.664062 18.210938 C 11.605469 18.210938 11.5625 18.167969 11.5625 18.109375 C 11.5625 18.050781 11.605469 18.003906 11.664062 18.003906 C 11.722656 18.003906 11.769531 18.050781 11.769531 18.109375 C 11.769531 18.167969 11.722656 18.210938 11.664062 18.210938 Z M 11.664062 17.636719 C 11.605469 17.636719 11.5625 17.59375 11.5625 17.535156 C 11.5625 17.476562 11.605469 17.433594 11.664062 17.433594 C 11.722656 17.433594 11.769531 17.476562 11.769531 17.535156 C 11.769531 17.59375 11.722656 17.636719 11.664062 17.636719 Z M 11.664062 17.066406 C 11.605469 17.066406 11.5625 17.019531 11.5625 16.960938 C 11.5625 16.902344 11.605469 16.859375 11.664062 16.859375 C 11.722656 16.859375 11.769531 16.902344 11.769531 16.960938 C 11.769531 17.019531 11.722656 17.066406 11.664062 17.066406 Z M 12.242188 18.210938 C 12.183594 18.210938 12.136719 18.167969 12.136719 18.109375 C 12.136719 18.050781 12.183594 18.003906 12.242188 18.003906 C 12.300781 18.003906 12.34375 18.050781 12.34375 18.109375 C 12.34375 18.167969 12.300781 18.210938 12.242188 18.210938 Z M 12.242188 17.636719 C 12.183594 17.636719 12.136719 17.59375 12.136719 17.535156 C 12.136719 17.476562 12.183594 17.433594 12.242188 17.433594 C 12.300781 17.433594 12.34375 17.476562 12.34375 17.535156 C 12.34375 17.59375 12.300781 17.636719 12.242188 17.636719 Z M 12.242188 16.859375 C 12.300781 16.859375 12.34375 16.902344 12.34375 16.960938 C 12.34375 17.019531 12.300781 17.066406 12.242188 17.066406 C 12.183594 17.066406 12.136719 17.019531 12.136719 16.960938 C 12.136719 16.902344 12.191406 16.859375 12.242188 16.859375 Z M 11.664062 16.285156 C 11.722656 16.285156 11.769531 16.328125 11.769531 16.386719 C 11.769531 16.445312 11.722656 16.492188 11.664062 16.492188 C 11.605469 16.492188 11.5625 16.445312 11.5625 16.386719 C 11.5625 16.328125 11.613281 16.285156 11.664062 16.285156 Z M 11.089844 16.285156 C 11.148438 16.285156 11.191406 16.328125 11.191406 16.386719 C 11.191406 16.445312 11.148438 16.492188 11.089844 16.492188 C 11.03125 16.492188 10.984375 16.445312 10.984375 16.386719 C 10.984375 16.328125 11.03125 16.285156 11.089844 16.285156 Z M 11.089844 16.859375 C 11.148438 16.859375 11.191406 16.902344 11.191406 16.960938 C 11.191406 17.019531 11.148438 17.066406 11.089844 17.066406 C 11.03125 17.066406 10.984375 17.019531 10.984375 16.960938 C 10.984375 16.902344 11.03125 16.859375 11.089844 16.859375 Z M 11.089844 17.433594 C 11.148438 17.433594 11.191406 17.476562 11.191406 17.535156 C 11.191406 17.59375 11.148438 17.636719 11.089844 17.636719 C 11.03125 17.636719 10.984375 17.59375 10.984375 17.535156 C 10.984375 17.476562 11.03125 17.433594 11.089844 17.433594 Z M 10.511719 16.285156 C 10.570312 16.285156 10.617188 16.328125 10.617188 16.386719 C 10.617188 16.445312 10.570312 16.492188 10.511719 16.492188 C 10.453125 16.492188 10.410156 16.445312 10.410156 16.386719 C 10.410156 16.328125 10.453125 16.285156 10.511719 16.285156 Z M 10.511719 16.859375 C 10.570312 16.859375 10.617188 16.902344 10.617188 16.960938 C 10.617188 17.019531 10.570312 17.066406 10.511719 17.066406 C 10.453125 17.066406 10.410156 17.019531 10.410156 16.960938 C 10.410156 16.902344 10.453125 16.859375 10.511719 16.859375 Z M 10.511719 17.433594 C 10.570312 17.433594 10.617188 17.476562 10.617188 17.535156 C 10.617188 17.59375 10.570312 17.636719 10.511719 17.636719 C 10.453125 17.636719 10.410156 17.59375 10.410156 17.535156 C 10.410156 17.476562 10.453125 17.433594 10.511719 17.433594 Z M 9.933594 15.710938 C 9.996094 15.710938 10.039062 15.753906 10.039062 15.816406 C 10.039062 15.875 9.996094 15.917969 9.933594 15.917969 C 9.875 15.917969 9.832031 15.875 9.832031 15.816406 C 9.832031 15.753906 9.875 15.710938 9.933594 15.710938 Z M 9.933594 16.285156 C 9.996094 16.285156 10.039062 16.328125 10.039062 16.386719 C 10.039062 16.445312 9.996094 16.492188 9.933594 16.492188 C 9.875 16.492188 9.832031 16.445312 9.832031 16.386719 C 9.832031 16.328125 9.875 16.285156 9.933594 16.285156 Z M 9.933594 16.859375 C 9.996094 16.859375 10.039062 16.902344 10.039062 16.960938 C 10.039062 17.019531 9.996094 17.066406 9.933594 17.066406 C 9.875 17.066406 9.832031 17.019531 9.832031 16.960938 C 9.832031 16.902344 9.875 16.859375 9.933594 16.859375 Z M 16.382812 16.945312 C 16.382812 16.953125 16.382812 16.953125 16.382812 16.960938 C 16.382812 16.96875 16.382812 16.96875 16.382812 16.976562 L 16.382812 17.511719 C 16.382812 17.519531 16.390625 17.527344 16.390625 17.535156 C 16.390625 17.542969 16.390625 17.550781 16.382812 17.558594 L 16.382812 17.976562 L 17.328125 17.433594 L 16.832031 17.144531 L 16.390625 16.886719 Z M 16.863281 17.433594 C 16.921875 17.433594 16.964844 17.476562 16.964844 17.535156 C 16.964844 17.59375 16.921875 17.636719 16.863281 17.636719 C 16.804688 17.636719 16.757812 17.59375 16.757812 17.535156 C 16.757812 17.476562 16.804688 17.433594 16.863281 17.433594 Z M 13.972656 19.734375 C 14.023438 19.734375 14.058594 19.769531 14.066406 19.816406 L 14.289062 19.941406 L 14.296875 17.851562 L 13.507812 17.394531 L 13.039062 17.128906 L 13.03125 19.21875 L 13.933594 19.734375 C 13.957031 19.734375 13.964844 19.734375 13.972656 19.734375 Z M 13.972656 18.003906 C 14.03125 18.003906 14.074219 18.050781 14.074219 18.109375 C 14.074219 18.167969 14.03125 18.210938 13.972656 18.210938 C 13.914062 18.210938 13.867188 18.167969 13.867188 18.109375 C 13.875 18.050781 13.917969 18.003906 13.972656 18.003906 Z M 13.972656 18.578125 C 14.03125 18.578125 14.074219 18.625 14.074219 18.683594 C 14.074219 18.742188 14.03125 18.785156 13.972656 18.785156 C 13.914062 18.785156 13.867188 18.742188 13.867188 18.683594 C 13.875 18.628906 13.917969 18.578125 13.972656 18.578125 Z M 13.394531 19.359375 C 13.335938 19.359375 13.292969 19.316406 13.292969 19.257812 C 13.292969 19.195312 13.335938 19.152344 13.394531 19.152344 C 13.453125 19.152344 13.5 19.195312 13.5 19.257812 C 13.5 19.316406 13.453125 19.359375 13.394531 19.359375 Z M 13.394531 18.785156 C 13.335938 18.785156 13.292969 18.742188 13.292969 18.683594 C 13.292969 18.625 13.335938 18.578125 13.394531 18.578125 C 13.453125 18.578125 13.5 18.625 13.5 18.683594 C 13.5 18.742188 13.453125 18.785156 13.394531 18.785156 Z M 13.394531 18.210938 C 13.335938 18.210938 13.292969 18.167969 13.292969 18.109375 C 13.292969 18.050781 13.335938 18.003906 13.394531 18.003906 C 13.453125 18.003906 13.5 18.050781 13.5 18.109375 C 13.5 18.167969 13.453125 18.210938 13.394531 18.210938 Z M 13.394531 17.636719 C 13.335938 17.636719 13.292969 17.59375 13.292969 17.535156 C 13.292969 17.476562 13.335938 17.433594 13.394531 17.433594 C 13.453125 17.433594 13.5 17.476562 13.5 17.535156 C 13.5 17.59375 13.453125 17.636719 13.394531 17.636719 Z M 13.972656 19.160156 C 14.03125 19.160156 14.074219 19.203125 14.074219 19.261719 C 14.074219 19.320312 14.03125 19.367188 13.972656 19.367188 C 13.914062 19.367188 13.867188 19.320312 13.867188 19.261719 C 13.875 19.203125 13.917969 19.160156 13.972656 19.160156 Z M 15.78125 19.761719 C 15.796875 19.777344 15.8125 19.808594 15.8125 19.835938 C 15.8125 19.867188 15.796875 19.886719 15.78125 19.910156 L 15.78125 20.34375 C 15.804688 20.367188 15.8125 20.386719 15.8125 20.417969 C 15.8125 20.445312 15.796875 20.46875 15.78125 20.492188 L 15.78125 20.800781 L 16.203125 21.042969 C 16.195312 21.027344 16.1875 21.011719 16.1875 20.992188 C 16.1875 20.933594 16.234375 20.886719 16.292969 20.886719 C 16.351562 20.886719 16.394531 20.933594 16.394531 20.992188 C 16.394531 21.050781 16.351562 21.09375 16.292969 21.09375 L 17.03125 21.519531 L 17.039062 19.433594 L 16.914062 19.359375 C 16.898438 19.367188 16.882812 19.375 16.863281 19.375 C 16.804688 19.375 16.757812 19.328125 16.757812 19.269531 L 15.804688 18.71875 C 15.796875 18.734375 15.796875 18.75 15.78125 18.757812 L 15.78125 19.195312 C 15.796875 19.210938 15.8125 19.242188 15.8125 19.261719 C 15.8125 19.292969 15.804688 19.316406 15.78125 19.328125 Z M 16.285156 20.507812 C 16.226562 20.507812 16.183594 20.460938 16.183594 20.402344 C 16.183594 20.34375 16.226562 20.300781 16.285156 20.300781 C 16.34375 20.300781 16.390625 20.34375 16.390625 20.402344 C 16.390625 20.460938 16.335938 20.507812 16.285156 20.507812 Z M 16.285156 19.933594 C 16.226562 19.933594 16.183594 19.886719 16.183594 19.828125 C 16.183594 19.769531 16.226562 19.726562 16.285156 19.726562 C 16.34375 19.726562 16.390625 19.769531 16.390625 19.828125 C 16.390625 19.886719 16.335938 19.933594 16.285156 19.933594 Z M 16.863281 21.078125 C 16.804688 21.078125 16.757812 21.035156 16.757812 20.976562 C 16.757812 20.917969 16.804688 20.875 16.863281 20.875 C 16.921875 20.875 16.964844 20.917969 16.964844 20.976562 C 16.964844 21.035156 16.914062 21.078125 16.863281 21.078125 Z M 16.863281 20.507812 C 16.804688 20.507812 16.757812 20.460938 16.757812 20.402344 C 16.757812 20.34375 16.804688 20.300781 16.863281 20.300781 C 16.921875 20.300781 16.964844 20.34375 16.964844 20.402344 C 16.964844 20.460938 16.914062 20.507812 16.863281 20.507812 Z M 16.863281 19.933594 C 16.804688 19.933594 16.757812 19.886719 16.757812 19.828125 C 16.757812 19.769531 16.804688 19.726562 16.863281 19.726562 C 16.921875 19.726562 16.964844 19.769531 16.964844 19.828125 C 16.964844 19.886719 16.914062 19.933594 16.863281 19.933594 Z M 16.390625 19.257812 C 16.390625 19.316406 16.34375 19.359375 16.285156 19.359375 C 16.226562 19.359375 16.183594 19.316406 16.183594 19.257812 C 16.183594 19.195312 16.226562 19.152344 16.285156 19.152344 C 16.335938 19.160156 16.390625 19.203125 16.390625 19.257812 Z M 18.015625 22.027344 C 18.074219 22.027344 18.117188 22.070312 18.117188 22.132812 C 18.117188 22.132812 18.117188 22.132812 18.117188 22.136719 L 18.984375 22.636719 L 18.992188 20.550781 L 18.6875 20.375 C 18.695312 20.386719 18.695312 20.402344 18.695312 20.417969 C 18.695312 20.476562 18.652344 20.519531 18.59375 20.519531 C 18.53125 20.519531 18.488281 20.476562 18.488281 20.417969 C 18.488281 20.367188 18.53125 20.320312 18.585938 20.316406 L 17.757812 19.84375 L 17.625 19.769531 L 17.617188 21.859375 L 17.957031 22.050781 C 17.976562 22.035156 17.992188 22.027344 18.015625 22.027344 Z M 18.015625 20.308594 C 18.074219 20.308594 18.117188 20.351562 18.117188 20.410156 C 18.117188 20.46875 18.074219 20.511719 18.015625 20.511719 C 17.957031 20.511719 17.910156 20.46875 17.910156 20.410156 C 17.910156 20.351562 17.957031 20.308594 18.015625 20.308594 Z M 17.910156 20.984375 C 17.910156 20.925781 17.957031 20.882812 18.015625 20.882812 C 18.074219 20.882812 18.117188 20.925781 18.117188 20.984375 C 18.117188 21.042969 18.074219 21.085938 18.015625 21.085938 C 17.957031 21.078125 17.910156 21.035156 17.910156 20.984375 Z M 18.59375 22.234375 C 18.53125 22.234375 18.488281 22.191406 18.488281 22.132812 C 18.488281 22.070312 18.53125 22.027344 18.59375 22.027344 C 18.652344 22.027344 18.695312 22.070312 18.695312 22.132812 C 18.695312 22.183594 18.652344 22.234375 18.59375 22.234375 Z M 18.59375 21.660156 C 18.53125 21.660156 18.488281 21.617188 18.488281 21.558594 C 18.488281 21.5 18.53125 21.453125 18.59375 21.453125 C 18.652344 21.453125 18.695312 21.5 18.695312 21.558594 C 18.695312 21.609375 18.652344 21.660156 18.59375 21.660156 Z M 18.488281 20.984375 C 18.488281 20.925781 18.53125 20.882812 18.59375 20.882812 C 18.652344 20.882812 18.695312 20.925781 18.695312 20.984375 C 18.695312 21.042969 18.652344 21.085938 18.59375 21.085938 C 18.53125 21.078125 18.488281 21.035156 18.488281 20.984375 Z M 18.015625 21.453125 C 18.074219 21.453125 18.117188 21.5 18.117188 21.558594 C 18.117188 21.617188 18.074219 21.660156 18.015625 21.660156 C 17.957031 21.660156 17.910156 21.617188 17.910156 21.558594 C 17.910156 21.5 17.957031 21.453125 18.015625 21.453125 Z M 20.972656 22.777344 L 21.414062 23.035156 L 21.414062 22.785156 C 21.394531 22.761719 21.378906 22.742188 21.378906 22.703125 C 21.378906 22.675781 21.394531 22.644531 21.414062 22.625 L 21.414062 22.203125 C 21.394531 22.183594 21.371094 22.160156 21.371094 22.125 C 21.371094 22.085938 21.386719 22.066406 21.414062 22.042969 L 21.414062 21.867188 C 21.414062 21.867188 21.414062 21.859375 21.414062 21.859375 C 21.414062 21.84375 21.421875 21.835938 21.421875 21.828125 C 21.421875 21.820312 21.429688 21.820312 21.429688 21.816406 C 21.429688 21.816406 21.429688 21.808594 21.4375 21.808594 L 21.902344 21.21875 L 21.5625 21.019531 C 21.550781 21.058594 21.511719 21.078125 21.476562 21.078125 C 21.414062 21.078125 21.371094 21.035156 21.371094 20.976562 C 21.371094 20.953125 21.378906 20.941406 21.394531 20.917969 L 20.824219 20.585938 L 20.410156 20.351562 C 20.417969 20.367188 20.425781 20.382812 20.425781 20.394531 C 20.425781 20.425781 20.410156 20.453125 20.386719 20.46875 L 20.386719 20.886719 C 20.410156 20.910156 20.425781 20.933594 20.425781 20.960938 C 20.425781 20.992188 20.410156 21.019531 20.386719 21.035156 L 20.386719 21.453125 C 20.410156 21.476562 20.425781 21.5 20.425781 21.535156 C 20.425781 21.566406 20.410156 21.59375 20.386719 21.617188 L 20.386719 22.035156 C 20.410156 22.058594 20.425781 22.078125 20.425781 22.117188 C 20.425781 22.144531 20.410156 22.175781 20.382812 22.195312 L 20.382812 22.425781 L 20.800781 22.667969 C 20.808594 22.625 20.855469 22.585938 20.898438 22.585938 C 20.957031 22.585938 21.003906 22.632812 21.003906 22.691406 C 21.003906 22.734375 20.988281 22.757812 20.972656 22.777344 Z M 21.476562 21.453125 C 21.535156 21.453125 21.578125 21.5 21.578125 21.558594 C 21.578125 21.617188 21.535156 21.660156 21.476562 21.660156 C 21.414062 21.660156 21.371094 21.617188 21.371094 21.558594 C 21.378906 21.5 21.421875 21.453125 21.476562 21.453125 Z M 20.898438 20.882812 C 20.957031 20.882812 21.003906 20.925781 21.003906 20.984375 C 21.003906 21.042969 20.957031 21.085938 20.898438 21.085938 C 20.839844 21.085938 20.796875 21.042969 20.796875 20.984375 C 20.800781 20.925781 20.847656 20.882812 20.898438 20.882812 Z M 20.898438 21.453125 C 20.957031 21.453125 21.003906 21.5 21.003906 21.558594 C 21.003906 21.617188 20.957031 21.660156 20.898438 21.660156 C 20.839844 21.660156 20.796875 21.617188 20.796875 21.558594 C 20.800781 21.5 20.847656 21.453125 20.898438 21.453125 Z M 20.898438 22.234375 C 20.839844 22.234375 20.796875 22.191406 20.796875 22.132812 C 20.796875 22.070312 20.839844 22.027344 20.898438 22.027344 C 20.957031 22.027344 21.003906 22.070312 21.003906 22.132812 C 21.003906 22.183594 20.957031 22.234375 20.898438 22.234375 Z M 22.984375 24.925781 L 22.992188 22.835938 L 22.730469 22.691406 C 22.730469 22.695312 22.730469 22.695312 22.730469 22.703125 C 22.730469 22.761719 22.6875 22.808594 22.628906 22.808594 C 22.570312 22.808594 22.523438 22.761719 22.523438 22.703125 C 22.523438 22.660156 22.554688 22.625 22.589844 22.609375 L 21.628906 22.058594 L 21.621094 24.144531 L 21.976562 24.351562 C 21.992188 24.335938 22.023438 24.320312 22.050781 24.320312 C 22.109375 24.320312 22.15625 24.367188 22.15625 24.425781 C 22.15625 24.433594 22.15625 24.441406 22.148438 24.445312 Z M 22.636719 23.175781 C 22.695312 23.175781 22.738281 23.21875 22.738281 23.277344 C 22.738281 23.335938 22.695312 23.382812 22.636719 23.382812 C 22.578125 23.382812 22.53125 23.335938 22.53125 23.277344 C 22.53125 23.21875 22.578125 23.175781 22.636719 23.175781 Z M 22.636719 23.75 C 22.695312 23.75 22.738281 23.792969 22.738281 23.851562 C 22.738281 23.910156 22.695312 23.953125 22.636719 23.953125 C 22.578125 23.953125 22.53125 23.910156 22.53125 23.851562 C 22.53125 23.800781 22.578125 23.75 22.636719 23.75 Z M 22.636719 24.320312 C 22.695312 24.320312 22.738281 24.367188 22.738281 24.425781 C 22.738281 24.484375 22.695312 24.527344 22.636719 24.527344 C 22.578125 24.527344 22.53125 24.484375 22.53125 24.425781 C 22.53125 24.375 22.578125 24.320312 22.636719 24.320312 Z M 22.058594 22.601562 C 22.117188 22.601562 22.164062 22.644531 22.164062 22.703125 C 22.164062 22.761719 22.117188 22.808594 22.058594 22.808594 C 22 22.808594 21.957031 22.761719 21.957031 22.703125 C 21.957031 22.644531 22 22.601562 22.058594 22.601562 Z M 22.058594 23.175781 C 22.117188 23.175781 22.164062 23.21875 22.164062 23.277344 C 22.164062 23.335938 22.117188 23.382812 22.058594 23.382812 C 22 23.382812 21.957031 23.335938 21.957031 23.277344 C 21.957031 23.21875 22 23.175781 22.058594 23.175781 Z M 22.058594 23.953125 C 22 23.953125 21.957031 23.910156 21.957031 23.851562 C 21.957031 23.792969 22 23.75 22.058594 23.75 C 22.117188 23.75 22.164062 23.792969 22.164062 23.851562 C 22.15625 23.910156 22.109375 23.953125 22.058594 23.953125 Z M 24.941406 26.050781 C 24.980469 26.050781 25.015625 26.070312 25.03125 26.109375 L 25.046875 26.117188 L 25.046875 24.027344 L 24.921875 23.953125 C 24.890625 23.953125 24.867188 23.941406 24.851562 23.917969 L 23.855469 23.34375 C 23.832031 23.367188 23.8125 23.382812 23.773438 23.382812 C 23.714844 23.382812 23.671875 23.335938 23.671875 23.277344 C 23.671875 23.261719 23.671875 23.257812 23.679688 23.242188 L 23.523438 23.152344 L 23.515625 25.242188 L 24.941406 26.050781 C 24.933594 26.050781 24.941406 26.050781 24.941406 26.050781 Z M 23.789062 23.953125 C 23.730469 23.953125 23.683594 23.910156 23.683594 23.851562 C 23.683594 23.792969 23.730469 23.75 23.789062 23.75 C 23.847656 23.75 23.890625 23.792969 23.890625 23.851562 C 23.890625 23.910156 23.839844 23.953125 23.789062 23.953125 Z M 24.941406 24.320312 C 25 24.320312 25.046875 24.367188 25.046875 24.425781 C 25.046875 24.484375 25 24.527344 24.941406 24.527344 C 24.882812 24.527344 24.839844 24.484375 24.839844 24.425781 C 24.839844 24.375 24.882812 24.320312 24.941406 24.320312 Z M 24.941406 24.902344 C 25 24.902344 25.046875 24.945312 25.046875 25.007812 C 25.046875 25.066406 25 25.109375 24.941406 25.109375 C 24.882812 25.109375 24.839844 25.066406 24.839844 25.007812 C 24.839844 24.945312 24.882812 24.902344 24.941406 24.902344 Z M 23.789062 25.101562 C 23.730469 25.101562 23.683594 25.058594 23.683594 25 C 23.683594 24.941406 23.730469 24.894531 23.789062 24.894531 C 23.847656 24.894531 23.890625 24.941406 23.890625 25 C 23.890625 25.058594 23.839844 25.101562 23.789062 25.101562 Z M 23.789062 24.527344 C 23.730469 24.527344 23.683594 24.484375 23.683594 24.425781 C 23.683594 24.367188 23.730469 24.320312 23.789062 24.320312 C 23.847656 24.320312 23.890625 24.367188 23.890625 24.425781 C 23.890625 24.484375 23.839844 24.527344 23.789062 24.527344 Z M 24.367188 25.675781 C 24.304688 25.675781 24.261719 25.632812 24.261719 25.570312 C 24.261719 25.511719 24.304688 25.46875 24.367188 25.46875 C 24.425781 25.46875 24.46875 25.511719 24.46875 25.570312 C 24.46875 25.632812 24.417969 25.675781 24.367188 25.675781 Z M 24.367188 25.101562 C 24.304688 25.101562 24.261719 25.058594 24.261719 25 C 24.261719 24.941406 24.304688 24.894531 24.367188 24.894531 C 24.425781 24.894531 24.46875 24.941406 24.46875 25 C 24.46875 25.058594 24.417969 25.101562 24.367188 25.101562 Z M 24.367188 24.527344 C 24.304688 24.527344 24.261719 24.484375 24.261719 24.425781 C 24.261719 24.367188 24.304688 24.320312 24.367188 24.320312 C 24.425781 24.320312 24.46875 24.367188 24.46875 24.425781 C 24.46875 24.484375 24.417969 24.527344 24.367188 24.527344 Z M 24.367188 23.953125 C 24.304688 23.953125 24.261719 23.910156 24.261719 23.851562 C 24.261719 23.792969 24.304688 23.75 24.367188 23.75 C 24.425781 23.75 24.46875 23.792969 24.46875 23.851562 C 24.46875 23.910156 24.417969 23.953125 24.367188 23.953125 Z M 24.941406 25.476562 C 25 25.476562 25.046875 25.519531 25.046875 25.578125 C 25.046875 25.636719 25 25.683594 24.941406 25.683594 C 24.882812 25.683594 24.839844 25.636719 24.839844 25.578125 C 24.839844 25.519531 24.882812 25.476562 24.941406 25.476562 Z M 36.488281 28.792969 L 36.488281 28.550781 C 36.488281 28.550781 36.480469 28.550781 36.480469 28.550781 C 36.421875 28.550781 36.378906 28.507812 36.378906 28.445312 C 36.378906 28.386719 36.421875 28.34375 36.480469 28.34375 C 36.480469 28.34375 36.488281 28.34375 36.488281 28.34375 L 36.488281 27.96875 C 36.488281 27.96875 36.480469 27.96875 36.480469 27.96875 C 36.421875 27.96875 36.378906 27.925781 36.378906 27.867188 C 36.378906 27.808594 36.421875 27.761719 36.480469 27.761719 C 36.480469 27.761719 36.488281 27.761719 36.488281 27.761719 L 36.488281 27.386719 C 36.488281 27.386719 36.480469 27.386719 36.480469 27.386719 C 36.421875 27.386719 36.378906 27.34375 36.378906 27.285156 C 36.378906 27.226562 36.421875 27.183594 36.480469 27.183594 C 36.488281 27.183594 36.488281 27.183594 36.488281 27.183594 L 36.488281 26.808594 C 36.480469 26.808594 36.480469 26.808594 36.472656 26.808594 C 36.46875 26.808594 36.460938 26.808594 36.453125 26.800781 C 36.421875 26.820312 36.402344 26.851562 36.371094 26.875 C 36.363281 26.882812 36.347656 26.886719 36.339844 26.902344 C 36.296875 26.941406 36.253906 26.976562 36.199219 27.011719 C 36.1875 27.019531 36.179688 27.027344 36.164062 27.042969 C 36.128906 27.070312 36.082031 27.101562 36.046875 27.132812 C 36.03125 27.136719 36.015625 27.152344 36 27.160156 C 35.988281 27.175781 35.964844 27.183594 35.949219 27.195312 C 35.980469 27.210938 36 27.25 36 27.285156 C 36 27.34375 35.957031 27.386719 35.898438 27.386719 C 35.839844 27.386719 35.792969 27.34375 35.792969 27.285156 C 35.433594 27.492188 35.03125 27.644531 34.597656 27.757812 C 34.484375 27.785156 34.375 27.808594 34.265625 27.828125 C 34.265625 27.835938 34.273438 27.851562 34.273438 27.859375 C 34.273438 27.917969 34.226562 27.960938 34.167969 27.960938 C 34.109375 27.960938 34.066406 27.917969 34.066406 27.859375 C 33.9375 27.882812 33.804688 27.894531 33.679688 27.902344 C 33.664062 27.941406 33.628906 27.960938 33.589844 27.960938 C 33.554688 27.960938 33.523438 27.941406 33.511719 27.917969 C 33.414062 27.925781 33.3125 27.925781 33.207031 27.925781 C 33.199219 27.925781 33.199219 27.925781 33.191406 27.925781 C 33.15625 27.925781 33.125 27.925781 33.089844 27.925781 C 33.066406 27.945312 33.042969 27.960938 33.007812 27.960938 C 32.96875 27.960938 32.949219 27.945312 32.925781 27.917969 C 32.792969 27.910156 32.660156 27.902344 32.527344 27.886719 C 32.511719 27.933594 32.476562 27.960938 32.429688 27.960938 C 32.371094 27.960938 32.328125 27.917969 32.328125 27.859375 C 32.195312 27.835938 32.0625 27.816406 31.921875 27.785156 C 31.9375 27.800781 31.949219 27.828125 31.949219 27.859375 C 31.949219 27.917969 31.90625 27.960938 31.847656 27.960938 C 31.789062 27.960938 31.742188 27.917969 31.742188 27.859375 C 31.742188 27.816406 31.773438 27.777344 31.808594 27.761719 C 31.800781 27.761719 31.796875 27.761719 31.789062 27.757812 C 31.417969 27.667969 31.0625 27.535156 30.738281 27.375 C 30.722656 27.382812 30.707031 27.382812 30.695312 27.382812 C 30.640625 27.382812 30.605469 27.34375 30.597656 27.300781 C 30.558594 27.285156 30.53125 27.261719 30.492188 27.25 C 30.078125 27.011719 29.777344 26.757812 29.570312 26.484375 C 29.539062 26.445312 29.511719 26.402344 29.488281 26.367188 C 29.488281 26.367188 29.480469 26.359375 29.480469 26.359375 L 29.480469 26.632812 C 29.496094 26.625 29.519531 26.617188 29.53125 26.617188 C 29.59375 26.617188 29.636719 26.660156 29.636719 26.71875 C 29.636719 26.777344 29.59375 26.820312 29.53125 26.820312 C 29.511719 26.820312 29.496094 26.816406 29.480469 26.808594 L 29.480469 27.21875 C 29.496094 27.210938 29.519531 27.195312 29.539062 27.195312 C 29.597656 27.195312 29.644531 27.242188 29.644531 27.300781 C 29.644531 27.359375 29.597656 27.402344 29.539062 27.402344 C 29.519531 27.402344 29.503906 27.394531 29.480469 27.382812 L 29.480469 27.792969 C 29.496094 27.777344 29.519531 27.769531 29.539062 27.769531 C 29.597656 27.769531 29.644531 27.816406 29.644531 27.875 C 29.644531 27.933594 29.597656 27.976562 29.539062 27.976562 C 29.519531 27.976562 29.496094 27.96875 29.480469 27.953125 L 29.480469 28 C 29.480469 28.117188 29.503906 28.234375 29.539062 28.351562 C 29.59375 28.351562 29.636719 28.394531 29.636719 28.453125 C 29.636719 28.476562 29.628906 28.5 29.613281 28.519531 C 29.652344 28.585938 29.6875 28.652344 29.738281 28.71875 C 29.8125 28.820312 29.910156 28.917969 30.011719 29.019531 C 30.019531 28.96875 30.058594 28.933594 30.109375 28.933594 C 30.167969 28.933594 30.214844 28.976562 30.214844 29.035156 C 30.214844 29.078125 30.183594 29.117188 30.140625 29.132812 C 30.273438 29.234375 30.421875 29.335938 30.589844 29.433594 C 30.96875 29.652344 31.382812 29.816406 31.824219 29.917969 C 32.269531 30.019531 32.71875 30.078125 33.183594 30.078125 C 33.644531 30.078125 34.09375 30.019531 34.523438 29.917969 C 34.773438 29.859375 35.011719 29.777344 35.234375 29.683594 C 35.21875 29.667969 35.203125 29.636719 35.203125 29.617188 C 35.203125 29.558594 35.246094 29.511719 35.304688 29.511719 C 35.359375 29.511719 35.402344 29.558594 35.410156 29.609375 C 35.511719 29.558594 35.609375 29.507812 35.707031 29.453125 C 36.0625 29.242188 36.320312 29.027344 36.488281 28.792969 Z M 30.140625 28.550781 C 30.078125 28.550781 30.035156 28.507812 30.035156 28.445312 C 30.035156 28.386719 30.078125 28.34375 30.140625 28.34375 C 30.199219 28.34375 30.242188 28.386719 30.242188 28.445312 C 30.234375 28.507812 30.191406 28.550781 30.140625 28.550781 Z M 30.140625 27.976562 C 30.078125 27.976562 30.035156 27.933594 30.035156 27.875 C 30.035156 27.816406 30.078125 27.769531 30.140625 27.769531 C 30.199219 27.769531 30.242188 27.816406 30.242188 27.875 C 30.234375 27.925781 30.191406 27.976562 30.140625 27.976562 Z M 30.140625 27.402344 C 30.078125 27.402344 30.035156 27.359375 30.035156 27.300781 C 30.035156 27.242188 30.078125 27.195312 30.140625 27.195312 C 30.199219 27.195312 30.242188 27.242188 30.242188 27.300781 C 30.234375 27.351562 30.191406 27.402344 30.140625 27.402344 Z M 31.292969 27.769531 C 31.351562 27.769531 31.394531 27.816406 31.394531 27.875 C 31.394531 27.933594 31.351562 27.976562 31.292969 27.976562 C 31.234375 27.976562 31.1875 27.933594 31.1875 27.875 C 31.1875 27.816406 31.234375 27.769531 31.292969 27.769531 Z M 30.714844 29.125 C 30.65625 29.125 30.613281 29.078125 30.613281 29.019531 C 30.613281 28.960938 30.65625 28.917969 30.714844 28.917969 C 30.773438 28.917969 30.820312 28.960938 30.820312 29.019531 C 30.8125 29.078125 30.765625 29.125 30.714844 29.125 Z M 30.714844 28.550781 C 30.65625 28.550781 30.613281 28.507812 30.613281 28.445312 C 30.613281 28.386719 30.65625 28.34375 30.714844 28.34375 C 30.773438 28.34375 30.820312 28.386719 30.820312 28.445312 C 30.8125 28.507812 30.765625 28.550781 30.714844 28.550781 Z M 30.714844 27.976562 C 30.65625 27.976562 30.613281 27.933594 30.613281 27.875 C 30.613281 27.816406 30.65625 27.769531 30.714844 27.769531 C 30.773438 27.769531 30.820312 27.816406 30.820312 27.875 C 30.8125 27.925781 30.765625 27.976562 30.714844 27.976562 Z M 31.292969 29.695312 C 31.234375 29.695312 31.1875 29.652344 31.1875 29.59375 C 31.1875 29.535156 31.234375 29.492188 31.292969 29.492188 C 31.351562 29.492188 31.394531 29.535156 31.394531 29.59375 C 31.394531 29.652344 31.34375 29.695312 31.292969 29.695312 Z M 31.292969 29.125 C 31.234375 29.125 31.1875 29.078125 31.1875 29.019531 C 31.1875 28.960938 31.234375 28.917969 31.292969 28.917969 C 31.351562 28.917969 31.394531 28.960938 31.394531 29.019531 C 31.394531 29.078125 31.34375 29.125 31.292969 29.125 Z M 31.292969 28.550781 C 31.234375 28.550781 31.1875 28.507812 31.1875 28.445312 C 31.1875 28.386719 31.234375 28.34375 31.292969 28.34375 C 31.351562 28.34375 31.394531 28.386719 31.394531 28.445312 C 31.394531 28.507812 31.34375 28.550781 31.292969 28.550781 Z M 31.867188 29.695312 C 31.808594 29.695312 31.765625 29.652344 31.765625 29.59375 C 31.765625 29.535156 31.808594 29.492188 31.867188 29.492188 C 31.929688 29.492188 31.972656 29.535156 31.972656 29.59375 C 31.972656 29.652344 31.921875 29.695312 31.867188 29.695312 Z M 31.867188 29.125 C 31.808594 29.125 31.765625 29.078125 31.765625 29.019531 C 31.765625 28.960938 31.808594 28.917969 31.867188 28.917969 C 31.929688 28.917969 31.972656 28.960938 31.972656 29.019531 C 31.972656 29.078125 31.921875 29.125 31.867188 29.125 Z M 31.867188 28.550781 C 31.808594 28.550781 31.765625 28.507812 31.765625 28.445312 C 31.765625 28.386719 31.808594 28.34375 31.867188 28.34375 C 31.929688 28.34375 31.972656 28.386719 31.972656 28.445312 C 31.972656 28.507812 31.921875 28.550781 31.867188 28.550781 Z M 32.445312 29.695312 C 32.386719 29.695312 32.34375 29.652344 32.34375 29.59375 C 32.34375 29.535156 32.386719 29.492188 32.445312 29.492188 C 32.503906 29.492188 32.550781 29.535156 32.550781 29.59375 C 32.550781 29.652344 32.503906 29.695312 32.445312 29.695312 Z M 32.445312 29.125 C 32.386719 29.125 32.34375 29.078125 32.34375 29.019531 C 32.34375 28.960938 32.386719 28.917969 32.445312 28.917969 C 32.503906 28.917969 32.550781 28.960938 32.550781 29.019531 C 32.550781 29.078125 32.503906 29.125 32.445312 29.125 Z M 32.445312 28.550781 C 32.386719 28.550781 32.34375 28.507812 32.34375 28.445312 C 32.34375 28.386719 32.386719 28.34375 32.445312 28.34375 C 32.503906 28.34375 32.550781 28.386719 32.550781 28.445312 C 32.550781 28.507812 32.503906 28.550781 32.445312 28.550781 Z M 33.023438 29.695312 C 32.964844 29.695312 32.917969 29.652344 32.917969 29.59375 C 32.917969 29.535156 32.964844 29.492188 33.023438 29.492188 C 33.082031 29.492188 33.125 29.535156 33.125 29.59375 C 33.125 29.652344 33.082031 29.695312 33.023438 29.695312 Z M 33.023438 29.125 C 32.964844 29.125 32.917969 29.078125 32.917969 29.019531 C 32.917969 28.960938 32.964844 28.917969 33.023438 28.917969 C 33.082031 28.917969 33.125 28.960938 33.125 29.019531 C 33.125 29.078125 33.082031 29.125 33.023438 29.125 Z M 33.023438 28.550781 C 32.964844 28.550781 32.917969 28.507812 32.917969 28.445312 C 32.917969 28.386719 32.964844 28.34375 33.023438 28.34375 C 33.082031 28.34375 33.125 28.386719 33.125 28.445312 C 33.125 28.507812 33.082031 28.550781 33.023438 28.550781 Z M 33.597656 29.695312 C 33.539062 29.695312 33.496094 29.652344 33.496094 29.59375 C 33.496094 29.535156 33.539062 29.492188 33.597656 29.492188 C 33.65625 29.492188 33.703125 29.535156 33.703125 29.59375 C 33.703125 29.652344 33.65625 29.695312 33.597656 29.695312 Z M 33.597656 29.125 C 33.539062 29.125 33.496094 29.078125 33.496094 29.019531 C 33.496094 28.960938 33.539062 28.917969 33.597656 28.917969 C 33.65625 28.917969 33.703125 28.960938 33.703125 29.019531 C 33.703125 29.078125 33.65625 29.125 33.597656 29.125 Z M 33.597656 28.550781 C 33.539062 28.550781 33.496094 28.507812 33.496094 28.445312 C 33.496094 28.386719 33.539062 28.34375 33.597656 28.34375 C 33.65625 28.34375 33.703125 28.386719 33.703125 28.445312 C 33.703125 28.507812 33.65625 28.550781 33.597656 28.550781 Z M 34.175781 29.695312 C 34.117188 29.695312 34.070312 29.652344 34.070312 29.59375 C 34.070312 29.535156 34.117188 29.492188 34.175781 29.492188 C 34.234375 29.492188 34.277344 29.535156 34.277344 29.59375 C 34.277344 29.652344 34.234375 29.695312 34.175781 29.695312 Z M 34.175781 29.125 C 34.117188 29.125 34.070312 29.078125 34.070312 29.019531 C 34.070312 28.960938 34.117188 28.917969 34.175781 28.917969 C 34.234375 28.917969 34.277344 28.960938 34.277344 29.019531 C 34.277344 29.078125 34.234375 29.125 34.175781 29.125 Z M 34.175781 28.550781 C 34.117188 28.550781 34.070312 28.507812 34.070312 28.445312 C 34.070312 28.386719 34.117188 28.34375 34.175781 28.34375 C 34.234375 28.34375 34.277344 28.386719 34.277344 28.445312 C 34.277344 28.507812 34.234375 28.550781 34.175781 28.550781 Z M 34.753906 27.769531 C 34.8125 27.769531 34.855469 27.816406 34.855469 27.875 C 34.855469 27.933594 34.8125 27.976562 34.753906 27.976562 C 34.691406 27.976562 34.648438 27.933594 34.648438 27.875 C 34.648438 27.816406 34.699219 27.769531 34.753906 27.769531 Z M 34.753906 29.695312 C 34.691406 29.695312 34.648438 29.652344 34.648438 29.59375 C 34.648438 29.535156 34.691406 29.492188 34.753906 29.492188 C 34.8125 29.492188 34.855469 29.535156 34.855469 29.59375 C 34.855469 29.652344 34.8125 29.695312 34.753906 29.695312 Z M 34.753906 29.125 C 34.691406 29.125 34.648438 29.078125 34.648438 29.019531 C 34.648438 28.960938 34.691406 28.917969 34.753906 28.917969 C 34.8125 28.917969 34.855469 28.960938 34.855469 29.019531 C 34.855469 29.078125 34.8125 29.125 34.753906 29.125 Z M 34.753906 28.550781 C 34.691406 28.550781 34.648438 28.507812 34.648438 28.445312 C 34.648438 28.386719 34.691406 28.34375 34.753906 28.34375 C 34.8125 28.34375 34.855469 28.386719 34.855469 28.445312 C 34.855469 28.507812 34.8125 28.550781 34.753906 28.550781 Z M 35.328125 29.125 C 35.269531 29.125 35.226562 29.078125 35.226562 29.019531 C 35.226562 28.960938 35.269531 28.917969 35.328125 28.917969 C 35.386719 28.917969 35.433594 28.960938 35.433594 29.019531 C 35.433594 29.078125 35.386719 29.125 35.328125 29.125 Z M 35.328125 28.550781 C 35.269531 28.550781 35.226562 28.507812 35.226562 28.445312 C 35.226562 28.386719 35.269531 28.34375 35.328125 28.34375 C 35.386719 28.34375 35.433594 28.386719 35.433594 28.445312 C 35.433594 28.507812 35.386719 28.550781 35.328125 28.550781 Z M 35.328125 27.976562 C 35.269531 27.976562 35.226562 27.933594 35.226562 27.875 C 35.226562 27.816406 35.269531 27.769531 35.328125 27.769531 C 35.386719 27.769531 35.433594 27.816406 35.433594 27.875 C 35.433594 27.925781 35.386719 27.976562 35.328125 27.976562 Z M 35.90625 29.125 C 35.847656 29.125 35.800781 29.078125 35.800781 29.019531 C 35.800781 28.960938 35.847656 28.917969 35.90625 28.917969 C 35.964844 28.917969 36.007812 28.960938 36.007812 29.019531 C 36.007812 29.078125 35.964844 29.125 35.90625 29.125 Z M 35.90625 28.550781 C 35.847656 28.550781 35.800781 28.507812 35.800781 28.445312 C 35.800781 28.386719 35.847656 28.34375 35.90625 28.34375 C 35.964844 28.34375 36.007812 28.386719 36.007812 28.445312 C 36.007812 28.507812 35.964844 28.550781 35.90625 28.550781 Z M 35.90625 27.976562 C 35.847656 27.976562 35.800781 27.933594 35.800781 27.875 C 35.800781 27.816406 35.847656 27.769531 35.90625 27.769531 C 35.964844 27.769531 36.007812 27.816406 36.007812 27.875 C 36.007812 27.925781 35.964844 27.976562 35.90625 27.976562 Z M 35.90625 27.976562 " fill-opacity="1" fill-rule="nonzero"/></g><g clip-path="url(#1b3b48f70a)"><path fill="#ece3c0" d="M 5.121094 6.835938 L 8.007812 8.492188 L 6.957031 9.101562 L 5.382812 8.195312 C 5.34375 8.175781 5.308594 8.175781 5.269531 8.195312 L 4.6875 8.535156 C 4.648438 8.558594 4.636719 8.585938 4.636719 8.628906 C 4.636719 8.667969 4.65625 8.703125 4.6875 8.726562 L 6.015625 9.492188 L 4.96875 10.09375 L 3.535156 9.261719 C 3.496094 9.242188 3.460938 9.242188 3.421875 9.261719 L 1.609375 10.316406 L 0.355469 9.59375 Z M 4.082031 11.726562 L 7.230469 13.535156 L 8.28125 12.925781 L 6.550781 11.933594 C 6.511719 11.910156 6.496094 11.878906 6.496094 11.835938 C 6.496094 11.800781 6.519531 11.761719 6.550781 11.742188 L 7.164062 11.386719 C 7.199219 11.367188 7.238281 11.367188 7.273438 11.386719 L 9.113281 12.445312 L 10.128906 11.867188 L 8.390625 10.875 C 8.351562 10.851562 8.339844 10.820312 8.339844 10.777344 C 8.339844 10.742188 8.359375 10.703125 8.390625 10.683594 L 8.996094 10.335938 C 9.035156 10.316406 9.070312 10.316406 9.105469 10.335938 L 10.949219 11.394531 L 11.996094 10.785156 L 8.847656 8.976562 Z M 11.679688 12.253906 C 11.230469 12.351562 10.824219 12.503906 10.460938 12.71875 C 10.105469 12.925781 9.847656 13.152344 9.683594 13.402344 C 9.527344 13.644531 9.460938 13.894531 9.484375 14.152344 C 9.507812 14.410156 9.609375 14.667969 9.800781 14.910156 C 9.996094 15.160156 10.273438 15.386719 10.628906 15.59375 C 11.015625 15.816406 11.40625 15.984375 11.789062 16.085938 C 11.871094 16.109375 11.945312 16.128906 12.019531 16.144531 C 12.027344 16.144531 12.035156 16.152344 12.042969 16.152344 C 12.109375 16.167969 12.175781 16.183594 12.242188 16.195312 C 12.25 16.195312 12.265625 16.203125 12.269531 16.203125 C 12.332031 16.21875 12.390625 16.226562 12.441406 16.234375 C 12.449219 16.234375 12.457031 16.234375 12.472656 16.242188 C 12.523438 16.25 12.574219 16.253906 12.617188 16.261719 C 12.617188 16.261719 12.625 16.261719 12.625 16.261719 L 13.128906 15.378906 C 13.011719 15.359375 12.871094 15.320312 12.714844 15.277344 C 12.484375 15.210938 12.269531 15.125 12.09375 15.019531 C 11.84375 14.875 11.664062 14.734375 11.5625 14.585938 C 11.449219 14.433594 11.40625 14.277344 11.421875 14.128906 C 11.4375 13.992188 11.503906 13.859375 11.605469 13.742188 C 11.710938 13.628906 11.828125 13.535156 11.96875 13.453125 C 12.101562 13.375 12.265625 13.308594 12.441406 13.253906 C 12.625 13.203125 12.824219 13.167969 13.039062 13.160156 C 13.261719 13.152344 13.492188 13.175781 13.726562 13.234375 C 13.964844 13.292969 14.214844 13.386719 14.460938 13.535156 C 14.644531 13.644531 14.800781 13.761719 14.917969 13.902344 C 15.007812 14.003906 15.074219 14.09375 15.117188 14.167969 L 16.78125 13.851562 C 16.742188 13.769531 16.671875 13.644531 16.523438 13.46875 C 16.34375 13.253906 16.054688 13.035156 15.679688 12.816406 C 15.316406 12.609375 14.910156 12.445312 14.46875 12.335938 C 14.023438 12.226562 13.550781 12.160156 13.070312 12.152344 C 13.027344 12.152344 12.972656 12.152344 12.929688 12.152344 C 12.507812 12.125 12.085938 12.167969 11.679688 12.253906 Z M 13.152344 16.941406 L 14.40625 17.660156 L 16.21875 16.617188 C 16.257812 16.59375 16.292969 16.59375 16.328125 16.617188 L 17.59375 17.34375 C 17.632812 17.367188 17.644531 17.394531 17.644531 17.441406 C 17.644531 17.476562 17.625 17.511719 17.59375 17.535156 L 15.894531 18.519531 L 17.144531 19.242188 L 21.910156 16.484375 L 20.660156 15.761719 L 18.867188 16.800781 C 18.828125 16.820312 18.792969 16.820312 18.753906 16.800781 L 17.492188 16.070312 C 17.453125 16.050781 17.4375 16.019531 17.4375 15.976562 C 17.4375 15.941406 17.460938 15.902344 17.492188 15.878906 L 19.183594 14.902344 L 17.925781 14.183594 Z M 24.558594 17.992188 L 25.859375 18.734375 L 23.066406 22.632812 L 21.691406 21.84375 L 22.15625 21.257812 C 22.175781 21.234375 22.183594 21.195312 22.175781 21.167969 C 22.171875 21.136719 22.15625 21.109375 22.125 21.09375 L 20.335938 20.066406 C 20.316406 20.050781 20.285156 20.050781 20.253906 20.058594 L 19.109375 20.359375 L 17.808594 19.617188 Z M 22.789062 20.261719 C 22.804688 20.269531 22.828125 20.277344 22.84375 20.277344 C 22.871094 20.277344 22.910156 20.261719 22.925781 20.242188 L 23.625 19.382812 C 23.648438 19.359375 23.648438 19.320312 23.640625 19.292969 C 23.632812 19.261719 23.613281 19.234375 23.582031 19.21875 C 23.558594 19.203125 23.53125 19.203125 23.5 19.210938 L 22.007812 19.617188 C 21.964844 19.632812 21.933594 19.660156 21.925781 19.703125 C 21.917969 19.75 21.941406 19.792969 21.976562 19.816406 Z M 28.417969 20.210938 L 30.09375 21.175781 C 30.605469 21.46875 30.929688 21.769531 31.0625 22.078125 C 31.1875 22.375 31.167969 22.660156 30.988281 22.953125 C 30.804688 23.257812 30.472656 23.550781 30.007812 23.816406 C 29.53125 24.085938 29.015625 24.285156 28.476562 24.394531 C 27.9375 24.507812 27.382812 24.519531 26.828125 24.445312 C 26.273438 24.367188 25.726562 24.175781 25.207031 23.882812 L 23.632812 22.976562 Z M 26.132812 22.976562 C 26.09375 23 26.082031 23.027344 26.082031 23.070312 C 26.082031 23.117188 26.101562 23.144531 26.132812 23.167969 L 26.257812 23.242188 C 26.480469 23.367188 26.730469 23.445312 26.996094 23.46875 C 27.0625 23.476562 27.128906 23.476562 27.203125 23.476562 C 27.398438 23.476562 27.597656 23.453125 27.796875 23.402344 C 28.0625 23.335938 28.320312 23.242188 28.550781 23.101562 C 28.785156 22.960938 28.972656 22.816406 29.082031 22.652344 C 29.207031 22.476562 29.253906 22.300781 29.199219 22.125 C 29.15625 21.945312 29.007812 21.792969 28.777344 21.660156 L 28.652344 21.585938 C 28.617188 21.566406 28.578125 21.566406 28.542969 21.585938 Z M 31.757812 23.792969 C 32.1875 23.691406 32.636719 23.636719 33.089844 23.636719 C 33.097656 23.636719 33.105469 23.636719 33.109375 23.636719 C 33.578125 23.636719 34.035156 23.695312 34.472656 23.800781 C 34.90625 23.902344 35.3125 24.066406 35.675781 24.269531 C 36.046875 24.484375 36.320312 24.710938 36.496094 24.953125 C 36.675781 25.191406 36.761719 25.441406 36.761719 25.691406 C 36.761719 25.941406 36.679688 26.183594 36.511719 26.417969 C 36.339844 26.660156 36.074219 26.886719 35.726562 27.085938 C 35.375 27.292969 34.972656 27.445312 34.550781 27.558594 C 34.125 27.660156 33.671875 27.71875 33.214844 27.71875 C 33.207031 27.71875 33.207031 27.71875 33.199219 27.71875 C 32.742188 27.71875 32.289062 27.667969 31.855469 27.558594 C 31.410156 27.445312 30.996094 27.285156 30.621094 27.070312 C 30.234375 26.851562 29.945312 26.617188 29.761719 26.367188 C 29.585938 26.125 29.496094 25.882812 29.503906 25.636719 C 29.503906 25.394531 29.597656 25.152344 29.769531 24.917969 C 29.945312 24.675781 30.21875 24.453125 30.566406 24.25 C 30.929688 24.050781 31.320312 23.894531 31.757812 23.792969 Z M 31.484375 25.425781 C 31.375 25.609375 31.351562 25.800781 31.417969 25.992188 C 31.484375 26.175781 31.640625 26.335938 31.875 26.476562 C 32.113281 26.609375 32.378906 26.695312 32.660156 26.726562 C 32.761719 26.742188 32.867188 26.742188 32.96875 26.742188 C 33.15625 26.742188 33.332031 26.726562 33.515625 26.691406 C 33.804688 26.632812 34.066406 26.535156 34.300781 26.402344 C 34.546875 26.261719 34.714844 26.109375 34.820312 25.933594 C 34.929688 25.75 34.953125 25.558594 34.886719 25.367188 C 34.824219 25.183594 34.671875 25.019531 34.417969 24.882812 C 34.191406 24.75 33.925781 24.660156 33.636719 24.632812 C 33.347656 24.601562 33.058594 24.609375 32.777344 24.667969 C 32.488281 24.726562 32.230469 24.820312 31.996094 24.953125 C 31.9375 24.992188 31.875 25.027344 31.824219 25.066406 C 31.683594 25.167969 31.566406 25.292969 31.484375 25.425781 Z M 31.484375 25.425781 " fill-opacity="1" fill-rule="nonzero"/></g></svg>