<svg xmlns="http://www.w3.org/2000/svg" xmlns:xlink="http://www.w3.org/1999/xlink" width="40" zoomAndPan="magnify" viewBox="0 0 30 30.000001" height="40" preserveAspectRatio="xMidYMid meet" version="1.0"><defs><clipPath id="6d55e4fde0"><path d="M 0.484375 0 L 29.515625 0 L 29.515625 15 L 0.484375 15 Z M 0.484375 0 " clip-rule="nonzero"/></clipPath></defs><g clip-path="url(#6d55e4fde0)"><path fill="#ffffff" d="M 28.953125 12.300781 L 15.875 0.53125 C 15.625 0.308594 15.335938 0.195312 15 0.195312 C 14.664062 0.195312 14.375 0.308594 14.125 0.53125 L 1.046875 12.300781 C 0.921875 12.417969 0.824219 12.554688 0.753906 12.710938 C 0.679688 12.867188 0.640625 13.03125 0.636719 13.199219 C 0.628906 13.371094 0.652344 13.539062 0.710938 13.699219 C 0.769531 13.859375 0.855469 14.003906 0.96875 14.132812 C 1.085938 14.257812 1.21875 14.359375 1.371094 14.433594 C 1.527344 14.507812 1.6875 14.550781 1.859375 14.5625 C 2.03125 14.574219 2.199219 14.550781 2.359375 14.496094 C 2.523438 14.441406 2.667969 14.359375 2.796875 14.246094 L 15 3.261719 L 27.203125 14.246094 C 27.332031 14.359375 27.476562 14.445312 27.640625 14.5 C 27.800781 14.554688 27.96875 14.574219 28.140625 14.5625 C 28.3125 14.554688 28.472656 14.511719 28.628906 14.4375 C 28.78125 14.363281 28.914062 14.261719 29.03125 14.132812 C 29.144531 14.007812 29.230469 13.863281 29.289062 13.703125 C 29.347656 13.539062 29.371094 13.375 29.363281 13.203125 C 29.359375 13.03125 29.320312 12.871094 29.246094 12.714844 C 29.175781 12.558594 29.078125 12.421875 28.953125 12.304688 Z M 28.953125 12.300781 " fill-opacity="1" fill-rule="nonzero"/></g><path fill="#ffffff" d="M 25.460938 15.890625 C 25.289062 15.890625 25.121094 15.921875 24.960938 15.988281 C 24.800781 16.054688 24.660156 16.148438 24.539062 16.273438 C 24.414062 16.394531 24.320312 16.535156 24.253906 16.695312 C 24.1875 16.855469 24.15625 17.023438 24.15625 17.195312 L 24.15625 24.746094 C 24.152344 24.960938 24.113281 25.164062 24.03125 25.363281 C 23.949219 25.558594 23.835938 25.730469 23.683594 25.882812 C 23.535156 26.03125 23.359375 26.148438 23.164062 26.230469 C 22.96875 26.308594 22.761719 26.351562 22.550781 26.351562 L 7.449219 26.351562 C 7.238281 26.351562 7.03125 26.308594 6.835938 26.230469 C 6.640625 26.148438 6.464844 26.03125 6.316406 25.882812 C 6.164062 25.730469 6.050781 25.558594 5.96875 25.363281 C 5.886719 25.164062 5.847656 24.960938 5.84375 24.746094 L 5.84375 17.195312 C 5.84375 17.023438 5.8125 16.855469 5.746094 16.695312 C 5.679688 16.535156 5.585938 16.394531 5.460938 16.273438 C 5.339844 16.148438 5.199219 16.054688 5.039062 15.988281 C 4.878906 15.921875 4.710938 15.890625 4.539062 15.890625 C 4.363281 15.890625 4.199219 15.921875 4.039062 15.988281 C 3.878906 16.054688 3.734375 16.148438 3.613281 16.273438 C 3.492188 16.394531 3.394531 16.535156 3.328125 16.695312 C 3.261719 16.855469 3.230469 17.023438 3.230469 17.195312 L 3.230469 24.746094 C 3.230469 25.023438 3.257812 25.300781 3.3125 25.570312 C 3.367188 25.84375 3.445312 26.105469 3.550781 26.363281 C 3.660156 26.617188 3.789062 26.859375 3.941406 27.089844 C 4.097656 27.320312 4.269531 27.535156 4.46875 27.730469 C 4.664062 27.925781 4.875 28.101562 5.105469 28.253906 C 5.335938 28.410156 5.578125 28.539062 5.835938 28.644531 C 6.089844 28.75 6.355469 28.832031 6.625 28.886719 C 6.898438 28.9375 7.171875 28.964844 7.449219 28.96875 L 22.550781 28.96875 C 22.828125 28.964844 23.101562 28.9375 23.375 28.886719 C 23.644531 28.832031 23.910156 28.75 24.164062 28.644531 C 24.421875 28.539062 24.664062 28.410156 24.894531 28.253906 C 25.125 28.101562 25.335938 27.925781 25.53125 27.730469 C 25.730469 27.535156 25.902344 27.320312 26.058594 27.089844 C 26.210938 26.859375 26.339844 26.617188 26.449219 26.363281 C 26.554688 26.105469 26.632812 25.84375 26.6875 25.570312 C 26.742188 25.300781 26.769531 25.023438 26.769531 24.746094 L 26.769531 17.195312 C 26.769531 17.023438 26.738281 16.855469 26.671875 16.695312 C 26.605469 16.535156 26.507812 16.394531 26.386719 16.273438 C 26.265625 16.148438 26.121094 16.054688 25.960938 15.988281 C 25.800781 15.921875 25.636719 15.890625 25.460938 15.890625 Z M 25.460938 15.890625 " fill-opacity="1" fill-rule="nonzero"/><path stroke-linecap="butt" transform="matrix(0.725806, 0, 0, 0.725806, 25.596772, 19.112906)" fill="none" stroke-linejoin="miter" d="M 0.00121879 2.0026 L 1.400524 2.0026 " stroke="#ffffff" stroke-width="4" stroke-opacity="1" stroke-miterlimit="4"/></svg>