<svg xmlns="http://www.w3.org/2000/svg" xmlns:xlink="http://www.w3.org/1999/xlink" width="55" zoomAndPan="magnify" viewBox="0 0 41.25 41.250001" height="55" preserveAspectRatio="xMidYMid meet" version="1.0"><defs><g/><clipPath id="43b19ee383"><path d="M 4.308594 8.25 L 33.136719 8.25 L 33.136719 24.210938 L 4.308594 24.210938 Z M 4.308594 8.25 " clip-rule="nonzero"/></clipPath></defs><g fill="#000000" fill-opacity="1"><g transform="translate(7.621509, 26.086498)"><g><path d="M 1.648438 0 C 1.511719 -0.136719 1.433594 -1.039062 1.707031 -3.113281 C 2 -5.324219 2.425781 -8.683594 2.5625 -9.277344 L 7.171875 0 L 11.136719 -9.125 C 11.277344 -8.53125 11.71875 -5.324219 12.023438 -3.113281 C 12.3125 -1.039062 12.222656 -0.136719 12.085938 0 L 13.59375 0 C 12.832031 -0.519531 11.613281 -10.910156 11.613281 -10.910156 L 7.429688 -1.128906 L 2.519531 -10.910156 C 2.519531 -10.910156 1.296875 -0.519531 0.535156 0 Z M 1.648438 0 "/></g></g></g><g fill="#000000" fill-opacity="1"><g transform="translate(21.749644, 26.086498)"><g><path d="M 0.535156 0 L 1.921875 0 C 1.601562 -0.320312 1.191406 -1.753906 1.128906 -3.984375 L 1.039062 -9.886719 C 1.113281 -7.628906 3.355469 -6.667969 5.570312 -5.507812 C 7.84375 -4.316406 10.101562 -2.929688 10.101562 0 L 10.101562 0.230469 L 10.300781 0.230469 L 10.300781 -9.214844 C 10.300781 -9.796875 10.285156 -10.359375 10.605469 -10.679688 L 9.214844 -10.679688 C 9.535156 -10.359375 9.949219 -8.925781 10.007812 -6.699219 L 10.101562 -1.617188 C 9.902344 -6.652344 1.921875 -5.78125 1.023438 -10.910156 L 0.839844 -10.910156 L 0.839844 -1.464844 C 0.839844 -0.886719 0.855469 -0.320312 0.535156 0 Z M 0.535156 0 "/></g></g></g><g clip-path="url(#43b19ee383)"><path fill="#000000" d="M 9.351562 15.414062 C 9.175781 15.359375 8.992188 15.320312 8.808594 15.296875 C 8.625 15.269531 8.4375 15.257812 8.25 15.257812 C 7.164062 15.257812 6.179688 15.695312 5.46875 16.40625 C 4.757812 17.121094 4.316406 18.101562 4.316406 19.191406 C 4.316406 20.277344 4.757812 21.261719 5.46875 21.972656 C 6.179688 22.683594 7.164062 23.125 8.25 23.125 C 8.855469 23.125 9.425781 22.988281 9.9375 22.746094 C 10.46875 22.492188 10.9375 22.121094 11.304688 21.671875 C 12.417969 20.324219 13.324219 18.90625 14.230469 17.492188 C 16.097656 14.578125 17.960938 11.667969 21.605469 9.394531 C 21.9375 9.210938 22.285156 9.054688 22.648438 8.921875 C 23.480469 8.617188 24.382812 8.449219 25.324219 8.449219 C 27.472656 8.449219 29.417969 9.320312 30.824219 10.730469 C 32.234375 12.136719 33.105469 14.082031 33.105469 16.230469 C 33.105469 18.378906 32.234375 20.324219 30.824219 21.730469 C 29.492188 23.0625 27.683594 23.914062 25.671875 24.003906 C 25.828125 23.890625 25.933594 23.703125 25.933594 23.492188 C 25.933594 23.144531 25.648438 22.863281 25.300781 22.863281 C 24.953125 22.863281 24.671875 23.144531 24.671875 23.492188 C 24.671875 23.796875 24.886719 24.046875 25.171875 24.109375 L 25.167969 24.207031 L 25.324219 24.210938 C 27.527344 24.210938 29.523438 23.316406 30.964844 21.871094 C 32.410156 20.429688 33.304688 18.433594 33.304688 16.230469 C 33.304688 14.027344 32.410156 12.03125 30.964844 10.585938 C 29.523438 9.144531 27.527344 8.25 25.324219 8.25 C 24.359375 8.25 23.433594 8.421875 22.578125 8.734375 C 21.691406 9.0625 20.878906 9.539062 20.167969 10.140625 C 17.335938 12.273438 15.699219 14.828125 14.0625 17.386719 C 13.160156 18.796875 12.253906 20.207031 11.148438 21.546875 L 11.226562 21.609375 L 11.148438 21.546875 C 10.800781 21.972656 10.359375 22.324219 9.855469 22.5625 C 9.367188 22.796875 8.824219 22.925781 8.25 22.925781 C 7.21875 22.925781 6.285156 22.507812 5.609375 21.832031 C 4.933594 21.15625 4.515625 20.21875 4.515625 19.1875 C 4.515625 18.15625 4.933594 17.222656 5.609375 16.546875 C 6.285156 15.871094 7.21875 15.453125 8.25 15.453125 C 8.429688 15.453125 8.609375 15.464844 8.78125 15.492188 C 8.957031 15.515625 9.128906 15.554688 9.296875 15.601562 L 9.351562 15.410156 Z M 9.351562 15.414062 " fill-opacity="1" fill-rule="nonzero"/></g></svg>