<svg xmlns="http://www.w3.org/2000/svg" xmlns:xlink="http://www.w3.org/1999/xlink" width="40" zoomAndPan="magnify" viewBox="0 0 30 30.000001" height="40" preserveAspectRatio="xMidYMid meet" version="1.0"><defs><clipPath id="e46e78f68b"><path d="M 0.484375 0.238281 L 29 0.238281 L 29 28.542969 L 0.484375 28.542969 Z M 0.484375 0.238281 " clip-rule="nonzero"/></clipPath><clipPath id="686ea270f0"><path d="M 25 11 L 29.515625 11 L 29.515625 15 L 25 15 Z M 25 11 " clip-rule="nonzero"/></clipPath></defs><g clip-path="url(#e46e78f68b)"><path fill="#ffffff" d="M 27.746094 8.898438 C 25.359375 3.53125 20.019531 0.238281 14.140625 0.507812 C 6.921875 0.835938 1.003906 6.757812 0.675781 13.976562 C 0.492188 17.886719 1.878906 21.59375 4.574219 24.414062 C 7.269531 27.238281 10.902344 28.792969 14.808594 28.792969 C 16.773438 28.792969 18.671875 28.398438 20.460938 27.621094 L 21.582031 27.136719 L 20.609375 24.898438 L 19.488281 25.386719 C 18.011719 26.03125 16.4375 26.355469 14.8125 26.355469 C 11.582031 26.355469 8.574219 25.070312 6.34375 22.730469 C 4.117188 20.394531 2.972656 17.324219 3.117188 14.089844 C 3.398438 8.117188 8.285156 3.21875 14.257812 2.949219 C 19.121094 2.726562 23.542969 5.449219 25.515625 9.894531 C 26.851562 12.894531 26.265625 16.421875 24.054688 18.660156 C 23.347656 19.378906 22.550781 19.90625 21.679688 20.234375 C 21.175781 20.421875 20.785156 20.191406 20.636719 20.082031 C 20.492188 19.96875 20.152344 19.652344 20.195312 19.101562 L 20.496094 15.320312 L 21.105469 7.574219 L 18.671875 7.378906 L 18.539062 9.074219 C 17.519531 7.929688 16.171875 7.183594 14.65625 7.0625 C 11.101562 6.785156 7.929688 10.035156 7.597656 14.308594 C 7.4375 16.328125 7.925781 18.292969 8.972656 19.832031 C 10.074219 21.457031 11.660156 22.429688 13.4375 22.566406 C 13.578125 22.578125 13.722656 22.585938 13.863281 22.585938 C 15.445312 22.585938 16.9375 21.886719 18.097656 20.726562 C 18.339844 21.230469 18.703125 21.683594 19.164062 22.035156 C 20.132812 22.765625 21.390625 22.953125 22.527344 22.527344 C 23.734375 22.082031 24.832031 21.355469 25.792969 20.382812 C 28.742188 17.371094 29.507812 12.871094 27.746094 8.898438 Z M 13.625 20.121094 C 12.605469 20.042969 11.667969 19.449219 10.988281 18.445312 C 10.25 17.367188 9.910156 15.957031 10.023438 14.484375 C 10.246094 11.660156 12.101562 9.476562 14.21875 9.476562 C 14.296875 9.476562 14.378906 9.480469 14.460938 9.488281 C 16.675781 9.660156 18.289062 12.1875 18.0625 15.117188 L 18.0625 15.125 C 17.832031 18.054688 15.835938 20.296875 13.625 20.121094 Z M 13.625 20.121094 " fill-opacity="1" fill-rule="nonzero"/></g><g clip-path="url(#686ea270f0)"><path stroke-linecap="butt" transform="matrix(0.725806, 0, 0, 0.725806, 27.048385, 11.612905)" fill="none" stroke-linejoin="miter" d="M -0.0020798 2.002602 L 1.402608 2.002602 " stroke="#ffffff" stroke-width="4" stroke-opacity="1" stroke-miterlimit="4"/></g></svg>