<svg xmlns="http://www.w3.org/2000/svg" xmlns:xlink="http://www.w3.org/1999/xlink" width="40" zoomAndPan="magnify" viewBox="0 0 30 30.000001" height="40" preserveAspectRatio="xMidYMid meet" version="1.0"><defs><clipPath id="7c8186ff65"><path d="M 0.484375 0 L 29.515625 0 L 29.515625 29.03125 L 0.484375 29.03125 Z M 0.484375 0 " clip-rule="nonzero"/></clipPath></defs><g clip-path="url(#7c8186ff65)"><path fill="#ff3298" d="M 28.199219 8.804688 C 25.769531 3.347656 20.34375 0 14.363281 0.277344 C 7.027344 0.609375 1.007812 6.628906 0.671875 13.964844 C 0.488281 17.941406 1.898438 21.710938 4.636719 24.578125 C 7.378906 27.449219 11.070312 29.03125 15.042969 29.03125 C 17.039062 29.03125 18.972656 28.628906 20.792969 27.839844 L 21.929688 27.347656 L 20.941406 25.074219 L 19.800781 25.566406 C 18.300781 26.222656 16.699219 26.550781 15.046875 26.550781 C 11.761719 26.550781 8.707031 25.246094 6.4375 22.867188 C 4.171875 20.492188 3.007812 17.375 3.160156 14.082031 C 3.441406 8.011719 8.414062 3.03125 14.484375 2.757812 C 19.425781 2.53125 23.921875 5.300781 25.929688 9.816406 C 27.289062 12.867188 26.691406 16.453125 24.445312 18.730469 C 23.726562 19.460938 22.914062 19.996094 22.027344 20.332031 C 21.515625 20.519531 21.121094 20.285156 20.96875 20.175781 C 20.820312 20.0625 20.476562 19.738281 20.519531 19.179688 L 20.824219 15.335938 L 21.449219 7.457031 L 18.972656 7.261719 L 18.835938 8.984375 C 17.800781 7.820312 16.429688 7.0625 14.886719 6.941406 C 11.273438 6.65625 8.050781 9.960938 7.710938 14.304688 C 7.550781 16.359375 8.042969 18.355469 9.109375 19.921875 C 10.230469 21.574219 11.84375 22.5625 13.648438 22.703125 C 13.792969 22.714844 13.9375 22.71875 14.082031 22.71875 C 15.691406 22.71875 17.207031 22.011719 18.386719 20.832031 C 18.632812 21.34375 19 21.804688 19.472656 22.160156 C 20.457031 22.902344 21.734375 23.09375 22.890625 22.660156 C 24.117188 22.207031 25.234375 21.46875 26.210938 20.480469 C 29.210938 17.417969 29.988281 12.84375 28.199219 8.804688 Z M 13.839844 20.214844 C 12.804688 20.136719 11.847656 19.53125 11.15625 18.511719 C 10.410156 17.414062 10.066406 15.980469 10.179688 14.484375 C 10.402344 11.613281 12.292969 9.390625 14.445312 9.390625 C 14.523438 9.390625 14.605469 9.398438 14.691406 9.402344 C 16.941406 9.582031 18.582031 12.148438 18.351562 15.128906 L 18.351562 15.132812 C 18.117188 18.117188 16.089844 20.394531 13.839844 20.214844 Z M 13.839844 20.214844 " fill-opacity="1" fill-rule="nonzero"/></g></svg>